<svg width="10" height="20" viewBox="0 0 10 20" fill="none" xmlns="http://www.w3.org/2000/svg">
<path d="M0.255261 10.7804L7.37546 19.6805C7.54015 19.8865 7.75998 20 7.99439 20C8.22879 20 8.44863 19.8865 8.61331 19.6805L9.13766 19.0252C9.47886 18.5982 9.47886 17.9042 9.13766 17.4779L3.15865 10.0041L9.14429 2.52209C9.30898 2.31608 9.3999 2.04145 9.3999 1.7486C9.3999 1.45543 9.30898 1.1808 9.14429 0.974625L8.61994 0.319509C8.45513 0.113494 8.23542 -4.75763e-07 8.00102 -4.75763e-07C7.76661 -4.75763e-07 7.54678 0.113494 7.3821 0.319509L0.255261 9.22773C0.0901894 9.43439 -0.000476269 9.71033 4.40515e-05 10.0037C-0.000476269 10.2981 0.0901894 10.5739 0.255261 10.7804Z" fill="white"/>
</svg>
