<svg width="10" height="21" viewBox="0 0 10 21" fill="none" xmlns="http://www.w3.org/2000/svg">
<path d="M9.44786 11.2804L2.32766 20.1805C2.16298 20.3865 1.94314 20.5 1.70874 20.5C1.47434 20.5 1.2545 20.3865 1.08982 20.1805L0.565465 19.5252C0.224264 19.0982 0.224264 18.4042 0.565465 17.9779L6.54447 10.5041L0.55883 3.02209C0.394149 2.81608 0.303223 2.54145 0.303223 2.2486C0.303223 1.95543 0.394149 1.6808 0.55883 1.47463L1.08318 0.819509C1.248 0.613494 1.4677 0.5 1.70211 0.5C1.93651 0.5 2.15635 0.613494 2.32103 0.819509L9.44786 9.72773C9.61294 9.93439 9.7036 10.2103 9.70308 10.5037C9.7036 10.7981 9.61294 11.0739 9.44786 11.2804Z" fill="#959595"/>
</svg>
