<svg width="10" height="21" viewBox="0 0 10 21" fill="none" xmlns="http://www.w3.org/2000/svg">
<path d="M9.44152 9.7196L2.32131 0.81951C2.15663 0.613495 1.9368 0.5 1.70239 0.5C1.46799 0.5 1.24815 0.613495 1.08347 0.81951L0.559117 1.47479C0.217916 1.90178 0.217916 2.59576 0.559117 3.02209L6.53813 10.4959L0.552483 17.9779C0.387801 18.1839 0.296875 18.4586 0.296875 18.7514C0.296875 19.0446 0.387801 19.3192 0.552483 19.5254L1.07684 20.1805C1.24165 20.3865 1.46135 20.5 1.69576 20.5C1.93016 20.5 2.15 20.3865 2.31468 20.1805L9.44152 11.2723C9.60659 11.0656 9.69725 10.7897 9.69673 10.4963C9.69725 10.2019 9.60659 9.9261 9.44152 9.7196Z" fill="white"/>
</svg>
