<svg width="10" height="21" viewBox="0 0 10 21" fill="none" xmlns="http://www.w3.org/2000/svg">
<path d="M0.558484 9.7196L7.67869 0.81951C7.84337 0.613495 8.0632 0.5 8.29761 0.5C8.53201 0.5 8.75185 0.613495 8.91653 0.81951L9.44088 1.47479C9.78208 1.90178 9.78208 2.59576 9.44088 3.02209L3.46187 10.4959L9.44752 17.9779C9.6122 18.1839 9.70312 18.4586 9.70312 18.7514C9.70312 19.0446 9.6122 19.3192 9.44752 19.5254L8.92316 20.1805C8.75835 20.3865 8.53865 20.5 8.30424 20.5C8.06984 20.5 7.85 20.3865 7.68532 20.1805L0.558484 11.2723C0.393412 11.0656 0.302746 10.7897 0.303267 10.4963C0.302746 10.2019 0.393412 9.9261 0.558484 9.7196Z" fill="#959595"/>
</svg>
