<svg width="24" height="24" viewBox="0 0 24 24" fill="none" xmlns="http://www.w3.org/2000/svg">
<path d="M23.8671 9.82235C20.0059 17.9999 18.7495 17.9999 18 17.9999H10.6154C8.02892 17.9999 6.04708 16.4787 5.56616 14.123C5.55139 14.051 4.08923 6.87404 3.71539 4.86912C3.53169 3.88604 3.06462 3.23066 1.38462 3.23066C0.619385 3.23066 0 2.61127 0 1.84604C0 1.08081 0.619385 0.461426 1.38462 0.461426C4.17231 0.461426 5.96677 1.84604 6.43754 4.3605C6.80769 6.34419 8.26523 13.4971 8.28 13.57C8.57446 15.0156 9.86954 15.2316 10.6154 15.2316H17.6354C18.3895 14.4211 20.1083 11.2983 21.3628 8.63989C21.6895 7.9485 22.5157 7.65404 23.2062 7.97896C23.8985 8.30481 24.1939 9.13004 23.8671 9.82235ZM9.69231 18.923C8.41754 18.923 7.38462 19.9559 7.38462 21.2307C7.38462 22.5054 8.41754 23.5383 9.69231 23.5383C10.9671 23.5383 12 22.5054 12 21.2307C12 19.9559 10.9671 18.923 9.69231 18.923ZM18 18.923C16.7252 18.923 15.6923 19.9559 15.6923 21.2307C15.6923 22.5054 16.7252 23.5383 18 23.5383C19.2748 23.5383 20.3077 22.5054 20.3077 21.2307C20.3077 19.9559 19.2748 18.923 18 18.923ZM13.5351 11.3943C13.6274 11.4691 13.7409 11.5051 13.8545 11.5051C13.968 11.5051 14.0797 11.4691 14.1738 11.3943C14.2662 11.3214 16.7843 8.86512 18.1579 6.82143C18.264 6.66266 18.2742 6.45958 18.1837 6.29158C18.096 6.1245 17.9206 6.01927 17.7314 6.01927H15.6766C15.6766 6.01927 15.4763 2.05835 15.3452 1.87466C15.1551 1.60327 14.3695 1.41866 13.8535 1.41866C13.3357 1.41866 12.5363 1.60327 12.3452 1.87466C12.2151 2.05743 12.0425 6.01927 12.0425 6.01927H9.96093C9.77077 6.01927 9.59631 6.1245 9.50677 6.29158C9.41723 6.45958 9.42739 6.66358 9.53262 6.82143C10.9071 8.86604 13.4437 11.3214 13.5351 11.3943Z" fill="#030104"/>
</svg>
