<svg width="28" height="26" fill="none" xmlns="http://www.w3.org/2000/svg"><path d="M11.86 3.21h4.388l3.39 7.173H8.469L11.86 3.21zm-.55-1.257a.63.63 0 00-.533.51l-3.522 7.92H1.451c-.364.036-.632.485-.505.846l4.482 12.574c.083.24.317.411.56.412H22.12a.615.615 0 00.56-.413l4.48-12.573c.132-.378-.177-.845-.56-.845h-5.749l-3.521-7.92c-.052-.285-.312-.512-.588-.51l-5.433-.001z" fill="#881777"/><rect x="6" y="12.93" width="3" height="3" rx="1.5" fill="#D9D9D9"/><rect x="19" y="12.93" width="3" height="3" rx="1.5" fill="#D9D9D9"/></svg>