<svg width="29" height="25" fill="none" xmlns="http://www.w3.org/2000/svg"><path d="M25.89 2.458A8.104 8.104 0 0023.261.745a8.317 8.317 0 00-6.214 0 8.104 8.104 0 00-2.628 1.713l-.284.276-.282-.276A8.1 8.1 0 0011.225.742 8.313 8.313 0 005.01.738 8.1 8.1 0 002.38 2.45 7.817 7.817 0 000 8.045a7.816 7.816 0 002.372 5.598l9.287 9.062.028.03.724.708a2.47 2.47 0 001.72.693 2.47 2.47 0 001.72-.693l5.015-4.895 5.015-4.894a7.889 7.889 0 001.768-2.566c.828-1.94.83-4.12.004-6.062a7.888 7.888 0 00-1.763-2.568z" fill="url(#paint0_linear_548_123)"/><defs><linearGradient id="paint0_linear_548_123" x1="14.135" y1=".133" x2="14.135" y2="24.134" gradientUnits="userSpaceOnUse"><stop stop-color="#9E3085"/><stop offset="1" stop-color="#841375"/></linearGradient></defs></svg>