<svg width="28" height="28" fill="none" xmlns="http://www.w3.org/2000/svg"><path d="M27.898 14.43c0-7.457-6.043-13.5-13.5-13.5-7.456 0-13.5 6.043-13.5 13.5 0 7.456 6.044 13.5 13.5 13.5 7.457 0 13.5-6.044 13.5-13.5z" fill="url(#paint0_linear_548_139)"/><path d="M22.048 23.257a.341.341 0 01-.03-.068c-.157.411-1.149 3.24-7.401 3.24-7.456 0-7.445-3.185-7.445-3.185s.173.315.001 0c-.172-.314-.294-1.135.212-1.584.767-.68 1.477-.843 1.477-.843a10.3 10.3 0 011.837-.481c.684-.106 1.423.047 1.747-.242.341-.301.243-1.052.121-1.207-.195-.25-.492-.468-.658-.582-1.089-.435-1.812-1.143-2.235-1.947-.37-.71-.391-1.513-.482-2.231-.091-.73-.329-1.41-.361-1.99-.199-3.654.947-6.688 5.756-6.688 4.89 0 5.88 2.903 5.755 6.688-.021.68-.21 1.314-.301 1.93-.099.67-.09 1.315-.335 1.876a4.424 4.424 0 01-.965 1.432 4.17 4.17 0 01-1.419.924 2.44 2.44 0 00-.656.588c-.103.143-.239.796.06 1.146.263.305 1.189.183 1.808.301.627.12 1.244.284 1.847.49a4.984 4.984 0 011.528.898c.497.44-.01 1.078.11 1.467.03-.08.03-.07.03.068z" fill="#fff"/><defs><linearGradient id="paint0_linear_548_139" x1="14.398" y1=".93" x2="14.398" y2="27.93" gradientUnits="userSpaceOnUse"><stop stop-color="#9E3085"/><stop offset="1" stop-color="#841375"/></linearGradient></defs></svg>