<svg width="235" height="98" fill="none" xmlns="http://www.w3.org/2000/svg"><path d="M174.698 24.39c0 1.49-.633 3.391-1.898 5.704-1.265 2.312-2.957 4.843-5.074 7.593-2.118 2.749-4.584 5.614-7.399 8.595a156.788 156.788 0 01-8.871 8.672 161.89 161.89 0 01-9.374 7.862c-3.151 2.441-6.172 4.51-9.064 6.206-.724 3.34-1.085 6.526-1.085 9.558 0 .72-.091 1.22-.271 1.503-.181.283-.556.424-1.124.424l-.697-.077c-.413-.051-.684-.27-.813-.655-.13-.385-.194-.835-.194-1.349 0-2.518.258-5.036.775-7.554-1.498.72-2.906 1.284-4.223 1.696-1.317.41-2.492.616-3.525.616s-1.833-.205-2.401-.616c-.568-.412-.982-.874-1.24-1.388a4.485 4.485 0 01-.493-1.484l-2.761 1.099c-.516.205-1.175.475-1.975.809a37.08 37.08 0 01-2.596.964 45 45 0 01-2.711.809c-.878.231-1.653.347-2.324.347-.672 0-1.201-.142-1.589-.424a3.648 3.648 0 01-.929-.964 3.237 3.237 0 01-.465-1.079 4.253 4.253 0 01-.116-.848c0-.668.129-1.272.387-1.811.258-.54.465-.938.62-1.195a33.81 33.81 0 01-2.363 1.349c-.749.385-1.279.63-1.588.732a19.91 19.91 0 01-1.201.463c-.44.154-.891.334-1.356.54-.103 0-.194-.065-.271-.193a.69.69 0 01-.116-.347c0-.206.051-.334.155-.386a58.99 58.99 0 001.2-.462 13.9 13.9 0 001.046-.463 27.864 27.864 0 003.099-1.696c1.033-.616 1.795-1.169 2.286-1.657.49-.488.813-.938.968-1.349.155-.411.31-.732.465-.963.155-.232.362-.347.62-.347.361 0 .684.09.968.27.284.18.426.475.426.886 0 .154-.077.36-.232.617l-.542.809a10.17 10.17 0 00-.736 1.31 12.547 12.547 0 00-.62 1.58 5.305 5.305 0 00-.271 1.62c0 .565.206 1.053.619 1.464.414.411 1.059.617 1.937.617.568 0 1.201-.09 1.898-.27.698-.18 1.395-.386 2.092-.617a40.584 40.584 0 001.937-.694 30.69 30.69 0 011.356-.5l2.324-.926c.115-.057.231-.11.348-.162.134-1.086.625-2.073 1.473-2.96 1.007-1.053 2.233-1.94 3.679-2.659a21.758 21.758 0 014.533-1.657c1.575-.386 2.931-.578 4.067-.578.413 0 .62.18.62.54 0 .359-.181.539-.542.539l-.452-.077c-1.085 0-2.234.18-3.474.54a15.3 15.3 0 00-3.422 1.464c-1.045.617-1.911 1.336-2.582 2.158-.659.823-.994 1.696-.994 2.621 0 .668.18 1.195.542 1.58.362.386.749.656 1.162.81a4.575 4.575 0 001.705.308c1.639 0 3.654-.617 6.03-1.85.929-3.803 2.311-7.67 4.144-11.601a95.323 95.323 0 016.302-11.447 98.258 98.258 0 017.695-10.445c2.763-3.264 5.501-6.103 8.238-8.518 2.738-2.415 5.372-4.33 7.928-5.743 2.557-1.413 4.843-2.12 6.844-2.12 1.239 0 2.13.399 2.673 1.195.542.797.813 2.017.813 3.662zm-3.409.154c0-.977-.284-1.696-.852-2.159-.568-.462-1.317-.693-2.247-.693-1.342 0-2.995.604-4.958 1.811-1.963 1.208-4.067 2.878-6.314 5.01-2.247 2.133-4.558 4.651-6.934 7.555a90.962 90.962 0 00-6.74 9.443 98.238 98.238 0 00-5.772 10.676 65.84 65.84 0 00-4.067 11.293c2.479-1.49 5.139-3.315 7.98-5.473 2.84-2.158 5.655-4.51 8.444-7.053a147.644 147.644 0 008.096-7.979c2.608-2.775 4.894-5.498 6.857-8.17 1.962-2.673 3.538-5.242 4.725-7.709 1.188-2.467 1.782-4.65 1.782-6.552zm-57.485 29.215c0 .36-.103.758-.31 1.195a6.19 6.19 0 01-.774 1.233c-.31.386-.659.707-1.046.964-.388.256-.788.385-1.201.385-.93 0-1.395-.411-1.395-1.233 0-.36.104-.758.31-1.195.207-.437.465-.848.775-1.233.31-.386.671-.707 1.085-.964.413-.257.8-.386 1.162-.386.929 0 1.394.412 1.394 1.234zm-4.261-16.728c0 1.234-.374 2.583-1.123 4.047-.749 1.465-1.692 2.994-2.828 4.587a67.553 67.553 0 01-3.757 4.78A301.338 301.338 0 0098 54.991a113.919 113.919 0 00-4.145 5.242 102.815 102.815 0 00-4.067 5.858 98.157 98.157 0 00-3.564 5.975c-1.085 1.978-1.989 3.84-2.712 5.588a13.9 13.9 0 00-.852 3.007 17.731 17.731 0 00-.232 2.775c0 1.747.206 3.301.62 4.663.412 1.362.774 2.403 1.084 3.122.103.206.155.463.155.771 0 .36-.13.604-.387.732-.259.129-.569.193-.93.193-.568 0-1.11-.206-1.627-.617-.517-.41-.969-.963-1.356-1.657-.387-.694-.697-1.516-.93-2.467-.232-.95-.348-1.94-.348-2.968 0-.822.039-1.683.116-2.582.078-.9.323-1.978.736-3.237.413-1.26 1.072-2.75 1.976-4.471.904-1.722 2.156-3.803 3.757-6.244s3.641-5.28 6.12-8.518c2.48-3.238 5.501-6.99 9.065-11.254.155-.257.529-.784 1.123-1.58a53.793 53.793 0 001.898-2.737 24.478 24.478 0 001.782-3.238c.517-1.13.775-2.132.775-3.006 0-1.028-.452-1.76-1.356-2.197-.904-.437-1.769-.655-2.595-.655-1.343 0-2.931.385-4.765 1.156-1.833.77-3.796 1.773-5.888 3.006a80.112 80.112 0 00-6.469 4.279 208.216 208.216 0 00-6.546 4.972 223.272 223.272 0 00-6.16 5.049 1066.71 1066.71 0 00-5.268 4.51c-.31.256-.865.808-1.665 1.656a212.9 212.9 0 01-2.828 2.93 238.33 238.33 0 00-3.37 3.507 618.778 618.778 0 01-3.293 3.469 137.74 137.74 0 00-2.595 2.775 55.822 55.822 0 01-1.278 1.387c-.31.309-.569.617-.775.925a.973.973 0 01-.852.463c-.259 0-.491-.103-.698-.308-.206-.206-.31-.412-.31-.617 0-.257.104-.501.31-.732.207-.232.44-.476.698-.733.878-.822 2.001-2.055 3.37-3.7a207.502 207.502 0 004.416-5.511 453.27 453.27 0 004.842-6.36 710.07 710.07 0 004.648-6.282 364.44 364.44 0 003.796-5.28c1.085-1.542 1.834-2.647 2.247-3.315a15.107 15.107 0 001.588-3.16c.388-1.08.581-2.056.581-2.93 0-.925-.245-1.683-.736-2.274-.49-.59-1.252-.886-2.285-.886-1.55 0-3.409.565-5.578 1.695-2.17 1.131-4.442 2.544-6.818 4.24a113.938 113.938 0 00-7.011 5.435 208.141 208.141 0 00-6.082 5.28c-1.033.925-2.311 2.158-3.835 3.7a236.38 236.38 0 00-4.764 4.972 1021.46 1021.46 0 00-4.959 5.357 372.089 372.089 0 00-4.493 4.972 581.158 581.158 0 01-3.37 3.778c-.904 1.002-1.433 1.58-1.588 1.734-.517.668-.982 1.002-1.395 1.002-.258 0-.49-.09-.697-.27a.838.838 0 01-.31-.655c0-.308.232-.694.697-1.156.723-.72 1.653-1.799 2.79-3.238a182.808 182.808 0 003.718-4.895 382.158 382.158 0 004.222-5.858c1.472-2.081 2.88-4.15 4.223-6.206 1.24-1.901 2.44-3.751 3.602-5.55a84.95 84.95 0 003.099-5.164c.904-1.645 1.614-3.212 2.13-4.703.517-1.49.775-2.852.775-4.085 0-2.158-.671-3.97-2.014-5.434-1.343-1.465-3.112-2.698-5.307-3.7-2.195-1.003-4.7-1.838-7.515-2.506a332.728 332.728 0 00-8.638-1.927 251.742 251.742 0 01-8.638-1.966c-2.815-.693-5.32-1.567-7.515-2.62-2.196-1.054-3.964-2.351-5.307-3.893C.9 10.283.228 8.356.228 6.043c0-.873.117-1.606.349-2.197.232-.59.478-1.091.736-1.503a4.14 4.14 0 011.162-1.156c.207-.154.413-.231.62-.231.361 0 .542.154.542.462 0 .154-.077.309-.232.463-.568.668-.956 1.297-1.162 1.888-.207.591-.31 1.144-.31 1.658 0 1.593.684 2.929 2.053 4.008 1.368 1.08 3.163 2.03 5.384 2.852 2.221.822 4.752 1.542 7.593 2.159 2.84.616 5.758 1.259 8.754 1.927 2.996.668 5.914 1.4 8.755 2.197 2.84.796 5.371 1.76 7.592 2.89 2.22 1.131 4.016 2.493 5.384 4.086 1.37 1.593 2.053 3.52 2.053 5.781 0 1.747-.374 3.675-1.123 5.782a50.948 50.948 0 01-2.828 6.436 90.315 90.315 0 01-3.64 6.36 152.714 152.714 0 01-3.642 5.55 383.234 383.234 0 01-2.828 4.047c-.749 1.053-1.123 1.683-1.123 1.888.154-.102.62-.526 1.394-1.272.775-.745 1.808-1.773 3.1-3.083a282.597 282.597 0 014.725-4.664 428.23 428.23 0 016.275-5.935c5.423-4.934 10.356-8.724 14.798-11.37 4.442-2.647 8.083-3.97 10.924-3.97 1.032 0 1.898.295 2.595.887.697.59 1.046 1.657 1.046 3.198a8.902 8.902 0 01-.543 3.045 19.484 19.484 0 01-1.317 2.891 23.372 23.372 0 01-1.665 2.582 52.675 52.675 0 00-1.511 2.12c-.207.308-.568.81-1.085 1.503a155.97 155.97 0 01-1.82 2.39c-.698.9-1.447 1.863-2.247 2.89a261.57 261.57 0 00-2.363 3.084 475.855 475.855 0 01-6.198 7.863l.155-.077c1.395-1.44 3.202-3.2 5.423-5.28a219.724 219.724 0 017.244-6.476 176.019 176.019 0 018.29-6.668 113.081 113.081 0 018.6-5.935c2.814-1.747 5.513-3.16 8.095-4.24 2.583-1.08 4.881-1.619 6.895-1.619 1.188 0 2.221.296 3.099.887.878.59 1.317 1.554 1.317 2.89zm110.188 31.914c0 .205-.077.36-.232.462l-3.486 1.388c-.517.205-1.175.475-1.976.809-.8.334-1.666.655-2.595.964-.93.308-1.834.578-2.712.809-.878.231-1.653.347-2.324.347-.981 0-1.653-.193-2.014-.578-.362-.386-.543-.861-.543-1.426 0-.566.117-1.17.349-1.812.232-.642.491-1.259.775-1.85.284-.59.542-1.105.774-1.542.233-.436.349-.732.349-.886 0-.051-.051-.077-.155-.077-.206 0-.671.205-1.394.617a59.21 59.21 0 00-2.479 1.503c-.93.59-1.937 1.246-3.022 1.965a84.802 84.802 0 01-3.099 1.966 45.621 45.621 0 01-2.673 1.503c-.8.411-1.381.617-1.743.617-.31 0-.581-.103-.813-.309a.985.985 0 01-.349-.77c0-.411.181-.887.542-1.426.362-.54.775-1.08 1.24-1.62.465-.539.943-1.066 1.433-1.58.491-.513.865-.924 1.124-1.233.051-.051.077-.128.077-.231 0-.154-.103-.231-.31-.231-.052 0-.323.128-.813.385-4.07 2.131-9.177 4.934-13.808 4.934-1.343 0-2.376-.412-3.099-1.234a20.254 20.254 0 01-4.532 3.392c-1.679.925-3.345 1.387-4.997 1.387-.724 0-1.292-.166-1.705-.5-.413-.335-.62-.913-.62-1.735 0-.853.33-1.866.988-3.038-3.457 1.381-6.854 2.468-10.443 3.45-1.833.5-3.37.744-4.61.744-1.033 0-1.872-.244-2.517-.732-.646-.488-.969-1.118-.969-1.888 0-.72.232-1.388.697-2.005a10.2 10.2 0 011.511-1.619 20.198 20.198 0 011.472-1.156c.439-.308.658-.488.658-.54 0-.102-.193-.18-.58-.23a71.334 71.334 0 01-1.976-.31c-.568-.102-.943-.269-1.123-.5a1.17 1.17 0 01-.272-.732c0-.36.117-.681.349-.964.233-.283.4-.475.504-.578 1.033-.668 2.246-1.336 3.641-2.004a51.398 51.398 0 014.145-1.773 42.344 42.344 0 013.757-1.234c1.136-.308 1.937-.462 2.402-.462.516 0 .994.116 1.433.347.439.231.659.63.659 1.195 0 .257-.13.526-.388.809-.258.283-.568.54-.929.77a6.116 6.116 0 01-1.163.579c-.413.154-.774.231-1.084.231-.258 0-.504-.051-.736-.154a.545.545 0 01-.349-.54c0-.308.129-.642.388-1.002.103-.102.155-.205.155-.308 0-.103-.13-.154-.388-.154-.103 0-.258.013-.465.038a9.904 9.904 0 00-.697.116c-.413.103-1.007.296-1.782.578-.775.283-1.549.604-2.324.964-.775.36-1.472.693-2.092 1.002-.62.308-1.007.526-1.162.63-.207.154-.31.308-.31.462 0 .257.155.437.465.54 1.002.164 2.205.154 3.331.154.569.051.904.154 1.008.308.103.167.154.424.154.784 0 .257-.051.514-.154.77-.104.27-.439.45-1.008.553a10.72 10.72 0 00-3.137 1.31c-1.007.63-1.511 1.452-1.511 2.493 0 .72.4 1.259 1.201 1.593.8.334 1.562.5 2.285.5 1.343 0 2.763-.192 4.261-.577 3.012-.775 5.736-1.67 8.6-2.89a28.348 28.348 0 012.986-3.624c1.343-1.387 2.725-2.57 4.145-3.546 1.42-.976 2.595-1.464 3.525-1.464.258 0 .504.09.736.27.232.18.349.346.349.5 0 .103-.078.167-.233.193-.155.026-.31.039-.465.039-.619 0-1.485.398-2.595 1.194a27.072 27.072 0 00-3.293 2.814 21.198 21.198 0 00-2.789 3.392c-.774 1.182-1.162 2.158-1.162 2.929 0 1.13.568 1.696 1.705 1.696.929 0 1.975-.321 3.137-.964a17.95 17.95 0 003.293-2.35c-.362-.669-.542-1.517-.542-2.545 0-.719.116-1.451.348-2.197a6.66 6.66 0 01.969-1.965 5.17 5.17 0 011.51-1.388 3.742 3.742 0 011.976-.54c.981 0 1.472.463 1.472 1.401 0 .822-.349 1.863-1.046 3.11-.697 1.245-1.64 2.504-2.828 3.802.568.732 1.395 1.092 2.48 1.092.723 0 1.471-.077 2.246-.231 5.014-.998 10.667-4.006 14.854-7.015.279-.191.72-.308 1.085-.308.413 0 .62.282.62.848 0 .41-.233.925-.698 1.541a24.663 24.663 0 01-1.588 1.889 30.733 30.733 0 00-1.588 1.85c-.465.591-.697 1.04-.697 1.35 0 .41.206.616.619.616.31 0 .93-.296 1.86-.887 3.737-2.375 8.288-5.872 12.202-7.67.335-.154.632-.23.891-.23.258 0 .413.089.465.269.051.18.077.321.077.424 0 .205-.052.41-.155.616l-.31.617a47.87 47.87 0 00-.775 1.08c-.361.513-.71 1.079-1.046 1.695a25.968 25.968 0 00-.929 1.889c-.284.642-.426 1.22-.426 1.734 0 .925.542 1.388 1.627 1.388.568 0 1.201-.09 1.898-.27.697-.18 1.394-.386 2.092-.617a40.138 40.138 0 001.936-.694 30.69 30.69 0 011.356-.5l2.324-.926c.31-.154.62-.282.93-.385.103 0 .194.064.271.193a.684.684 0 01.116.347zm-39.257-5.396c0-.72-.465-1.08-1.395-1.08-.568 0-1.046.373-1.433 1.118-.388.745-.581 1.58-.581 2.505 0 .412.026.797.077 1.157.052.36.155.72.31 1.079.878-.874 1.601-1.747 2.169-2.621.568-.874.853-1.593.853-2.158z" fill="#94216C"/><path d="M9.38 82.936h1.088v5.776a40.766 40.766 0 01-.028 1.47c-.009.246-.02.469-.034.67-.009.2-.018.355-.027.464h.055l5.564-8.38h1.278v9.994H16.19v-5.708c0-.242.005-.497.014-.766l.027-.793c.014-.255.028-.483.041-.683.014-.206.023-.363.028-.472h-.062l-5.571 8.422H9.381v-9.995zM23.16 85.3c.561 0 1.047.077 1.457.232.41.15.727.372.95.663.223.292.335.647.335 1.067 0 .45-.123.81-.37 1.08-.245.269-.585.462-1.018.58v.055c.306.083.581.201.827.356.251.15.45.35.595.602.15.246.226.553.226.922 0 .42-.114.798-.342 1.135-.228.333-.574.595-1.04.786-.464.192-1.052.287-1.763.287-.35 0-.683-.02-.998-.061a5.38 5.38 0 01-.854-.164 3.546 3.546 0 01-.67-.26v-1.03c.319.155.692.291 1.12.41.43.118.892.178 1.389.178.382 0 .726-.044 1.032-.13a1.55 1.55 0 00.724-.43c.183-.201.274-.463.274-.787 0-.296-.08-.54-.24-.731-.159-.196-.398-.34-.717-.431-.315-.096-.714-.144-1.197-.144h-1.004v-.93h.827c.642 0 1.155-.09 1.538-.273.383-.182.574-.49.574-.923 0-.373-.148-.651-.444-.834-.296-.186-.72-.28-1.272-.28-.41 0-.772.043-1.087.13a7.26 7.26 0 00-1.018.356l-.404-.91a5.953 5.953 0 011.23-.39c.43-.086.876-.13 1.34-.13zm10.787.136v.964h-3.405v6.529h-1.141v-7.493h4.546zm9.356 3.733c0 .615-.08 1.164-.239 1.647-.16.484-.39.891-.69 1.224a3.013 3.013 0 01-1.094.766c-.424.173-.904.26-1.442.26-.502 0-.962-.087-1.381-.26a3.115 3.115 0 01-1.08-.766 3.519 3.519 0 01-.704-1.224c-.164-.483-.246-1.032-.246-1.647 0-.82.139-1.518.417-2.092.278-.579.674-1.018 1.189-1.32.52-.304 1.137-.457 1.852-.457.684 0 1.281.153 1.792.458.514.305.913.747 1.196 1.326.287.574.43 1.27.43 2.085zm-5.7 0c0 .602.08 1.123.239 1.565.16.442.405.784.738 1.026.333.241.761.362 1.285.362.52 0 .946-.12 1.278-.362.338-.242.586-.584.745-1.026.16-.442.24-.963.24-1.565 0-.597-.08-1.112-.24-1.545-.159-.438-.405-.775-.738-1.012-.332-.237-.763-.355-1.292-.355-.78 0-1.351.257-1.716.772-.36.515-.54 1.228-.54 2.14zM51.771 86.4h-2.468v6.529h-1.121V86.4h-2.434v-.963h6.023v.963zm9.343 2.769c0 .615-.08 1.164-.239 1.647-.16.484-.39.891-.69 1.224a3.013 3.013 0 01-1.094.766c-.424.173-.905.26-1.443.26-.5 0-.961-.087-1.38-.26a3.114 3.114 0 01-1.08-.766 3.536 3.536 0 01-.705-1.224c-.164-.483-.246-1.032-.246-1.647 0-.82.14-1.518.417-2.092a2.98 2.98 0 011.19-1.32c.52-.304 1.137-.457 1.852-.457.684 0 1.28.153 1.791.458.515.305.914.747 1.197 1.326.287.574.43 1.27.43 2.085zm-5.7 0c0 .602.079 1.123.238 1.565.16.442.406.784.739 1.026.332.241.76.362 1.285.362.52 0 .945-.12 1.278-.362.337-.242.586-.584.745-1.026.16-.442.24-.963.24-1.565 0-.597-.08-1.112-.24-1.545-.16-.438-.405-.775-.738-1.012-.333-.237-.763-.355-1.292-.355-.78 0-1.351.257-1.716.772-.36.515-.54 1.228-.54 2.14zm15.016-1.853c0 .47-.136.837-.41 1.101-.273.26-.627.435-1.06.526V89c.47.064.873.232 1.21.506.342.269.513.681.513 1.237 0 .429-.102.807-.307 1.135-.206.328-.527.586-.964.772-.438.187-1.007.28-1.71.28h-3.226v-7.492h3.2c.537 0 1.011.062 1.421.185.415.119.74.314.978.588.237.273.355.643.355 1.107zm-.93 3.425c0-.442-.168-.76-.505-.957-.333-.196-.818-.294-1.456-.294h-1.921v2.516h1.948c.629 0 1.107-.096 1.436-.287.332-.196.499-.522.499-.978zm-.225-3.295c0-.355-.13-.62-.39-.793-.26-.177-.685-.266-1.278-.266h-1.99v2.153h1.792c.615 0 1.08-.089 1.394-.267.315-.177.472-.453.472-.827zm10.26 5.483H78.38v-6.542h-2.276a35.004 35.004 0 01-.349 3.035c-.137.838-.31 1.524-.52 2.058-.204.528-.455.918-.751 1.168a1.57 1.57 0 01-1.046.37 2.75 2.75 0 01-.349-.021 1.095 1.095 0 01-.28-.068v-.862c.059.019.12.032.184.041.069.01.14.014.212.014a.774.774 0 00.56-.253c.174-.173.329-.433.466-.78.14-.346.266-.783.376-1.312.109-.533.205-1.16.287-1.88.086-.724.161-1.544.225-2.46h4.416v7.492zm6.677-7.63c.638 0 1.185.142 1.64.425.456.282.805.679 1.046 1.19.242.505.362 1.097.362 1.776v.704h-5.174c.013.88.232 1.55.656 2.01.424.46 1.02.69 1.791.69.474 0 .893-.043 1.258-.13a6.94 6.94 0 001.135-.382v.998a5.528 5.528 0 01-1.128.37 6.52 6.52 0 01-1.313.115c-.72 0-1.349-.145-1.887-.437a3.06 3.06 0 01-1.244-1.299c-.296-.57-.444-1.267-.444-2.092 0-.806.134-1.504.403-2.091.274-.593.657-1.049 1.149-1.368.496-.319 1.08-.478 1.75-.478zm-.014.93c-.606 0-1.09.199-1.45.595-.36.397-.573.95-.642 1.661h3.965a3.204 3.204 0 00-.212-1.175 1.651 1.651 0 00-.608-.793c-.274-.192-.625-.287-1.053-.287zm7.532-.793v3.145h4.177v-3.144h1.134v7.492h-1.134v-3.384H93.73v3.384h-1.142v-7.493h1.142zm10.198 0v4.71a14.222 14.222 0 01-.028.814l-.027.465a6.43 6.43 0 01-.02.362l4.087-6.35h1.395v7.492h-1.06v-4.594a34.787 34.787 0 01.028-1.23l.02-.52-4.074 6.344h-1.401v-7.493h1.08zm12.105-.136c.638 0 1.185.141 1.64.424.456.282.805.679 1.046 1.19.242.505.363 1.097.363 1.776v.704h-5.175c.013.88.232 1.55.656 2.01.424.46 1.021.69 1.791.69.474 0 .893-.043 1.258-.13a6.962 6.962 0 001.135-.382v.998a5.556 5.556 0 01-1.128.37 6.469 6.469 0 01-1.313.115c-.72 0-1.349-.145-1.886-.437a3.062 3.062 0 01-1.245-1.299c-.296-.57-.444-1.267-.444-2.092 0-.806.134-1.504.403-2.091.274-.593.657-1.049 1.149-1.368.497-.319 1.08-.478 1.75-.478zm-.014.93c-.606 0-1.089.198-1.449.594-.36.397-.574.95-.643 1.661h3.965a3.186 3.186 0 00-.212-1.175 1.652 1.652 0 00-.608-.793c-.274-.192-.624-.287-1.053-.287zm13.355-.93c.56 0 1.046.077 1.456.232.41.15.727.372.95.663.223.292.335.647.335 1.067 0 .45-.123.81-.369 1.08-.246.269-.586.462-1.019.58v.055c.306.083.581.201.827.356.251.15.449.35.595.602.151.246.226.553.226.922 0 .42-.114.798-.342 1.135-.228.333-.574.595-1.039.786-.465.192-1.053.287-1.764.287-.351 0-.683-.02-.998-.061a5.376 5.376 0 01-.854-.164 3.516 3.516 0 01-.67-.26v-1.03c.319.155.692.291 1.121.41.428.118.891.178 1.388.178a3.79 3.79 0 001.032-.13c.305-.091.547-.235.724-.43.183-.201.274-.463.274-.787 0-.296-.08-.54-.239-.731-.16-.196-.399-.34-.718-.431-.315-.096-.713-.144-1.196-.144h-1.005v-.93h.827c.642 0 1.155-.09 1.538-.273.383-.182.574-.49.574-.923 0-.373-.148-.651-.444-.834-.296-.186-.72-.28-1.272-.28-.41 0-.772.043-1.087.13a7.26 7.26 0 00-1.018.356l-.404-.91a5.966 5.966 0 011.231-.39 6.79 6.79 0 011.34-.13zm9.124 0c.638 0 1.185.141 1.641.424a2.74 2.74 0 011.046 1.19c.241.505.362 1.097.362 1.776v.704h-5.175c.014.88.233 1.55.657 2.01.424.46 1.021.69 1.791.69.474 0 .893-.043 1.258-.13a6.952 6.952 0 001.134-.382v.998a5.516 5.516 0 01-1.128.37 6.459 6.459 0 01-1.312.115c-.72 0-1.349-.145-1.887-.437a3.06 3.06 0 01-1.244-1.299c-.296-.57-.444-1.267-.444-2.092 0-.806.134-1.504.403-2.091.273-.593.656-1.049 1.148-1.368.497-.319 1.08-.478 1.75-.478zm-.013.93c-.606 0-1.089.198-1.449.594-.361.397-.575.95-.643 1.661h3.965a3.206 3.206 0 00-.212-1.175 1.648 1.648 0 00-.609-.793c-.273-.192-.624-.287-1.052-.287zm9.91-.93c.935 0 1.68.321 2.236.964.556.642.834 1.608.834 2.898 0 .852-.128 1.568-.383 2.147-.255.578-.615 1.016-1.08 1.312-.46.296-1.005.444-1.634.444a3.18 3.18 0 01-1.046-.157 2.461 2.461 0 01-.772-.424 2.765 2.765 0 01-.533-.58h-.082l.047.642c.023.25.035.47.035.656v3.076h-1.142v-10.84h.936l.151 1.107h.055c.145-.228.323-.435.533-.622.209-.192.465-.342.765-.451a3.09 3.09 0 011.08-.171zm-.198.957c-.519 0-.939.1-1.258.3-.314.201-.544.502-.69.903-.146.396-.223.895-.232 1.497v.219c0 .633.068 1.169.205 1.606.141.438.371.77.69.998.324.228.757.342 1.299.342.465 0 .852-.125 1.162-.376.31-.25.54-.6.69-1.046.155-.451.233-.968.233-1.552 0-.884-.173-1.585-.52-2.105-.341-.524-.868-.786-1.579-.786zm11.018-.82h1.251l-3.233 3.616 3.493 3.876h-1.333l-3.404-3.801v3.8h-1.142v-7.492h1.142v3.637l3.226-3.636zm7.067-.124c.894 0 1.557.201 1.99.602.433.401.649 1.041.649 1.92v5.094h-.827l-.219-1.108h-.055a4.129 4.129 0 01-.656.69 2.439 2.439 0 01-.793.418c-.296.09-.661.136-1.093.136a2.94 2.94 0 01-1.217-.239 1.894 1.894 0 01-.834-.724c-.201-.324-.301-.734-.301-1.23 0-.748.296-1.323.889-1.724.592-.4 1.494-.62 2.707-.656l1.292-.054v-.458c0-.648-.139-1.101-.417-1.36-.278-.26-.67-.39-1.176-.39-.392 0-.766.056-1.121.17a7.634 7.634 0 00-1.012.404l-.349-.862a6.266 6.266 0 011.163-.444 5.07 5.07 0 011.38-.184zm1.518 3.924l-1.142.048c-.934.037-1.592.19-1.975.458-.383.269-.574.65-.574 1.142 0 .428.129.745.389.95.26.205.604.308 1.032.308.666 0 1.21-.185 1.634-.554.424-.37.636-.923.636-1.661v-.69zm10.478 3.692h-1.155v-6.542h-2.277a35.106 35.106 0 01-.348 3.035c-.137.838-.31 1.524-.52 2.058-.205.528-.455.918-.752 1.168-.291.246-.64.37-1.046.37-.123 0-.239-.007-.348-.021a1.08 1.08 0 01-.28-.068v-.862c.059.019.12.032.184.041.068.01.139.014.212.014.205 0 .392-.084.561-.253.173-.173.328-.433.464-.78.142-.346.267-.783.376-1.312.11-.533.205-1.16.287-1.88.087-.724.162-1.544.226-2.46h4.416v7.492zm10.757-7.63c.561 0 1.046.078 1.456.233.41.15.727.372.95.663.224.292.335.647.335 1.067 0 .45-.123.81-.369 1.08-.246.269-.585.462-1.018.58v.055c.305.083.581.201.827.356.25.15.449.35.595.602.15.246.225.553.225.922 0 .42-.114.798-.342 1.135-.228.333-.574.595-1.039.786-.465.192-1.052.287-1.763.287a7.72 7.72 0 01-.998-.061 5.367 5.367 0 01-.855-.164 3.569 3.569 0 01-.67-.26v-1.03c.319.155.693.291 1.121.41.429.118.891.178 1.388.178a3.78 3.78 0 001.032-.13 1.56 1.56 0 00.725-.43c.182-.201.273-.463.273-.787 0-.296-.08-.54-.239-.731-.16-.196-.399-.34-.718-.431-.314-.096-.713-.144-1.196-.144h-1.005v-.93h.827c.643 0 1.155-.09 1.538-.273.383-.182.574-.49.574-.923 0-.373-.148-.651-.444-.834-.296-.186-.72-.28-1.271-.28-.411 0-.773.043-1.087.13a7.27 7.27 0 00-1.019.356l-.403-.91a5.957 5.957 0 011.23-.39c.429-.086.875-.13 1.34-.13zm9.043.014c.893 0 1.556.201 1.989.602.433.401.649 1.041.649 1.92v5.094h-.827l-.219-1.108h-.054c-.21.274-.429.504-.656.69a2.449 2.449 0 01-.793.418c-.297.09-.661.136-1.094.136a2.94 2.94 0 01-1.217-.239 1.894 1.894 0 01-.834-.724c-.2-.324-.301-.734-.301-1.23 0-.748.296-1.323.889-1.724.592-.4 1.495-.62 2.707-.656l1.292-.054v-.458c0-.648-.139-1.101-.417-1.36-.278-.26-.67-.39-1.176-.39a3.65 3.65 0 00-1.121.17 7.689 7.689 0 00-1.012.404l-.348-.862a6.228 6.228 0 011.162-.444 5.078 5.078 0 011.381-.184zm1.517 3.924l-1.141.048c-.935.037-1.593.19-1.976.458-.383.269-.574.65-.574 1.142 0 .428.13.745.39.95.259.205.603.308 1.032.308.665 0 1.21-.185 1.634-.554.423-.37.635-.923.635-1.661v-.69zm9.227-3.8h1.251l-3.233 3.616 3.493 3.876H209l-3.404-3.801v3.8h-1.142v-7.492h1.142v3.637l3.226-3.636zm7.067-.124c.894 0 1.557.201 1.99.602.433.401.649 1.041.649 1.92v5.094h-.827l-.219-1.108h-.054c-.21.274-.429.504-.657.69a2.439 2.439 0 01-.793.418c-.296.09-.661.136-1.093.136a2.94 2.94 0 01-1.217-.239 1.894 1.894 0 01-.834-.724c-.201-.324-.301-.734-.301-1.23 0-.748.296-1.323.889-1.724.592-.4 1.494-.62 2.707-.656l1.292-.054v-.458c0-.648-.139-1.101-.417-1.36-.278-.26-.67-.39-1.176-.39-.392 0-.766.056-1.121.17a7.634 7.634 0 00-1.012.404l-.349-.862a6.266 6.266 0 011.163-.444 5.07 5.07 0 011.38-.184zm1.518 3.924l-1.142.048c-.934.037-1.592.19-1.975.458-.383.269-.574.65-.574 1.142 0 .428.129.745.389.95.26.205.604.308 1.032.308.666 0 1.21-.185 1.634-.554.424-.37.636-.923.636-1.661v-.69zm6.787-3.937c.56 0 1.046.077 1.456.232.41.15.727.372.95.663.223.292.335.647.335 1.067 0 .45-.123.81-.369 1.08-.246.269-.586.462-1.019.58v.055c.306.083.581.201.827.356.251.15.449.35.595.602.151.246.226.553.226.922 0 .42-.114.798-.342 1.135-.228.333-.574.595-1.039.786-.465.192-1.053.287-1.764.287-.351 0-.683-.02-.998-.061a5.376 5.376 0 01-.854-.164 3.516 3.516 0 01-.67-.26v-1.03c.319.155.692.291 1.121.41.428.118.891.178 1.388.178a3.79 3.79 0 001.032-.13c.305-.091.547-.235.724-.43.183-.201.274-.463.274-.787 0-.296-.08-.54-.239-.731-.16-.196-.399-.34-.718-.431-.315-.096-.713-.144-1.197-.144h-1.004v-.93h.827c.642 0 1.155-.09 1.538-.273.383-.182.574-.49.574-.923 0-.373-.148-.651-.444-.834-.297-.186-.72-.28-1.272-.28-.41 0-.772.043-1.087.13a7.26 7.26 0 00-1.018.356l-.404-.91a5.966 5.966 0 011.231-.39 6.79 6.79 0 011.34-.13zm6.069 6.918c0-.32.077-.545.232-.677a.827.827 0 01.567-.205.87.87 0 01.588.205c.16.132.24.358.24.677 0 .314-.08.544-.24.69a.853.853 0 01-.588.212.811.811 0 01-.567-.212c-.155-.146-.232-.376-.232-.69z" fill="#000"/></svg>