<svg width="16" height="16" fill="none" xmlns="http://www.w3.org/2000/svg"><path d="M.501 3.857s-.032-.846.505-1.939c.377-.772 1.852-1.2 1.852-1.2s.628-.16 1.895 1.063c.502.465.822 1.095.902 1.776.046.622-1.28 1.948-1.28 1.948.103.76.421 1.476.916 2.062A32.173 32.173 0 007.18 9.559c.402.379.853.872 1.451 1.269 1.178.782 1.461.71 1.461.71s1.678-1.405 2.18-1.356c.381.04.922.29 1.612.88.514.436.842.766 1.1 1.207.092.152.164.316.215.486 0 0 .068.697-1.016 1.807-1.077 1.103-2.563.815-2.563.815s-.855-.127-2.253-.786a15.398 15.398 0 01-4.171-2.985c-1.135-1.17-2.618-2.96-3.342-4.207C.944 5.834.5 3.857.5 3.857h.001z" fill="url(#paint0_linear_548_111)"/><defs><linearGradient id="paint0_linear_548_111" x1="5.583" y1="9.358" x2="10.281" y2="4.661" gradientUnits="userSpaceOnUse"><stop stop-color="#9E3085"/><stop offset="1" stop-color="#841375"/></linearGradient></defs></svg>