<svg width="29" height="24" fill="none" xmlns="http://www.w3.org/2000/svg"><path opacity=".7" d="M0 15.51a2 2 0 01.244-.958L5.122 5.61a1 1 0 011.756 0l4.878 8.943a2 2 0 01.244.958V22a2 2 0 01-2 2H2a2 2 0 01-2-2v-6.49z" fill="#872077"/><path d="M6.281 1a1 1 0 011-1h6.16a1 1 0 011 1v4.76h7.16a1 1 0 011 1V23a1 1 0 01-1 1H7.281a1 1 0 01-1-1V1z" fill="#8A1978" fill-opacity=".7"/><path opacity=".8" d="M15 15.92a2 2 0 01.698-1.519l5-4.285a2 2 0 012.604 0l5 4.285A2 2 0 0129 15.92V22a2 2 0 01-2 2H17a2 2 0 01-2-2v-6.08z" fill="#D87FCA"/></svg>