<svg width="20" height="20" fill="none" xmlns="http://www.w3.org/2000/svg"><path d="M17.125 2.18c.62 0 1.125.504 1.125 1.125v4.757c0 .69-.28 1.367-.769 1.855L9.14 18.26c-.531.53-1.493.535-2.029 0L2.17 13.319c-.27-.27-.42-.63-.42-1.016 0-.382.15-.742.42-1.013l8.34-8.342a2.61 2.61 0 011.858-.768h4.757zM9.67 18.79l8.342-8.342A3.398 3.398 0 0019 8.062V3.305c0-1.034-.84-1.875-1.875-1.875h-4.757c-.902 0-1.75.35-2.387.988L1.64 10.76A2.17 2.17 0 001 12.306c0 .583.227 1.131.64 1.544l4.94 4.94a2.2 2.2 0 001.547.64 2.2 2.2 0 001.543-.64z" fill="#91217D"/><path d="M17.125 2.18c.62 0 1.125.504 1.125 1.125v4.757c0 .69-.28 1.367-.769 1.855L9.14 18.26c-.531.53-1.493.535-2.029 0L2.17 13.319c-.27-.27-.42-.63-.42-1.016 0-.382.15-.742.42-1.013l8.34-8.342a2.61 2.61 0 011.858-.768h4.757zM9.67 18.79l8.342-8.342A3.398 3.398 0 0019 8.062V3.305c0-1.034-.84-1.875-1.875-1.875h-4.757c-.902 0-1.75.35-2.387.988L1.64 10.76A2.17 2.17 0 001 12.306c0 .583.227 1.131.64 1.544l4.94 4.94a2.2 2.2 0 001.547.64 2.2 2.2 0 001.543-.64v0z" stroke="#91217D" stroke-miterlimit="20"/><path d="M15.992 5.555c0 .62-.505 1.125-1.125 1.125s-1.125-.505-1.125-1.125.505-1.125 1.125-1.125 1.125.505 1.125 1.125zm.75 0c0-1.034-.84-1.875-1.875-1.875a1.877 1.877 0 00-1.875 1.875c0 1.033.84 1.875 1.875 1.875a1.877 1.877 0 001.875-1.875z" fill="#91217D"/><path d="M15.992 5.555c0 .62-.505 1.125-1.125 1.125s-1.125-.505-1.125-1.125.505-1.125 1.125-1.125 1.125.505 1.125 1.125zm.75 0c0-1.034-.84-1.875-1.875-1.875a1.877 1.877 0 00-1.875 1.875c0 1.033.84 1.875 1.875 1.875a1.877 1.877 0 001.875-1.875z" stroke="#91217D" stroke-miterlimit="20"/><path d="M8.93 14.584V8.625" stroke="#91217D" stroke-width="1.5" stroke-linecap="round"/><rect x="4.805" y="11.834" width="2.269" height="2.269" rx="1.134" transform="rotate(-45 4.805 11.834)" fill="#8F1F7C"/><rect x="9.852" y="11.374" width="2.269" height="2.269" rx="1.134" transform="rotate(-45 9.852 11.374)" fill="#8F1F7C"/></svg>