<svg width="17" height="17" fill="none" xmlns="http://www.w3.org/2000/svg"><path d="M8.705 2.273a6.624 6.624 0 00-3.447.95 6.591 6.591 0 00-2.443 2.603 6.56 6.56 0 00.483 6.843l-.63 1.902.003.002-.184.536 1.068-.316a.03.03 0 00-.006-.005l1.465-.46a6.632 6.632 0 008.486-.905 6.586 6.586 0 001.739-5.68 6.58 6.58 0 00-1.207-2.807 6.611 6.611 0 00-5.327-2.663zm.013 14.424a7.915 7.915 0 01-3.9-1.02L.5 17.055l1.419-4.2A7.86 7.86 0 013.055 3.3a7.938 7.938 0 019.562-1.345 7.893 7.893 0 013.389 3.797 7.856 7.856 0 01.359 5.069 7.882 7.882 0 01-2.82 4.234 7.932 7.932 0 01-4.827 1.64zM4.872 7.19a2.05 2.05 0 01.21-1.07c.05-.133.12-.257.207-.368.156-.21.364-.376.604-.48 0 0 .712-.07.774.025.33.57.606 1.172.825 1.794.109.406-.464.87-.464.87s-.362.185 0 .64c.27.34.73.935 1.007 1.154.292.238.602.452.928.64.675.373.8.334.8.334s.125.05.464-.41c.181-.245.38-.532.568-.59.218-.066 1.98.942 1.91.872.123.123.025.52.025.52s.038.445-.633.957c-.442.338-1.173.419-1.173.419a4.492 4.492 0 01-1.342-.307c-.715-.27-1.47-.495-2.45-1.384a9.888 9.888 0 01-1.759-2.102c-.515-.886-.501-1.514-.501-1.514z" fill="#752763"/></svg>