<svg width="223" height="15" fill="none" xmlns="http://www.w3.org/2000/svg"><path d="M.38.936h1.088v5.776a41.216 41.216 0 01-.028 1.47c-.009.246-.02.469-.034.67-.009.2-.018.355-.027.464h.055L6.998.936h1.278v9.994H7.19V5.222c0-.242.005-.497.014-.766l.027-.793c.014-.255.028-.483.041-.684.014-.205.023-.362.028-.471h-.062L1.666 10.93H.381V.936zM14.16 3.3c.561 0 1.047.077 1.457.232.41.15.727.372.95.663.223.292.335.647.335 1.067 0 .45-.123.81-.37 1.08-.245.269-.585.462-1.018.58v.056c.306.082.581.2.827.355.251.15.45.35.595.602.15.246.226.553.226.922 0 .42-.114.798-.342 1.135-.228.333-.574.595-1.04.786-.464.192-1.052.287-1.763.287-.35 0-.683-.02-.998-.061a5.38 5.38 0 01-.854-.164 3.546 3.546 0 01-.67-.26V9.55c.319.155.692.291 1.12.41.43.119.892.178 1.389.178.382 0 .726-.044 1.032-.13a1.55 1.55 0 00.724-.43c.183-.201.274-.463.274-.787 0-.296-.08-.54-.24-.731-.159-.196-.398-.34-.717-.431-.315-.096-.713-.144-1.197-.144h-1.004v-.93h.827c.642 0 1.155-.09 1.538-.273.383-.182.574-.49.574-.923 0-.373-.148-.651-.444-.834-.296-.186-.72-.28-1.272-.28-.41 0-.772.043-1.087.13-.314.082-.654.2-1.018.355l-.404-.909a5.955 5.955 0 011.23-.39 6.75 6.75 0 011.34-.13zm10.787.136V4.4h-3.405v6.529h-1.141V3.438h4.546zm9.357 3.733c0 .615-.08 1.164-.24 1.647-.16.483-.39.891-.69 1.224a3.013 3.013 0 01-1.094.766 3.79 3.79 0 01-1.442.26c-.502 0-.962-.087-1.381-.26a3.115 3.115 0 01-1.08-.766 3.519 3.519 0 01-.704-1.224c-.164-.483-.246-1.032-.246-1.647 0-.82.139-1.518.417-2.092.278-.579.674-1.018 1.189-1.32.52-.305 1.137-.457 1.852-.457.684 0 1.281.152 1.792.458.514.305.913.747 1.196 1.326.287.574.43 1.27.43 2.085zm-5.702 0c0 .601.08 1.123.24 1.565.16.442.405.784.738 1.026.333.241.761.362 1.285.362.52 0 .946-.12 1.278-.362.338-.242.586-.584.745-1.026.16-.442.24-.964.24-1.565 0-.597-.08-1.112-.24-1.545-.159-.438-.405-.775-.738-1.012-.332-.237-.763-.355-1.292-.355-.78 0-1.351.257-1.716.772-.36.515-.54 1.228-.54 2.14zM42.772 4.4h-2.468v6.529h-1.121V4.4h-2.434v-.963h6.023V4.4zm9.343 2.769c0 .615-.08 1.164-.239 1.647-.16.483-.39.891-.69 1.224a3.013 3.013 0 01-1.094.766c-.424.173-.905.26-1.443.26-.5 0-.961-.087-1.38-.26a3.114 3.114 0 01-1.08-.766 3.536 3.536 0 01-.705-1.224c-.164-.483-.246-1.032-.246-1.647 0-.82.14-1.518.417-2.092a2.98 2.98 0 011.19-1.32c.52-.305 1.137-.457 1.852-.457.684 0 1.28.152 1.791.458.515.305.914.747 1.197 1.326.287.574.43 1.27.43 2.085zm-5.7 0c0 .601.079 1.123.238 1.565.16.442.406.784.739 1.026.332.241.76.362 1.285.362.52 0 .945-.12 1.278-.362.337-.242.586-.584.745-1.026.16-.442.24-.964.24-1.565 0-.597-.08-1.112-.24-1.545-.16-.438-.405-.775-.738-1.012-.333-.237-.763-.355-1.292-.355-.78 0-1.351.257-1.716.772-.36.515-.54 1.228-.54 2.14zM61.43 5.317c0 .47-.136.837-.41 1.101-.273.26-.627.435-1.06.526V7c.47.064.873.232 1.21.506.342.269.513.681.513 1.237 0 .429-.102.807-.307 1.135-.206.328-.527.586-.964.772-.438.187-1.007.28-1.71.28h-3.226V3.438h3.2c.537 0 1.011.062 1.421.185.415.119.74.315.978.588.237.273.355.643.355 1.107zm-.93 3.425c0-.442-.168-.76-.505-.957-.333-.196-.818-.294-1.456-.294h-1.921v2.516h1.948c.629 0 1.107-.096 1.435-.287.333-.196.5-.522.5-.978zm-.225-3.295c0-.355-.13-.62-.39-.793-.26-.177-.686-.266-1.278-.266h-1.99V6.54h1.792c.615 0 1.08-.089 1.394-.267.315-.177.472-.453.472-.827zm10.26 5.483H69.38V4.388h-2.276a35 35 0 01-.349 3.035c-.137.838-.31 1.524-.52 2.057-.204.53-.455.919-.751 1.17a1.57 1.57 0 01-1.046.369 2.75 2.75 0 01-.349-.021 1.095 1.095 0 01-.28-.068v-.862c.059.019.12.032.184.041.069.01.14.014.212.014a.774.774 0 00.56-.253c.174-.173.329-.433.466-.78.14-.346.266-.783.376-1.312.109-.533.205-1.16.287-1.88.086-.724.161-1.544.225-2.46h4.416v7.492zm6.677-7.63c.638 0 1.185.142 1.64.425.456.282.805.679 1.046 1.19.242.505.362 1.097.362 1.776v.705h-5.174c.013.88.232 1.549.656 2.01.424.46 1.02.69 1.791.69a5.51 5.51 0 001.258-.13 6.938 6.938 0 001.135-.383v.998a5.528 5.528 0 01-1.128.37 6.52 6.52 0 01-1.313.115c-.72 0-1.349-.145-1.887-.437a3.06 3.06 0 01-1.244-1.299c-.296-.57-.444-1.267-.444-2.092 0-.806.134-1.504.403-2.092.274-.592.657-1.048 1.149-1.367.496-.319 1.08-.478 1.75-.478zm-.014.93c-.606 0-1.09.199-1.45.595-.36.397-.573.95-.642 1.661h3.965a3.204 3.204 0 00-.212-1.175 1.651 1.651 0 00-.608-.793c-.274-.192-.625-.288-1.053-.288zm7.532-.793v3.145h4.177V3.438h1.134v7.492h-1.134V7.546H84.73v3.384h-1.142V3.438h1.142zm10.198 0v4.71a20.124 20.124 0 01-.027.813l-.028.466a5.852 5.852 0 01-.02.362l4.087-6.35h1.395v7.492h-1.06V6.336a28.711 28.711 0 01.028-1.23l.02-.52-4.074 6.344h-1.401V3.438h1.08zm12.105-.136c.638 0 1.185.141 1.64.424a2.74 2.74 0 011.046 1.19c.242.505.363 1.097.363 1.776v.705h-5.175c.013.88.232 1.549.656 2.01.424.46 1.021.69 1.791.69a5.51 5.51 0 001.258-.13 6.959 6.959 0 001.135-.383v.998a5.556 5.556 0 01-1.128.37 6.469 6.469 0 01-1.313.115c-.72 0-1.349-.145-1.886-.437a3.061 3.061 0 01-1.245-1.299c-.296-.57-.444-1.267-.444-2.092 0-.806.134-1.504.403-2.092.274-.592.657-1.048 1.149-1.367.497-.319 1.08-.478 1.75-.478zm-.014.93c-.606 0-1.089.198-1.449.594-.36.397-.574.95-.643 1.661h3.965a3.185 3.185 0 00-.212-1.175 1.652 1.652 0 00-.608-.793c-.274-.192-.624-.288-1.053-.288zm13.355-.93c.56 0 1.046.077 1.456.232.41.15.727.372.95.663.223.292.335.647.335 1.067 0 .45-.123.81-.369 1.08-.246.269-.586.462-1.019.58v.056c.306.082.581.2.827.355.251.15.449.35.595.602.151.246.226.553.226.922 0 .42-.114.798-.342 1.135-.228.333-.574.595-1.039.786-.465.192-1.053.287-1.764.287-.351 0-.683-.02-.998-.061a5.376 5.376 0 01-.854-.164 3.516 3.516 0 01-.67-.26V9.55c.319.155.692.291 1.121.41.428.119.891.178 1.388.178a3.79 3.79 0 001.032-.13c.305-.091.547-.235.724-.43.183-.201.274-.463.274-.787 0-.296-.08-.54-.239-.731-.16-.196-.399-.34-.718-.431-.315-.096-.713-.144-1.196-.144h-1.005v-.93h.827c.642 0 1.155-.09 1.538-.273.383-.182.574-.49.574-.923 0-.373-.148-.651-.444-.834-.296-.186-.72-.28-1.272-.28-.41 0-.772.043-1.087.13-.314.082-.654.2-1.018.355l-.404-.909a5.967 5.967 0 011.231-.39 6.79 6.79 0 011.34-.13zm9.124 0c.638 0 1.185.141 1.641.424a2.74 2.74 0 011.046 1.19c.241.505.362 1.097.362 1.776v.705h-5.175c.014.88.233 1.549.657 2.01.424.46 1.021.69 1.791.69a5.51 5.51 0 001.258-.13 6.95 6.95 0 001.134-.383v.998a5.516 5.516 0 01-1.128.37 6.459 6.459 0 01-1.312.115c-.72 0-1.349-.145-1.887-.437a3.06 3.06 0 01-1.244-1.299c-.296-.57-.444-1.267-.444-2.092 0-.806.134-1.504.403-2.092.273-.592.656-1.048 1.148-1.367.497-.319 1.08-.478 1.75-.478zm-.013.93c-.606 0-1.089.198-1.449.594-.361.397-.575.95-.643 1.661h3.965a3.206 3.206 0 00-.212-1.175 1.647 1.647 0 00-.609-.793c-.273-.192-.624-.288-1.052-.288zm9.91-.93c.935 0 1.68.321 2.236.964.556.642.834 1.608.834 2.898 0 .852-.128 1.568-.383 2.147-.255.578-.615 1.016-1.08 1.312-.46.296-1.005.444-1.634.444a3.18 3.18 0 01-1.046-.157 2.461 2.461 0 01-.772-.424 2.765 2.765 0 01-.533-.58h-.082l.047.642c.023.25.035.47.035.656v3.076h-1.142V3.438h.936l.151 1.107h.055c.145-.228.323-.435.533-.622a2.27 2.27 0 01.765-.451 3.09 3.09 0 011.08-.171zm-.198.957c-.519 0-.939.1-1.258.3-.314.201-.544.502-.69.903-.146.396-.223.895-.232 1.497v.219c0 .633.068 1.169.205 1.606.141.438.371.77.69.998.324.228.757.342 1.299.342.465 0 .852-.125 1.162-.376.31-.25.54-.6.69-1.046.155-.451.233-.968.233-1.552 0-.884-.173-1.586-.52-2.105-.341-.524-.868-.786-1.579-.786zm11.018-.82h1.251l-3.233 3.616 3.493 3.876h-1.333l-3.404-3.801v3.8h-1.142V3.438h1.142v3.637l3.226-3.636zm7.067-.124c.894 0 1.557.201 1.99.602.433.401.649 1.041.649 1.92v5.094h-.827l-.219-1.108h-.055a4.128 4.128 0 01-.656.69 2.439 2.439 0 01-.793.418c-.296.09-.661.136-1.093.136a2.94 2.94 0 01-1.217-.239 1.894 1.894 0 01-.834-.725c-.201-.323-.301-.733-.301-1.23 0-.747.296-1.322.889-1.723.592-.4 1.494-.62 2.707-.656l1.292-.055V5.98c0-.647-.139-1.1-.417-1.36-.278-.26-.67-.39-1.176-.39-.392 0-.766.057-1.121.171a7.645 7.645 0 00-1.012.404l-.349-.862a6.264 6.264 0 011.163-.444 5.069 5.069 0 011.38-.185zm1.518 3.924l-1.142.048c-.934.037-1.592.19-1.975.458-.383.269-.574.65-.574 1.142 0 .428.129.745.389.95.26.205.604.308 1.032.308.666 0 1.21-.185 1.634-.554.424-.37.636-.923.636-1.661v-.69zm10.478 3.692h-1.155V4.388h-2.277a35.104 35.104 0 01-.348 3.035c-.137.838-.31 1.524-.52 2.057-.205.53-.455.919-.752 1.17-.291.245-.64.369-1.046.369-.123 0-.239-.007-.348-.021a1.08 1.08 0 01-.28-.068v-.862c.059.019.12.032.184.041.068.01.139.014.212.014.205 0 .392-.084.561-.253.173-.173.328-.433.464-.78.142-.346.267-.783.376-1.312.11-.533.205-1.16.287-1.88.087-.724.162-1.544.226-2.46h4.416v7.492zm10.757-7.63c.561 0 1.046.078 1.456.233.41.15.727.372.95.663.224.292.335.647.335 1.067 0 .45-.123.81-.369 1.08-.246.269-.585.462-1.018.58v.056c.305.082.581.2.827.355.25.15.449.35.595.602.15.246.225.553.225.922 0 .42-.114.798-.342 1.135-.228.333-.574.595-1.039.786-.465.192-1.052.287-1.763.287a7.72 7.72 0 01-.998-.061 5.367 5.367 0 01-.855-.164 3.569 3.569 0 01-.67-.26V9.55c.319.155.693.291 1.121.41.429.119.891.178 1.388.178a3.78 3.78 0 001.032-.13 1.56 1.56 0 00.725-.43c.182-.201.273-.463.273-.787 0-.296-.08-.54-.239-.731-.16-.196-.399-.34-.718-.431-.314-.096-.713-.144-1.196-.144h-1.005v-.93h.827c.643 0 1.155-.09 1.538-.273.383-.182.574-.49.574-.923 0-.373-.148-.651-.444-.834-.296-.186-.72-.28-1.271-.28-.411 0-.773.043-1.087.13-.315.082-.654.2-1.019.355l-.403-.909a5.958 5.958 0 011.23-.39c.429-.086.875-.13 1.34-.13zm9.043.014c.893 0 1.556.201 1.989.602.433.401.649 1.041.649 1.92v5.094h-.827l-.219-1.108h-.054a4.21 4.21 0 01-.656.69 2.449 2.449 0 01-.793.418c-.297.09-.661.136-1.094.136a2.94 2.94 0 01-1.217-.239 1.894 1.894 0 01-.834-.725c-.2-.323-.301-.733-.301-1.23 0-.747.296-1.322.889-1.723.592-.4 1.495-.62 2.707-.656l1.292-.055V5.98c0-.647-.139-1.1-.417-1.36-.278-.26-.67-.39-1.176-.39a3.65 3.65 0 00-1.121.171 7.7 7.7 0 00-1.012.404l-.348-.862a6.226 6.226 0 011.162-.444 5.076 5.076 0 011.381-.185zm1.517 3.924l-1.141.048c-.935.037-1.593.19-1.976.458-.383.269-.574.65-.574 1.142 0 .428.13.745.39.95.259.205.603.308 1.032.308.665 0 1.21-.185 1.634-.554.423-.37.635-.923.635-1.661v-.69zm9.227-3.8h1.251l-3.233 3.616 3.493 3.876H200l-3.404-3.801v3.8h-1.142V3.438h1.142v3.637l3.226-3.636zm7.067-.124c.894 0 1.557.201 1.99.602.433.401.649 1.041.649 1.92v5.094h-.827l-.219-1.108h-.054c-.21.274-.429.504-.657.69a2.439 2.439 0 01-.793.418c-.296.09-.661.136-1.093.136a2.94 2.94 0 01-1.217-.239 1.894 1.894 0 01-.834-.725c-.201-.323-.301-.733-.301-1.23 0-.747.296-1.322.889-1.723.592-.4 1.494-.62 2.707-.656l1.292-.055V5.98c0-.647-.139-1.1-.417-1.36-.278-.26-.67-.39-1.176-.39-.392 0-.766.057-1.121.171a7.645 7.645 0 00-1.012.404l-.349-.862a6.264 6.264 0 011.163-.444 5.069 5.069 0 011.38-.185zm1.518 3.924l-1.142.048c-.934.037-1.592.19-1.975.458-.383.269-.574.65-.574 1.142 0 .428.129.745.389.95.26.205.604.308 1.032.308.666 0 1.21-.185 1.634-.554.424-.37.636-.923.636-1.661v-.69zm6.787-3.937c.56 0 1.046.077 1.456.232.41.15.727.372.95.663.223.292.335.647.335 1.067 0 .45-.123.81-.369 1.08-.246.269-.586.462-1.019.58v.056c.306.082.581.2.827.355.251.15.449.35.595.602.151.246.226.553.226.922 0 .42-.114.798-.342 1.135-.228.333-.574.595-1.039.786-.465.192-1.053.287-1.764.287-.351 0-.683-.02-.998-.061a5.376 5.376 0 01-.854-.164 3.516 3.516 0 01-.67-.26V9.55c.319.155.692.291 1.121.41.428.119.891.178 1.388.178a3.79 3.79 0 001.032-.13c.305-.091.547-.235.724-.43.183-.201.274-.463.274-.787 0-.296-.08-.54-.239-.731-.16-.196-.399-.34-.718-.431-.315-.096-.713-.144-1.197-.144h-1.004v-.93h.827c.642 0 1.155-.09 1.538-.273.383-.182.574-.49.574-.923 0-.373-.148-.651-.444-.834-.297-.186-.72-.28-1.272-.28-.41 0-.772.043-1.087.13-.314.082-.654.2-1.018.355l-.404-.909a5.967 5.967 0 011.231-.39 6.79 6.79 0 011.34-.13zm6.069 6.918c0-.32.077-.545.232-.677a.827.827 0 01.567-.205.87.87 0 01.588.205c.16.132.24.358.24.677 0 .314-.08.544-.24.69a.853.853 0 01-.588.212.811.811 0 01-.567-.212c-.155-.146-.232-.376-.232-.69z" fill="#000"/></svg>