<svg width="28" height="28" fill="none" xmlns="http://www.w3.org/2000/svg"><path d="M3.232 13.617H1m2.232 4.017L1 18.429m2.232 3.191L1 23.271M3.232 9.6L1 8.807m2.232-3.192L1 3.962m23.003 9.655h2.231m-2.231 4.017l2.231.795m-2.231 3.191l2.231 1.652M24.003 9.6l2.231-.794m-2.231-3.191l2.231-1.653M13.617 24.003v2.231m4.016-2.231l.795 2.231m3.189-2.231l1.653 2.231M9.6 24.003l-.795 2.231m-3.191-2.231L3.96 26.234m9.657-23.002V1m4.016 2.232L18.428 1m3.189 2.232L23.27 1M9.6 3.232L8.805 1M5.614 3.232L3.96 1" stroke="#8A1978" stroke-width="2" stroke-miterlimit="10" stroke-linecap="round" stroke-linejoin="round"/><path d="M9.102 18.474l9.766-9.767m-4.782.105l-4.883 4.884m4.68 4.673l4.883-4.883" stroke="#8A1978" stroke-width="2" stroke-miterlimit="22.926" stroke-linecap="round" stroke-linejoin="round"/><path d="M21 3.414H7a3 3 0 00-3 3v14a3 3 0 003 3h14a3 3 0 003-3v-14a3 3 0 00-3-3z" stroke="#8A1978" stroke-width="1.7" stroke-miterlimit="10" stroke-linecap="round" stroke-linejoin="round"/></svg>