<svg width="26" height="27" fill="none" xmlns="http://www.w3.org/2000/svg"><path d="M24.61 1.296H1.397v24.408H24.61V1.296z" stroke="#8A1978" stroke-width="1.7" stroke-miterlimit="10" stroke-linecap="round" stroke-linejoin="round"/><path d="M8.5 18.06l9.767-9.766m-4.782.105l-4.883 4.883m4.679 4.673l4.884-4.883" stroke="#8A1978" stroke-width="2" stroke-miterlimit="22.926" stroke-linecap="round" stroke-linejoin="round"/><path fill="#8A1978" d="M1 1h4v25H1zm20 0h4v25h-4z"/><path d="M3.102 5.88a1 1 0 100-2 1 1 0 000 2zm0 6a1 1 0 100-2 1 1 0 000 2zm0 6a1 1 0 100-2 1 1 0 000 2zm0 6a1 1 0 100-2 1 1 0 000 2zM23 5.88a1 1 0 100-2 1 1 0 000 2zm0 6a1 1 0 100-2 1 1 0 000 2zm0 6a1 1 0 100-2 1 1 0 000 2zm0 6a1 1 0 100-2 1 1 0 000 2z" fill="#fff"/></svg>