<svg width="30" height="27" fill="none" xmlns="http://www.w3.org/2000/svg"><path d="M9.82 18.06l9.767-9.766m-4.782.105l-4.883 4.883m4.68 4.673l4.883-4.883" stroke="#8A1978" stroke-width="2" stroke-miterlimit="22.926" stroke-linecap="round" stroke-linejoin="round"/><path d="M17.638 1.524c1.225.042 1.81.638 2.445 1.756.439.77 1.54 2.96 1.54 2.96.705 1.384 1.582 4.196 2.34 5.528.635 1.12 1.22 1.713 2.444 1.755.306.012.625-.033.893-.205.338-.218.56-.625.67-1.051.155-.61.082-1.324-.286-1.798-.368-.475-1.058-.617-1.493-.22M17.637 25.52c1.225-.042 1.81-.637 2.445-1.755.438-.77 1.54-2.96 1.54-2.96.705-1.382 1.582-4.193 2.339-5.525M5.086 11.768c.757-1.333 1.634-4.144 2.34-5.528 0 0 1.1-2.19 1.539-2.96.635-1.118 1.22-1.714 2.445-1.756h6.14" stroke="#8A1978" stroke-width="2" stroke-miterlimit="10" stroke-linecap="round" stroke-linejoin="round"/><path d="M2.856 16.8c-.436.395-1.125.253-1.493-.221-.368-.475-.441-1.188-.287-1.798.11-.426.333-.834.67-1.052.269-.172.588-.217.893-.205 1.226.042 1.81.635 2.446 1.755.757 1.333 1.633 4.144 2.34 5.525 0 0 1.1 2.19 1.539 2.96.635 1.119 1.22 1.714 2.445 1.756h6.64" stroke="#8A1978" stroke-width="2" stroke-miterlimit="10" stroke-linecap="round" stroke-linejoin="round"/></svg>