<svg width="28" height="28" viewBox="0 0 28 28" fill="none" xmlns="http://www.w3.org/2000/svg">
<path d="M3.23157 13.6172H1" stroke="#8A1978" stroke-width="2" stroke-miterlimit="10" stroke-linecap="round" stroke-linejoin="round"/>
<path d="M3.23157 17.6339L1 18.4289" stroke="#8A1978" stroke-width="2" stroke-miterlimit="10" stroke-linecap="round" stroke-linejoin="round"/>
<path d="M3.23157 21.6193L1 23.272" stroke="#8A1978" stroke-width="2" stroke-miterlimit="10" stroke-linecap="round" stroke-linejoin="round"/>
<path d="M3.23157 9.60052L1 8.80554" stroke="#8A1978" stroke-width="2" stroke-miterlimit="10" stroke-linecap="round" stroke-linejoin="round"/>
<path d="M3.23157 5.61512L1 3.9624" stroke="#8A1978" stroke-width="2" stroke-miterlimit="10" stroke-linecap="round" stroke-linejoin="round"/>
<path d="M24.0028 13.6172H26.2344" stroke="#8A1978" stroke-width="2" stroke-miterlimit="10" stroke-linecap="round" stroke-linejoin="round"/>
<path d="M24.0028 17.6339L26.2344 18.4289" stroke="#8A1978" stroke-width="2" stroke-miterlimit="10" stroke-linecap="round" stroke-linejoin="round"/>
<path d="M24.0028 21.6193L26.2344 23.272" stroke="#8A1978" stroke-width="2" stroke-miterlimit="10" stroke-linecap="round" stroke-linejoin="round"/>
<path d="M24.0028 9.60052L26.2344 8.80554" stroke="#8A1978" stroke-width="2" stroke-miterlimit="10" stroke-linecap="round" stroke-linejoin="round"/>
<path d="M24.0028 5.61512L26.2344 3.9624" stroke="#8A1978" stroke-width="2" stroke-miterlimit="10" stroke-linecap="round" stroke-linejoin="round"/>
<path d="M13.6172 24.0028L13.6172 26.2344" stroke="#8A1978" stroke-width="2" stroke-miterlimit="10" stroke-linecap="round" stroke-linejoin="round"/>
<path d="M17.6328 24.0028L18.4278 26.2344" stroke="#8A1978" stroke-width="2" stroke-miterlimit="10" stroke-linecap="round" stroke-linejoin="round"/>
<path d="M21.6172 24.0028L23.2699 26.2344" stroke="#8A1978" stroke-width="2" stroke-miterlimit="10" stroke-linecap="round" stroke-linejoin="round"/>
<path d="M9.59967 24.0028L8.80469 26.2344" stroke="#8A1978" stroke-width="2" stroke-miterlimit="10" stroke-linecap="round" stroke-linejoin="round"/>
<path d="M5.61366 24.0028L3.96094 26.2344" stroke="#8A1978" stroke-width="2" stroke-miterlimit="10" stroke-linecap="round" stroke-linejoin="round"/>
<path d="M13.6172 3.23157L13.6172 1" stroke="#8A1978" stroke-width="2" stroke-miterlimit="10" stroke-linecap="round" stroke-linejoin="round"/>
<path d="M17.6328 3.23157L18.4278 1" stroke="#8A1978" stroke-width="2" stroke-miterlimit="10" stroke-linecap="round" stroke-linejoin="round"/>
<path d="M21.6172 3.23157L23.2699 1" stroke="#8A1978" stroke-width="2" stroke-miterlimit="10" stroke-linecap="round" stroke-linejoin="round"/>
<path d="M9.59967 3.23157L8.80469 1" stroke="#8A1978" stroke-width="2" stroke-miterlimit="10" stroke-linecap="round" stroke-linejoin="round"/>
<path d="M5.61366 3.23157L3.96094 1" stroke="#8A1978" stroke-width="2" stroke-miterlimit="10" stroke-linecap="round" stroke-linejoin="round"/>
<path d="M9.10156 18.4739L18.8682 8.70728" stroke="#8A1978" stroke-width="2" stroke-miterlimit="22.9256" stroke-linecap="round" stroke-linejoin="round"/>
<path d="M14.0864 8.81238L9.20312 13.6957" stroke="#8A1978" stroke-width="2" stroke-miterlimit="22.9256" stroke-linecap="round" stroke-linejoin="round"/>
<path d="M13.8828 18.3688L18.7661 13.4855" stroke="#8A1978" stroke-width="2" stroke-miterlimit="22.9256" stroke-linecap="round" stroke-linejoin="round"/>
<path d="M21 3.41357H7C5.34315 3.41357 4 4.75672 4 6.41357V20.4136C4 22.0704 5.34315 23.4136 7 23.4136H21C22.6569 23.4136 24 22.0704 24 20.4136V6.41357C24 4.75672 22.6569 3.41357 21 3.41357Z" stroke="#8A1978" stroke-width="1.7" stroke-miterlimit="10" stroke-linecap="round" stroke-linejoin="round"/>
</svg>
