<svg width="26" height="27" viewBox="0 0 26 27" fill="none" xmlns="http://www.w3.org/2000/svg">
<path d="M24.6093 1.29639H1.39844V25.7036H24.6093V1.29639Z" stroke="#8A1978" stroke-width="1.7" stroke-miterlimit="10" stroke-linecap="round" stroke-linejoin="round"/>
<path d="M8.5 18.0603L18.2666 8.2937" stroke="#8A1978" stroke-width="2" stroke-miterlimit="22.9256" stroke-linecap="round" stroke-linejoin="round"/>
<path d="M13.4849 8.3988L8.60156 13.2821" stroke="#8A1978" stroke-width="2" stroke-miterlimit="22.9256" stroke-linecap="round" stroke-linejoin="round"/>
<path d="M13.2812 17.9552L18.1646 13.0719" stroke="#8A1978" stroke-width="2" stroke-miterlimit="22.9256" stroke-linecap="round" stroke-linejoin="round"/>
<rect x="1" y="1" width="4" height="25" fill="#8A1978"/>
<rect x="21" y="1" width="4" height="25" fill="#8A1978"/>
<path d="M3.10156 5.88C3.65384 5.88 4.10156 5.4323 4.10156 4.88002C4.10156 4.32773 3.65384 3.88 3.10156 3.88C2.54928 3.88 2.10156 4.32773 2.10156 4.88002C2.10156 5.4323 2.54928 5.88 3.10156 5.88Z" fill="white"/>
<path d="M3.10156 11.88C3.65384 11.88 4.10156 11.4323 4.10156 10.88C4.10156 10.3277 3.65384 9.88 3.10156 9.88C2.54928 9.88 2.10156 10.3277 2.10156 10.88C2.10156 11.4323 2.54928 11.88 3.10156 11.88Z" fill="white"/>
<path d="M3.10156 17.88C3.65384 17.88 4.10156 17.4323 4.10156 16.88C4.10156 16.3277 3.65384 15.88 3.10156 15.88C2.54928 15.88 2.10156 16.3277 2.10156 16.88C2.10156 17.4323 2.54928 17.88 3.10156 17.88Z" fill="white"/>
<path d="M3.10156 23.88C3.65384 23.88 4.10156 23.4323 4.10156 22.88C4.10156 22.3277 3.65384 21.88 3.10156 21.88C2.54928 21.88 2.10156 22.3277 2.10156 22.88C2.10156 23.4323 2.54928 23.88 3.10156 23.88Z" fill="white"/>
<path d="M23 5.88C23.5523 5.88 24 5.4323 24 4.88002C24 4.32773 23.5523 3.88 23 3.88C22.4477 3.88 22 4.32773 22 4.88002C22 5.4323 22.4477 5.88 23 5.88Z" fill="white"/>
<path d="M23 11.88C23.5523 11.88 24 11.4323 24 10.88C24 10.3277 23.5523 9.88 23 9.88C22.4477 9.88 22 10.3277 22 10.88C22 11.4323 22.4477 11.88 23 11.88Z" fill="white"/>
<path d="M23 17.88C23.5523 17.88 24 17.4323 24 16.88C24 16.3277 23.5523 15.88 23 15.88C22.4477 15.88 22 16.3277 22 16.88C22 17.4323 22.4477 17.88 23 17.88Z" fill="white"/>
<path d="M23 23.88C23.5523 23.88 24 23.4323 24 22.88C24 22.3277 23.5523 21.88 23 21.88C22.4477 21.88 22 22.3277 22 22.88C22 23.4323 22.4477 23.88 23 23.88Z" fill="white"/>
</svg>
