<svg width="30" height="27" viewBox="0 0 30 27" fill="none" xmlns="http://www.w3.org/2000/svg">
<path d="M9.82031 18.0603L19.587 8.2937" stroke="#8A1978" stroke-width="2" stroke-miterlimit="22.9256" stroke-linecap="round" stroke-linejoin="round"/>
<path d="M14.8052 8.3988L9.92188 13.2821" stroke="#8A1978" stroke-width="2" stroke-miterlimit="22.9256" stroke-linecap="round" stroke-linejoin="round"/>
<path d="M14.6016 17.9552L19.4849 13.0719" stroke="#8A1978" stroke-width="2" stroke-miterlimit="22.9256" stroke-linecap="round" stroke-linejoin="round"/>
<path d="M17.6381 1.52417C18.8634 1.56647 19.4477 2.16166 20.0833 3.27953C20.5215 4.04995 21.6224 6.24038 21.6224 6.24038C22.3284 7.62412 23.2048 10.4356 23.9622 11.768C24.5978 12.8889 25.1821 13.481 26.4074 13.5233C26.7131 13.5354 27.0323 13.4901 27.3 13.3179C27.6382 13.1004 27.86 12.6925 27.9709 12.2665C28.125 11.6562 28.052 10.9432 27.6841 10.4688C27.3163 9.99449 26.6265 9.85249 26.191 10.2483" stroke="#8A1978" stroke-width="2" stroke-miterlimit="10" stroke-linecap="round" stroke-linejoin="round"/>
<path d="M17.6368 25.5203C18.8622 25.478 19.4464 24.8828 20.0821 23.765C20.5203 22.9945 21.6212 20.8041 21.6212 20.8041C22.3272 19.4234 23.2036 16.6119 23.9609 15.2795" stroke="#8A1978" stroke-width="2" stroke-miterlimit="10" stroke-linecap="round" stroke-linejoin="round"/>
<path d="M5.08594 11.7679C5.84331 10.4355 6.7197 7.624 7.42569 6.24026C7.42569 6.24026 8.52659 4.04983 8.96478 3.27941C9.60044 2.16154 10.1847 1.56635 11.41 1.52405L17.5495 1.52405" stroke="#8A1978" stroke-width="2" stroke-miterlimit="10" stroke-linecap="round" stroke-linejoin="round"/>
<path d="M2.85584 16.7991C2.42035 17.1949 1.7306 17.0529 1.36273 16.5786C0.99486 16.1042 0.921827 15.3912 1.07601 14.7809C1.18691 14.3549 1.40871 13.947 1.74683 13.7295C2.01461 13.5573 2.33379 13.512 2.63945 13.5241C3.86477 13.5663 4.44903 14.1585 5.08469 15.2794C5.84206 16.6118 6.71846 19.4233 7.42444 20.804C7.42444 20.804 8.52534 22.9944 8.96353 23.7648C9.59919 24.8827 10.1835 25.4779 11.4088 25.5202L18.0482 25.5202" stroke="#8A1978" stroke-width="2" stroke-miterlimit="10" stroke-linecap="round" stroke-linejoin="round"/>
</svg>
