<svg width="33" height="28" viewBox="0 0 33 28" fill="none" xmlns="http://www.w3.org/2000/svg">
<path fill-rule="evenodd" clip-rule="evenodd" d="M2.58346 11.6834C11.3291 7.87305 17.1608 5.36105 20.0788 4.14738C28.4101 0.682103 30.1413 0.0801475 31.2696 0.0602705C31.5178 0.0558988 32.0727 0.117403 32.4322 0.40906C32.7357 0.65533 32.8192 0.988006 32.8591 1.2215C32.8991 1.45499 32.9488 1.98689 32.9093 2.4025C32.4578 7.1462 30.5043 18.6579 29.5104 23.9709C29.0899 26.2191 28.2618 26.9729 27.4602 27.0466C25.718 27.207 24.3951 25.8953 22.7078 24.7892C20.0674 23.0584 18.5757 21.981 16.0128 20.292C13.0508 18.3402 14.9709 17.2674 16.6589 15.5142C17.1007 15.0553 24.7767 8.07344 24.9252 7.44007C24.9438 7.36086 24.9611 7.06559 24.7856 6.90968C24.6102 6.75376 24.3513 6.80708 24.1645 6.84948C23.8997 6.90959 19.6816 9.69757 11.5103 15.2134C10.313 16.0356 9.22859 16.4361 8.25695 16.4151C7.18579 16.392 5.12532 15.8095 3.59357 15.3116C1.71481 14.7009 0.221619 14.378 0.351643 13.3408C0.419367 12.8006 1.1633 12.2481 2.58346 11.6834Z" fill="white"/>
</svg>
