<svg width="8" height="19" viewBox="0 0 6 13" fill="none" xmlns="http://www.w3.org/2000/svg">
<path d="M5.39276 6.03176L1.19385 0.691706C1.09673 0.568097 0.967091 0.5 0.828858 0.5C0.690626 0.5 0.560985 0.568097 0.463869 0.691706L0.154649 1.08487C-0.0465633 1.34107 -0.0465633 1.75745 0.154649 2.01326L3.68058 6.49751L0.150736 10.9867C0.0536207 11.1104 0 11.2751 0 11.4508C0 11.6267 0.0536207 11.7915 0.150736 11.9152L0.459957 12.3083C0.557149 12.4319 0.686714 12.5 0.824946 12.5C0.963179 12.5 1.09282 12.4319 1.18994 12.3083L5.39276 6.96336C5.4901 6.83936 5.54357 6.6738 5.54326 6.49781C5.54357 6.32112 5.4901 6.15566 5.39276 6.03176Z" fill="#333333"/>
</svg>
