<svg width="28" height="26" viewBox="0 0 28 26" fill="none" xmlns="http://www.w3.org/2000/svg">
<path d="M11.8601 3.21045H16.2484L19.6387 10.3835H8.46878L11.8601 3.21045ZM11.3097 1.95276C11.1782 1.97098 11.0558 2.03018 10.96 2.12189C10.8643 2.2136 10.8002 2.33312 10.7768 2.46334L7.25512 10.3835H1.45084C1.08684 10.4191 0.819396 10.8681 0.945879 11.2287L5.42781 23.8028C5.51084 24.0431 5.74547 24.2143 5.98781 24.2153H22.1206C22.363 24.2153 22.5976 24.0422 22.6806 23.8018L27.1616 11.2287C27.2929 10.8508 26.984 10.3845 26.6016 10.3835H20.8524L17.3307 2.46334C17.2795 2.17872 17.0188 1.9518 16.7427 1.95372L11.3097 1.95276Z" fill="#881777"/>
<rect x="6" y="12.9297" width="3" height="3" rx="1.5" fill="#D9D9D9"/>
<rect x="19" y="12.9297" width="3" height="3" rx="1.5" fill="#D9D9D9"/>
</svg>
