<svg width="20" height="20" viewBox="0 0 20 20" fill="none" xmlns="http://www.w3.org/2000/svg">
<path d="M1.51164 1.51472C1.90217 1.1242 2.53533 1.1242 2.92586 1.51472L18.4822 17.0711C18.8727 17.4616 18.8727 18.0948 18.4822 18.4853V18.4853C18.0917 18.8758 17.4585 18.8758 17.068 18.4853L1.51164 2.92894C1.12112 2.53841 1.12112 1.90525 1.51164 1.51472V1.51472Z" fill="#888888"/>
<path d="M18.4882 1.51457C18.8787 1.9051 18.8787 2.53826 18.4882 2.92879L2.93186 18.4851C2.54133 18.8757 1.90817 18.8757 1.51764 18.4851V18.4851C1.12712 18.0946 1.12712 17.4614 1.51764 17.0709L17.074 1.51457C17.4645 1.12405 18.0977 1.12405 18.4882 1.51457V1.51457Z" fill="#888888"/>
</svg>
