<svg width="29" height="25" viewBox="0 0 29 25" fill="none" xmlns="http://www.w3.org/2000/svg">
<path d="M25.8903 2.4577C25.1393 1.72453 24.2458 1.14246 23.2613 0.745042C22.2768 0.347621 21.2208 0.14271 20.154 0.142121C19.0874 0.142814 18.0315 0.347776 17.0472 0.745193C16.0628 1.14261 15.1695 1.72463 14.4186 2.4577L14.1354 2.73411L13.853 2.4577C13.1028 1.72334 12.2097 1.14007 11.2253 0.741548C10.2409 0.343026 9.18468 0.13715 8.1176 0.135803C7.05063 0.135907 5.99425 0.340513 5.00942 0.737813C4.02459 1.13511 3.13083 1.71724 2.37971 2.45059C0.855158 3.93882 -0.000149639 5.94964 7.74758e-06 8.04524C-0.0029651 10.1409 0.849707 12.1529 2.37237 13.6431L11.6594 22.7048L11.6872 22.7348L12.411 23.4432C12.868 23.887 13.4866 24.1358 14.1313 24.1358C14.776 24.1358 15.3946 23.887 15.8516 23.4432L20.8665 18.5483L25.8813 13.6541C26.639 12.9195 27.2396 12.0475 27.649 11.0882C28.4773 9.14723 28.4788 6.96799 27.653 5.02599C27.2454 4.06619 26.6464 3.19349 25.8903 2.4577Z" fill="url(#paint0_linear_548_123)"/>
<defs>
<linearGradient id="paint0_linear_548_123" x1="14.1346" y1="0.133434" x2="14.1346" y2="24.1342" gradientUnits="userSpaceOnUse">
<stop stop-color="#9E3085"/>
<stop offset="1" stop-color="#841375"/>
</linearGradient>
</defs>
</svg>
