<svg width="28" height="28" viewBox="0 0 28 28" fill="none" xmlns="http://www.w3.org/2000/svg">
<path d="M27.8984 14.4297C27.8984 6.97342 21.8545 0.929688 14.3984 0.929688C6.94239 0.929688 0.898438 6.97342 0.898438 14.4297C0.898438 21.886 6.94239 27.9297 14.3984 27.9297C21.8545 27.9297 27.8984 21.886 27.8984 14.4297Z" fill="url(#paint0_linear_548_139)"/>
<path d="M22.0482 23.2572C22.0357 23.2354 22.0259 23.2124 22.0185 23.1886C21.8612 23.6 20.8693 26.4297 14.6167 26.4297C7.1607 26.4297 7.1717 23.2444 7.1717 23.2444C7.1717 23.2444 7.34536 23.5592 7.17316 23.2444C7.00096 22.9297 6.87855 22.109 7.3848 21.66C8.1516 20.9807 8.8617 20.8173 8.8617 20.8173C9.45949 20.6001 10.0743 20.4389 10.699 20.3356C11.3835 20.2304 12.1219 20.3825 12.4459 20.094C12.7875 19.7927 12.6889 19.0424 12.5674 18.8875C12.3717 18.6374 12.0747 18.4186 11.9086 18.3049C10.8205 17.87 10.0969 17.1623 9.6744 16.358C9.3045 15.6489 9.2829 14.8446 9.19245 14.127C9.10065 13.3966 8.86305 12.7173 8.83065 12.1375C8.6322 8.48256 9.77835 5.44861 14.587 5.44861C19.4767 5.44861 20.4676 8.35182 20.3421 12.1375C20.3205 12.8168 20.1315 13.4506 20.041 14.0673C19.9425 14.7366 19.9519 15.3818 19.7062 15.9431C19.4788 16.4837 19.1506 16.9708 18.7411 17.3755C18.3316 17.7802 17.8491 18.0943 17.3221 18.2992C17.0697 18.4541 16.8469 18.653 16.666 18.8875C16.5634 19.0296 16.4271 19.6833 16.7254 20.0329C16.9887 20.3384 17.9148 20.2162 18.5344 20.3341C19.1608 20.4549 19.7778 20.6183 20.3812 20.8244C20.9364 21.0278 21.4536 21.3318 21.9094 21.7225C22.4055 22.1616 21.8983 22.8001 22.0185 23.1886C22.0488 23.1094 22.0482 23.1198 22.0482 23.2572Z" fill="white"/>
<defs>
<linearGradient id="paint0_linear_548_139" x1="14.3984" y1="0.929688" x2="14.3984" y2="27.9297" gradientUnits="userSpaceOnUse">
<stop stop-color="#9E3085"/>
<stop offset="1" stop-color="#841375"/>
</linearGradient>
</defs>
</svg>
