<svg width="235" height="98" viewBox="0 0 235 98" fill="none" xmlns="http://www.w3.org/2000/svg">
<path d="M174.698 24.3895C174.698 25.8798 174.065 27.7813 172.8 30.0939C171.535 32.4064 169.843 34.9374 167.726 37.6868C165.608 40.436 163.142 43.3011 160.327 46.2816C157.512 49.2624 154.555 52.153 151.456 54.9537C148.357 57.7544 145.232 60.3753 142.082 62.8164C138.931 65.2574 135.91 67.3259 133.018 69.0217C132.294 72.3621 131.933 75.5482 131.933 78.5802C131.933 79.2997 131.842 79.8007 131.662 80.0833C131.481 80.366 131.106 80.5074 130.538 80.5074L129.841 80.4302C129.428 80.3789 129.157 80.1605 129.028 79.775C128.898 79.3896 128.834 78.9399 128.834 78.426C128.834 75.9079 129.092 73.3898 129.609 70.8717C128.111 71.5912 126.703 72.1564 125.386 72.5676C124.069 72.9787 122.894 73.1843 121.861 73.1843C120.828 73.1843 120.028 72.9787 119.46 72.5676C118.892 72.1564 118.478 71.694 118.22 71.18C117.975 70.7334 117.811 70.2386 117.727 69.6957L114.966 70.7946C114.45 71.0002 113.791 71.27 112.991 71.604C112.19 71.938 111.325 72.2592 110.395 72.5676C109.466 72.876 108.562 73.1457 107.684 73.377C106.806 73.6082 106.031 73.7239 105.36 73.7239C104.688 73.7239 104.159 73.5825 103.771 73.2999C103.384 73.0172 103.074 72.696 102.842 72.3364C102.609 71.9766 102.454 71.6168 102.377 71.2572C102.299 70.8974 102.261 70.6148 102.261 70.4092C102.261 69.7412 102.39 69.1373 102.648 68.5977C102.906 68.058 103.113 67.6598 103.268 67.4029C102.441 67.9168 101.654 68.3665 100.905 68.7519C100.156 69.1373 99.6265 69.3813 99.3167 69.4842C98.9552 69.6383 98.5548 69.7925 98.1159 69.9467C97.6768 70.1009 97.2249 70.2807 96.7601 70.4863C96.6568 70.4863 96.5664 70.4221 96.4888 70.2936C96.4114 70.1652 96.3727 70.0494 96.3727 69.9467C96.3727 69.7412 96.4243 69.6127 96.5276 69.5613C96.9408 69.4071 97.3412 69.2529 97.7285 69.0988C98.1159 68.9446 98.4644 68.7904 98.7744 68.6362C99.9624 68.071 100.995 67.5057 101.873 66.9404C102.906 66.3237 103.668 65.7713 104.159 65.2831C104.649 64.7949 104.972 64.3452 105.127 63.9341C105.282 63.5229 105.437 63.2017 105.592 62.9705C105.747 62.7393 105.954 62.6237 106.212 62.6237C106.573 62.6237 106.896 62.7136 107.18 62.8934C107.464 63.0732 107.606 63.3688 107.606 63.7799C107.606 63.9341 107.529 64.1397 107.374 64.3967C107.271 64.5508 107.09 64.8205 106.832 65.206C106.573 65.5914 106.328 66.0283 106.096 66.5164C105.863 67.0046 105.657 67.5313 105.476 68.0967C105.295 68.6619 105.205 69.2015 105.205 69.7155C105.205 70.2807 105.411 70.7689 105.824 71.18C106.238 71.5912 106.883 71.7967 107.761 71.7967C108.329 71.7967 108.962 71.7069 109.659 71.5269C110.357 71.347 111.054 71.1415 111.751 70.9103C112.448 70.679 113.094 70.4478 113.688 70.2165C114.282 69.9852 114.734 69.8183 115.044 69.7155C116.077 69.3043 116.851 68.996 117.368 68.7904C117.483 68.7334 117.599 68.6793 117.716 68.6282C117.85 67.5417 118.341 66.555 119.189 65.6685C120.196 64.615 121.422 63.7286 122.868 63.0091C124.315 62.2896 125.825 61.7372 127.401 61.3517C128.976 60.9663 130.332 60.7735 131.468 60.7735C131.881 60.7735 132.088 60.9535 132.088 61.3132C132.088 61.6729 131.907 61.8528 131.546 61.8528L131.094 61.7757C130.009 61.7757 128.86 61.9556 127.62 62.3153C126.394 62.675 125.257 63.1632 124.198 63.7799C123.153 64.3967 122.287 65.1161 121.616 65.9383C120.957 66.7606 120.622 67.6342 120.622 68.5591C120.622 69.2272 120.802 69.754 121.164 70.1394C121.526 70.5248 121.913 70.7946 122.326 70.9488C122.843 71.1543 123.411 71.2572 124.031 71.2572C125.67 71.2572 127.685 70.6404 130.061 69.4071C130.99 65.6043 132.372 61.7372 134.205 57.8059C136.026 53.8745 138.131 50.0588 140.507 46.3588C142.882 42.6587 145.439 39.1769 148.202 35.9138C150.965 32.6505 153.703 29.8112 156.44 27.3959C159.178 24.9806 161.812 23.0662 164.368 21.6531C166.925 20.2398 169.211 19.5332 171.212 19.5332C172.451 19.5332 173.342 19.9316 173.885 20.7281C174.427 21.5246 174.698 22.7452 174.698 24.3895ZM171.289 24.5438C171.289 23.5674 171.005 22.8479 170.437 22.3854C169.869 21.9229 169.12 21.6916 168.19 21.6916C166.848 21.6916 165.195 22.2955 163.232 23.5032C161.269 24.7107 159.165 26.3809 156.918 28.5137C154.671 30.6463 152.36 33.1644 149.984 36.0679C147.608 38.9715 145.362 42.1191 143.244 45.5109C141.126 48.9025 139.202 52.4613 137.472 56.1871C135.742 59.9129 134.386 63.6771 133.405 67.48C135.884 65.9897 138.544 64.1653 141.385 62.0069C144.225 59.8486 147.04 57.4975 149.829 54.9537C152.618 52.41 155.317 49.7505 157.925 46.9755C160.533 44.2004 162.819 41.4767 164.782 38.8044C166.744 36.1321 168.32 33.5627 169.507 31.096C170.695 28.6293 171.289 26.4452 171.289 24.5438ZM113.804 53.7589C113.804 54.1187 113.701 54.5169 113.494 54.9537C113.288 55.3905 113.029 55.8017 112.72 56.1871C112.41 56.5726 112.061 56.8936 111.674 57.1506C111.286 57.4075 110.886 57.536 110.473 57.536C109.543 57.536 109.078 57.1249 109.078 56.3027C109.078 55.943 109.182 55.5447 109.388 55.1079C109.595 54.6711 109.853 54.2599 110.163 53.8745C110.473 53.4891 110.834 53.1679 111.248 52.911C111.661 52.654 112.048 52.5255 112.41 52.5255C113.339 52.5255 113.804 52.9367 113.804 53.7589ZM109.543 37.0314C109.543 38.2648 109.169 39.6139 108.42 41.0784C107.671 42.5431 106.728 44.0719 105.592 45.665C104.456 47.258 103.203 48.8512 101.835 50.4442C100.466 52.0374 99.1876 53.5533 97.9998 54.9923C96.6569 56.5853 95.2753 58.3326 93.8549 60.2341C92.4345 62.1354 91.0787 64.0882 89.7876 66.0925C88.4963 68.0967 87.3084 70.088 86.2238 72.0665C85.1391 74.045 84.2353 75.9079 83.5123 77.6552C83.099 78.6829 82.8149 79.6851 82.6601 80.6615C82.5051 81.638 82.4276 82.5629 82.4276 83.4366C82.4276 85.1838 82.6342 86.7383 83.0473 88.1002C83.4605 89.4619 83.8221 90.5026 84.132 91.2221C84.2353 91.4276 84.2869 91.6846 84.2869 91.993C84.2869 92.3527 84.1577 92.5967 83.8996 92.7252C83.6414 92.8537 83.3314 92.918 82.9699 92.918C82.4018 92.918 81.8595 92.7124 81.3429 92.3012C80.8265 91.8901 80.3745 91.3377 79.9872 90.644C79.5998 89.9502 79.2899 89.128 79.0575 88.1773C78.8251 87.2265 78.7088 86.2373 78.7088 85.2095C78.7088 84.3872 78.7476 83.5265 78.8251 82.6271C78.9025 81.7278 79.1478 80.6486 79.561 79.3896C79.9742 78.1305 80.6328 76.6402 81.5366 74.9187C82.4406 73.197 83.693 71.1158 85.2942 68.6748C86.8952 66.2337 88.9354 63.3944 91.4145 60.1569C93.8936 56.9194 96.9151 53.1679 100.479 48.9025C100.634 48.6456 101.008 48.1189 101.602 47.3223C102.196 46.5258 102.829 45.6136 103.5 44.5858C104.172 43.558 104.766 42.4789 105.282 41.3483C105.799 40.2177 106.057 39.2156 106.057 38.342C106.057 37.3142 105.605 36.5818 104.701 36.1451C103.797 35.7081 102.932 35.4897 102.106 35.4897C100.763 35.4897 99.1747 35.8752 97.3412 36.6461C95.5077 37.4169 93.545 38.419 91.4532 39.6523C89.3615 40.8857 87.2051 42.3118 84.9842 43.9306C82.7633 45.5494 80.5811 47.2067 78.4377 48.9025C76.2943 50.5984 74.2412 52.2815 72.2785 53.9517C70.3159 55.6218 68.5599 57.1249 67.0104 58.4611C66.7004 58.7181 66.1452 59.2705 65.3447 60.1184C64.5441 60.9663 63.6015 61.9427 62.5169 63.0476C61.4324 64.1525 60.309 65.3216 59.1469 66.555C57.9847 67.7883 56.8872 68.9446 55.8543 70.0238C54.8212 71.103 53.9562 72.0279 53.2589 72.7988C52.5617 73.5697 52.1355 74.0322 51.9806 74.1864C51.6707 74.4947 51.4124 74.803 51.2058 75.1114C50.9993 75.4197 50.7152 75.5739 50.3536 75.5739C50.0954 75.5739 49.863 75.4711 49.6563 75.2656C49.4498 75.06 49.3465 74.8545 49.3465 74.6488C49.3465 74.3918 49.4498 74.1478 49.6563 73.9166C49.863 73.6854 50.0954 73.4412 50.3536 73.1843C51.2317 72.3621 52.355 71.1287 53.7237 69.4842C55.0925 67.8397 56.5644 66.0026 58.1396 63.9726C59.715 61.9427 61.329 59.8229 62.9818 57.6132C64.6346 55.4034 66.1841 53.3093 67.6302 51.3307C69.0763 49.3522 70.3417 47.5922 71.4264 46.0504C72.511 44.5087 73.2599 43.4038 73.6731 42.7358C74.3446 41.708 74.8739 40.6545 75.2613 39.5753C75.6487 38.4961 75.8424 37.5197 75.8424 36.6461C75.8424 35.7211 75.597 34.963 75.1063 34.3721C74.6157 33.7811 73.8539 33.4856 72.8209 33.4856C71.2714 33.4856 69.4121 34.0509 67.2428 35.1814C65.0736 36.312 62.8009 37.7252 60.4251 39.4211C58.0493 41.117 55.7122 42.9284 53.4139 44.8556C51.1154 46.7827 49.0882 48.5428 47.3322 50.136C46.2992 51.0609 45.021 52.2942 43.4973 53.836C41.9736 55.3777 40.3854 57.035 38.7326 58.808C37.0798 60.581 35.427 62.3667 33.7742 64.1653C32.1216 65.964 30.6238 67.6213 29.2808 69.1373C27.938 70.6533 26.8146 71.9124 25.9108 72.9145C25.0069 73.9166 24.4776 74.4947 24.3226 74.6488C23.8061 75.3169 23.3413 75.6511 22.9281 75.6511C22.6698 75.6511 22.4374 75.561 22.2309 75.3812C22.0242 75.2014 21.921 74.9829 21.921 74.726C21.921 74.4176 22.1533 74.0322 22.6183 73.5697C23.3413 72.8502 24.2709 71.7711 25.4072 70.3321C26.5435 68.8932 27.7831 67.2616 29.1259 65.4373C30.4688 63.6129 31.8762 61.6601 33.3483 59.5787C34.8202 57.4975 36.2276 55.4291 37.5706 53.3735C38.8102 51.472 40.011 49.622 41.173 47.8234C42.3351 46.0247 43.3682 44.3032 44.2719 42.6587C45.1758 41.0142 45.886 39.4468 46.4025 37.9565C46.919 36.4662 47.1772 35.1044 47.1772 33.8711C47.1772 31.7127 46.5058 29.9012 45.1629 28.4366C43.82 26.972 42.051 25.7386 39.8561 24.7364C37.6609 23.7343 35.1559 22.8993 32.3411 22.2313C29.5263 21.5631 26.6467 20.9207 23.7028 20.3041C20.7588 19.6875 17.8794 19.0322 15.0645 18.3384C12.2497 17.6447 9.74467 16.7711 7.54961 15.7176C5.35447 14.6641 3.58555 13.3665 2.24275 11.8248C0.899792 10.2831 0.228394 8.35599 0.228394 6.04338C0.228394 5.16977 0.344531 4.43742 0.576966 3.84648C0.80948 3.25554 1.05475 2.75454 1.31301 2.34339C1.62284 1.88077 2.01023 1.49548 2.4751 1.18705C2.68171 1.03287 2.88824 0.955856 3.09493 0.955856C3.45641 0.955856 3.63728 1.11004 3.63728 1.41831C3.63728 1.57249 3.55972 1.72667 3.40476 1.88077C2.83667 2.54888 2.44928 3.17845 2.24275 3.76947C2.03606 4.36041 1.93276 4.91281 1.93276 5.42674C1.93276 7.01977 2.61715 8.35599 3.98585 9.43516C5.35447 10.5144 7.14939 11.465 9.37027 12.2872C11.5912 13.1095 14.122 13.829 16.9626 14.4457C19.8033 15.0623 22.7214 15.7047 25.7171 16.3728C28.7127 17.0409 31.6309 17.7731 34.4715 18.5697C37.3123 19.3662 39.8431 20.3298 42.064 21.4604C44.2849 22.591 46.0797 23.9528 47.4484 25.5459C48.8171 27.1389 49.5014 29.0661 49.5014 31.3272C49.5014 33.0745 49.127 35.0016 48.3781 37.1086C47.6291 39.2156 46.6866 41.3611 45.5503 43.5452C44.414 45.7292 43.2003 47.8491 41.9091 49.9046C40.6178 51.9603 39.4041 53.8103 38.2678 55.4548C37.1315 57.0993 36.1889 58.4482 35.44 59.5017C34.6912 60.5551 34.3166 61.1847 34.3166 61.3903C34.4715 61.2875 34.9364 60.8636 35.7111 60.1184C36.4859 59.3732 37.5189 58.3454 38.8102 57.035C40.1013 55.7246 41.6766 54.17 43.5359 52.3714C45.3953 50.5727 47.4872 48.5943 49.8113 46.4358C55.2344 41.5025 60.167 37.7124 64.6087 35.0659C69.0505 32.4193 72.6918 31.096 75.5325 31.096C76.5654 31.096 77.4306 31.3914 78.1278 31.9825C78.8251 32.5734 79.1737 33.6397 79.1737 35.1814C79.1737 36.2093 78.9929 37.2242 78.6314 38.2263C78.2698 39.2284 77.8308 40.192 77.3143 41.117C76.7979 42.042 76.2426 42.9028 75.6487 43.6993C75.0548 44.4959 74.5512 45.2025 74.1379 45.8192C73.9313 46.1275 73.5698 46.6285 73.0533 47.3223C72.5368 48.0161 71.9299 48.8127 71.2327 49.7119C70.5354 50.6113 69.7865 51.5748 68.986 52.6027C68.1853 53.6305 67.3977 54.6582 66.623 55.686C64.7636 58.1013 62.6978 60.7222 60.4251 63.5486C60.4251 63.5486 60.4768 63.5229 60.5801 63.4716C61.9746 62.0326 63.7823 60.2725 66.0032 58.1912C68.2241 56.1099 70.6387 53.9517 73.247 51.7161C75.8552 49.4807 78.6184 47.258 81.5366 45.0483C84.4548 42.8385 87.3214 40.8601 90.1362 39.1127C92.951 37.3656 95.6497 35.9523 98.2321 34.8732C100.815 33.7939 103.113 33.2543 105.127 33.2543C106.315 33.2543 107.348 33.5499 108.226 34.1408C109.104 34.7318 109.543 35.6954 109.543 37.0314ZM219.731 68.9446C219.731 69.1501 219.654 69.3043 219.499 69.4071L216.013 70.7946C215.496 71.0002 214.838 71.27 214.037 71.604C213.237 71.938 212.371 72.2592 211.442 72.5676C210.512 72.876 209.608 73.1457 208.73 73.377C207.852 73.6082 207.077 73.7239 206.406 73.7239C205.425 73.7239 204.753 73.5312 204.392 73.1457C204.03 72.7603 203.849 72.2849 203.849 71.7197C203.849 71.1543 203.966 70.5505 204.198 69.9082C204.43 69.2658 204.689 68.6491 204.973 68.058C205.257 67.4671 205.515 66.9532 205.747 66.5164C205.98 66.0796 206.096 65.7841 206.096 65.6299C206.096 65.5786 206.045 65.5529 205.941 65.5529C205.735 65.5529 205.27 65.7584 204.547 66.1695C203.824 66.5807 202.997 67.0816 202.068 67.6728C201.138 68.2637 200.131 68.9189 199.046 69.6383C197.961 70.3578 196.928 71.0131 195.947 71.604C194.966 72.195 194.075 72.696 193.274 73.1072C192.474 73.5182 191.893 73.7239 191.531 73.7239C191.221 73.7239 190.95 73.6211 190.718 73.4155C190.485 73.21 190.369 72.953 190.369 72.6446C190.369 72.2336 190.55 71.7582 190.911 71.2186C191.273 70.679 191.686 70.1394 192.151 69.5998C192.616 69.0603 193.094 68.5334 193.584 68.0197C194.075 67.5057 194.449 67.0946 194.708 66.7862C194.759 66.7348 194.785 66.6577 194.785 66.555C194.785 66.4008 194.682 66.3237 194.475 66.3237C194.423 66.3237 194.152 66.4522 193.662 66.7091C189.592 68.8401 184.485 71.6426 179.854 71.6426C178.511 71.6426 177.478 71.2315 176.755 70.4092C175.412 71.7453 173.901 72.876 172.223 73.8009C170.544 74.726 168.878 75.1884 167.226 75.1884C166.502 75.1884 165.934 75.0215 165.521 74.6874C165.108 74.3534 164.901 73.7752 164.901 72.953C164.901 72.0998 165.231 71.0873 165.889 69.9153C162.432 71.2964 159.035 72.3832 155.446 73.3641C153.613 73.8652 152.076 74.1093 150.836 74.1093C149.803 74.1093 148.964 73.8652 148.319 73.377C147.673 72.8888 147.35 72.2592 147.35 71.4885C147.35 70.7689 147.582 70.1009 148.047 69.4842C148.512 68.8676 149.016 68.3279 149.558 67.8653C150.1 67.4029 150.591 67.0174 151.03 66.7091C151.469 66.4008 151.688 66.221 151.688 66.1695C151.688 66.0668 151.495 65.9897 151.108 65.9383C150.72 65.8868 150.062 65.7841 149.132 65.6299C148.564 65.5272 148.189 65.3601 148.009 65.1289C147.828 64.8977 147.737 64.6535 147.737 64.3967C147.737 64.0368 147.854 63.7156 148.086 63.4331C148.319 63.1504 148.486 62.9577 148.59 62.8549C149.623 62.1869 150.836 61.5187 152.231 60.8507C153.625 60.1826 155.007 59.5917 156.376 59.0777C157.744 58.5639 158.997 58.1528 160.133 57.8444C161.269 57.536 162.07 57.3818 162.535 57.3818C163.051 57.3818 163.529 57.4975 163.968 57.7287C164.407 57.9601 164.627 58.3583 164.627 58.9236C164.627 59.1805 164.497 59.4503 164.239 59.7329C163.981 60.0156 163.671 60.2725 163.31 60.5038C162.948 60.7351 162.561 60.9278 162.147 61.082C161.734 61.2362 161.373 61.3132 161.063 61.3132C160.805 61.3132 160.559 61.2618 160.327 61.159C160.094 61.0562 159.978 60.8763 159.978 60.6194C159.978 60.3111 160.107 59.9771 160.366 59.6174C160.469 59.5145 160.521 59.4118 160.521 59.309C160.521 59.2062 160.391 59.1548 160.133 59.1548C160.03 59.1548 159.875 59.1677 159.668 59.1934C159.462 59.2191 159.229 59.2577 158.971 59.309C158.558 59.4118 157.964 59.6045 157.189 59.8872C156.414 60.1698 155.64 60.4909 154.865 60.8507C154.09 61.2105 153.393 61.5444 152.773 61.8528C152.153 62.1611 151.766 62.3795 151.611 62.4823C151.404 62.6365 151.301 62.7906 151.301 62.9449C151.301 63.2017 151.456 63.3817 151.766 63.4844C152.768 63.6493 153.971 63.6386 155.097 63.6386C155.666 63.69 156.001 63.7928 156.105 63.947C156.208 64.1139 156.259 64.3708 156.259 64.7307C156.259 64.9876 156.208 65.2446 156.105 65.5014C156.001 65.7713 155.666 65.9511 155.097 66.054C154.013 66.3109 152.967 66.7477 151.96 67.3643C150.953 67.9938 150.449 68.8161 150.449 69.8567C150.449 70.5763 150.849 71.1158 151.65 71.4499C152.45 71.7839 153.212 71.9509 153.935 71.9509C155.278 71.9509 156.698 71.7582 158.196 71.3727C161.208 70.5976 163.932 69.7033 166.796 68.4821C167.653 67.2378 168.649 66.0302 169.782 64.8591C171.125 63.4716 172.507 62.2896 173.927 61.3132C175.347 60.3368 176.522 59.8486 177.452 59.8486C177.71 59.8486 177.956 59.9386 178.188 60.1184C178.42 60.2983 178.537 60.4653 178.537 60.6194C178.537 60.7222 178.459 60.7865 178.304 60.8121C178.149 60.8378 177.994 60.8507 177.839 60.8507C177.22 60.8507 176.354 61.2489 175.244 62.0455C174.134 62.842 173.036 63.7799 171.951 64.8591C170.867 65.9383 169.937 67.0689 169.162 68.2508C168.388 69.4328 168 70.4092 168 71.18C168 72.3106 168.568 72.876 169.705 72.876C170.634 72.876 171.68 72.5548 172.842 71.9124C174.004 71.27 175.102 70.4863 176.135 69.5613C175.773 68.8932 175.593 68.0453 175.593 67.0174C175.593 66.298 175.709 65.5656 175.941 64.8205C176.174 64.0755 176.496 63.4201 176.91 62.8549C177.323 62.2896 177.826 61.8271 178.42 61.4674C179.014 61.1077 179.673 60.9278 180.396 60.9278C181.377 60.9278 181.868 61.3903 181.868 62.3281C181.868 63.1504 181.519 64.191 180.822 65.4373C180.125 66.6834 179.182 67.9425 177.994 69.2401C178.562 69.9724 179.389 70.3321 180.474 70.3321C181.197 70.3321 181.945 70.2551 182.72 70.1009C187.734 69.1026 193.387 66.0951 197.574 63.0862C197.853 62.8947 198.294 62.7778 198.659 62.7778C199.072 62.7778 199.279 63.0605 199.279 63.6258C199.279 64.0369 199.046 64.5508 198.581 65.1674C198.116 65.7841 197.587 66.4137 196.993 67.056C196.399 67.6984 195.87 68.315 195.405 68.906C194.94 69.497 194.708 69.9467 194.708 70.2551C194.708 70.6662 194.914 70.8717 195.327 70.8717C195.637 70.8717 196.257 70.5763 197.187 69.9852C200.924 67.6098 205.475 64.1131 209.389 62.3153C209.724 62.1611 210.021 62.0841 210.28 62.0841C210.538 62.0841 210.693 62.174 210.745 62.3538C210.796 62.5338 210.822 62.675 210.822 62.7778C210.822 62.9834 210.77 63.1889 210.667 63.3944C210.564 63.6001 210.461 63.8056 210.357 64.0112C210.202 64.2167 209.944 64.5765 209.582 65.0904C209.221 65.6043 208.872 66.1695 208.536 66.7862C208.201 67.4029 207.891 68.0329 207.607 68.6748C207.323 69.3171 207.181 69.8953 207.181 70.4092C207.181 71.3342 207.723 71.7967 208.808 71.7967C209.376 71.7967 210.009 71.7069 210.706 71.5269C211.403 71.347 212.1 71.1415 212.798 70.9103C213.495 70.679 214.141 70.4478 214.734 70.2165C215.328 69.9852 215.78 69.8183 216.09 69.7155C217.123 69.3043 217.898 68.996 218.414 68.7904C218.724 68.6362 219.034 68.5077 219.344 68.4049C219.447 68.4049 219.538 68.4692 219.615 68.5977C219.693 68.7262 219.731 68.8419 219.731 68.9446ZM180.474 63.5486C180.474 62.8292 180.009 62.4695 179.079 62.4695C178.511 62.4695 178.033 62.842 177.646 63.5872C177.258 64.3324 177.065 65.1674 177.065 66.0925C177.065 66.5036 177.091 66.8889 177.142 67.2488C177.194 67.6085 177.297 67.9682 177.452 68.3279C178.33 67.4543 179.053 66.5807 179.621 65.707C180.189 64.8334 180.474 64.1139 180.474 63.5486Z" fill="#94216C"/>
<path d="M9.38086 82.9355H10.4678V88.7119C10.4678 88.9307 10.4655 89.1699 10.4609 89.4297C10.4564 89.6849 10.4495 89.9355 10.4404 90.1816C10.4313 90.4277 10.4199 90.651 10.4062 90.8516C10.3971 91.0521 10.388 91.207 10.3789 91.3164H10.4336L15.998 82.9355H17.2764V92.9297H16.1895V87.2217C16.1895 86.9801 16.194 86.7249 16.2031 86.4561C16.2122 86.1826 16.2214 85.9183 16.2305 85.6631C16.2441 85.4079 16.2578 85.18 16.2715 84.9795C16.2852 84.7744 16.2943 84.6172 16.2988 84.5078H16.2373L10.666 92.9297H9.38086V82.9355ZM23.1607 85.3008C23.7213 85.3008 24.2066 85.3783 24.6168 85.5332C25.027 85.6836 25.3437 85.9046 25.567 86.1963C25.7903 86.488 25.902 86.8434 25.902 87.2627C25.902 87.7139 25.7789 88.0739 25.5328 88.3428C25.2867 88.6117 24.9472 88.8053 24.5143 88.9238V88.9785C24.8196 89.0605 25.0953 89.179 25.3414 89.334C25.5921 89.4844 25.7903 89.6849 25.9361 89.9355C26.0865 90.1816 26.1617 90.4893 26.1617 90.8584C26.1617 91.2777 26.0478 91.6559 25.8199 91.9932C25.5921 92.3258 25.2457 92.5879 24.7809 92.7793C24.316 92.9707 23.7281 93.0664 23.0172 93.0664C22.6663 93.0664 22.3336 93.0459 22.0191 93.0049C21.7047 92.9684 21.4199 92.9137 21.1646 92.8408C20.9094 92.7679 20.6861 92.6813 20.4947 92.5811V91.5488C20.8137 91.7038 21.1874 91.8405 21.6158 91.959C22.0442 92.0775 22.5068 92.1367 23.0035 92.1367C23.3863 92.1367 23.7304 92.0934 24.0357 92.0068C24.3411 91.9157 24.5826 91.7721 24.7604 91.5762C24.9426 91.3757 25.0338 91.1136 25.0338 90.79C25.0338 90.4938 24.954 90.25 24.7945 90.0586C24.635 89.8626 24.3958 89.7191 24.0768 89.6279C23.7623 89.5322 23.3635 89.4844 22.8805 89.4844H21.8756V88.5547H22.7027C23.3453 88.5547 23.858 88.4635 24.2408 88.2812C24.6236 88.099 24.815 87.7913 24.815 87.3584C24.815 86.9847 24.6669 86.7067 24.3707 86.5244C24.0745 86.3376 23.6507 86.2441 23.0992 86.2441C22.6891 86.2441 22.3268 86.2874 22.0123 86.374C21.6979 86.4561 21.3583 86.5745 20.9937 86.7295L20.5904 85.8203C20.9824 85.6471 21.3925 85.5173 21.8209 85.4307C22.2493 85.3441 22.6959 85.3008 23.1607 85.3008ZM33.9465 85.4375V86.4014H30.5422V92.9297H29.4006V85.4375H33.9465ZM43.3035 89.1699C43.3035 89.7852 43.2238 90.3343 43.0643 90.8174C42.9048 91.3005 42.6746 91.7083 42.3738 92.041C42.073 92.3737 41.7085 92.6289 41.2801 92.8066C40.8563 92.9798 40.3755 93.0664 39.8377 93.0664C39.3364 93.0664 38.8761 92.9798 38.4568 92.8066C38.0421 92.6289 37.6821 92.3737 37.3768 92.041C37.076 91.7083 36.8413 91.3005 36.6727 90.8174C36.5086 90.3343 36.4266 89.7852 36.4266 89.1699C36.4266 88.3496 36.5656 87.6523 36.8436 87.0781C37.1216 86.4993 37.518 86.0596 38.033 85.7588C38.5525 85.4535 39.1701 85.3008 39.8855 85.3008C40.5691 85.3008 41.1661 85.4535 41.6766 85.7588C42.1915 86.0641 42.5903 86.5062 42.8729 87.085C43.16 87.6592 43.3035 88.3542 43.3035 89.1699ZM37.6023 89.1699C37.6023 89.7715 37.6821 90.2933 37.8416 90.7354C38.0011 91.1774 38.2472 91.5192 38.5799 91.7607C38.9126 92.0023 39.341 92.123 39.865 92.123C40.3846 92.123 40.8107 92.0023 41.1434 91.7607C41.4806 91.5192 41.729 91.1774 41.8885 90.7354C42.048 90.2933 42.1277 89.7715 42.1277 89.1699C42.1277 88.5729 42.048 88.0579 41.8885 87.625C41.729 87.1875 41.4829 86.8503 41.1502 86.6133C40.8175 86.3763 40.3868 86.2578 39.8582 86.2578C39.0789 86.2578 38.507 86.5153 38.1424 87.0303C37.7824 87.5452 37.6023 88.2585 37.6023 89.1699ZM51.7719 86.4014H49.3041V92.9297H48.183V86.4014H45.7494V85.4375H51.7719V86.4014ZM61.1152 89.1699C61.1152 89.7852 61.0355 90.3343 60.876 90.8174C60.7165 91.3005 60.4863 91.7083 60.1855 92.041C59.8848 92.3737 59.5202 92.6289 59.0918 92.8066C58.668 92.9798 58.1872 93.0664 57.6494 93.0664C57.1481 93.0664 56.6878 92.9798 56.2686 92.8066C55.8538 92.6289 55.4938 92.3737 55.1885 92.041C54.8877 91.7083 54.653 91.3005 54.4844 90.8174C54.3203 90.3343 54.2383 89.7852 54.2383 89.1699C54.2383 88.3496 54.3773 87.6523 54.6553 87.0781C54.9333 86.4993 55.3298 86.0596 55.8447 85.7588C56.3643 85.4535 56.9818 85.3008 57.6973 85.3008C58.3809 85.3008 58.9779 85.4535 59.4883 85.7588C60.0033 86.0641 60.402 86.5062 60.6846 87.085C60.9717 87.6592 61.1152 88.3542 61.1152 89.1699ZM55.4141 89.1699C55.4141 89.7715 55.4938 90.2933 55.6533 90.7354C55.8128 91.1774 56.0589 91.5192 56.3916 91.7607C56.7243 92.0023 57.1527 92.123 57.6768 92.123C58.1963 92.123 58.6224 92.0023 58.9551 91.7607C59.2923 91.5192 59.5407 91.1774 59.7002 90.7354C59.8597 90.2933 59.9395 89.7715 59.9395 89.1699C59.9395 88.5729 59.8597 88.0579 59.7002 87.625C59.5407 87.1875 59.2946 86.8503 58.9619 86.6133C58.6292 86.3763 58.1986 86.2578 57.6699 86.2578C56.8906 86.2578 56.3187 86.5153 55.9541 87.0303C55.5941 87.5452 55.4141 88.2585 55.4141 89.1699ZM70.4313 87.3174C70.4313 87.7868 70.2945 88.1536 70.0211 88.418C69.7477 88.6777 69.3945 88.8532 68.9615 88.9443V88.999C69.4309 89.0628 69.8342 89.2314 70.1715 89.5049C70.5133 89.7738 70.6842 90.1862 70.6842 90.7422C70.6842 91.1706 70.5816 91.5488 70.3766 91.877C70.1715 92.2051 69.8502 92.4626 69.4127 92.6494C68.9752 92.8363 68.4055 92.9297 67.7037 92.9297H64.4771V85.4375H67.6764C68.2141 85.4375 68.6881 85.499 69.0982 85.6221C69.513 85.7406 69.8388 85.9365 70.0758 86.21C70.3128 86.4834 70.4313 86.8525 70.4313 87.3174ZM69.5016 90.7422C69.5016 90.3001 69.3329 89.9811 68.9957 89.7852C68.663 89.5892 68.1777 89.4912 67.5396 89.4912H65.6188V92.0068H67.567C68.1959 92.0068 68.6744 91.9111 69.0025 91.7197C69.3352 91.5238 69.5016 91.1979 69.5016 90.7422ZM69.276 87.4473C69.276 87.0918 69.1461 86.8275 68.8863 86.6543C68.6266 86.4766 68.2005 86.3877 67.608 86.3877H65.6188V88.541H67.4098C68.025 88.541 68.4898 88.4521 68.8043 88.2744C69.1188 88.0967 69.276 87.821 69.276 87.4473ZM79.5354 92.9297H78.3801V86.3877H76.1037C76.0126 87.568 75.8964 88.5798 75.7551 89.4229C75.6184 90.2614 75.4452 90.9473 75.2355 91.4805C75.0305 92.0091 74.7798 92.3988 74.4836 92.6494C74.1919 92.8955 73.8433 93.0186 73.4377 93.0186C73.3147 93.0186 73.1984 93.0117 73.0891 92.998C72.9797 92.9844 72.8863 92.9616 72.8088 92.9297V92.0684C72.868 92.0866 72.9296 92.1003 72.9934 92.1094C73.0617 92.1185 73.1324 92.123 73.2053 92.123C73.4104 92.123 73.5972 92.0387 73.7658 91.8701C73.939 91.6969 74.0939 91.4372 74.2307 91.0908C74.3719 90.7445 74.4973 90.307 74.6066 89.7783C74.716 89.2451 74.8117 88.6185 74.8938 87.8984C74.9803 87.1738 75.0555 86.3535 75.1193 85.4375H79.5354V92.9297ZM86.2127 85.3008C86.8507 85.3008 87.3976 85.4421 87.8533 85.7246C88.309 86.0072 88.6577 86.4036 88.8992 86.9141C89.1408 87.4199 89.2615 88.0124 89.2615 88.6914V89.3955H84.0867C84.1004 90.2751 84.3191 90.945 84.743 91.4053C85.1668 91.8656 85.7638 92.0957 86.534 92.0957C87.0079 92.0957 87.4272 92.0524 87.7918 91.9658C88.1564 91.8792 88.5346 91.7516 88.9266 91.583V92.5811C88.5483 92.7497 88.1723 92.8727 87.7986 92.9502C87.4295 93.0277 86.992 93.0664 86.4861 93.0664C85.7661 93.0664 85.1372 92.9206 84.5994 92.6289C84.0662 92.3327 83.6515 91.8997 83.3553 91.3301C83.059 90.7604 82.9109 90.0632 82.9109 89.2383C82.9109 88.4316 83.0454 87.7344 83.3143 87.1465C83.5877 86.554 83.9705 86.0983 84.4627 85.7793C84.9594 85.4603 85.5428 85.3008 86.2127 85.3008ZM86.199 86.2305C85.5929 86.2305 85.1098 86.4287 84.7498 86.8252C84.3898 87.2217 84.1756 87.7754 84.1072 88.4863H88.0721C88.0675 88.0397 87.9969 87.6478 87.8602 87.3105C87.728 86.9688 87.5252 86.7044 87.2518 86.5176C86.9783 86.3262 86.6274 86.2305 86.199 86.2305ZM93.7309 85.4375V88.582H97.9076V85.4375H99.0424V92.9297H97.9076V89.5459H93.7309V92.9297H92.5893V85.4375H93.7309ZM103.929 85.4375V90.1475C103.929 90.2386 103.926 90.3571 103.922 90.5029C103.917 90.6442 103.91 90.7969 103.901 90.9609C103.892 91.1204 103.883 91.2754 103.874 91.4258C103.869 91.5716 103.863 91.6924 103.854 91.7881L107.941 85.4375H109.336V92.9297H108.276V88.3359C108.276 88.1901 108.279 88.0033 108.283 87.7754C108.288 87.5475 108.295 87.3242 108.304 87.1055C108.313 86.8822 108.32 86.709 108.324 86.5859L104.25 92.9297H102.849V85.4375H103.929ZM116.034 85.3008C116.672 85.3008 117.219 85.4421 117.674 85.7246C118.13 86.0072 118.479 86.4036 118.72 86.9141C118.962 87.4199 119.083 88.0124 119.083 88.6914V89.3955H113.908C113.921 90.2751 114.14 90.945 114.564 91.4053C114.988 91.8656 115.585 92.0957 116.355 92.0957C116.829 92.0957 117.248 92.0524 117.613 91.9658C117.977 91.8792 118.356 91.7516 118.748 91.583V92.5811C118.369 92.7497 117.993 92.8727 117.62 92.9502C117.251 93.0277 116.813 93.0664 116.307 93.0664C115.587 93.0664 114.958 92.9206 114.421 92.6289C113.887 92.3327 113.473 91.8997 113.176 91.3301C112.88 90.7604 112.732 90.0632 112.732 89.2383C112.732 88.4316 112.866 87.7344 113.135 87.1465C113.409 86.554 113.792 86.0983 114.284 85.7793C114.781 85.4603 115.364 85.3008 116.034 85.3008ZM116.02 86.2305C115.414 86.2305 114.931 86.4287 114.571 86.8252C114.211 87.2217 113.997 87.7754 113.928 88.4863H117.893C117.889 88.0397 117.818 87.6478 117.681 87.3105C117.549 86.9688 117.346 86.7044 117.073 86.5176C116.799 86.3262 116.449 86.2305 116.02 86.2305ZM129.375 85.3008C129.935 85.3008 130.421 85.3783 130.831 85.5332C131.241 85.6836 131.558 85.9046 131.781 86.1963C132.004 86.488 132.116 86.8434 132.116 87.2627C132.116 87.7139 131.993 88.0739 131.747 88.3428C131.501 88.6117 131.161 88.8053 130.728 88.9238V88.9785C131.034 89.0605 131.309 89.179 131.555 89.334C131.806 89.4844 132.004 89.6849 132.15 89.9355C132.301 90.1816 132.376 90.4893 132.376 90.8584C132.376 91.2777 132.262 91.6559 132.034 91.9932C131.806 92.3258 131.46 92.5879 130.995 92.7793C130.53 92.9707 129.942 93.0664 129.231 93.0664C128.88 93.0664 128.548 93.0459 128.233 93.0049C127.919 92.9684 127.634 92.9137 127.379 92.8408C127.123 92.7679 126.9 92.6813 126.709 92.5811V91.5488C127.028 91.7038 127.401 91.8405 127.83 91.959C128.258 92.0775 128.721 92.1367 129.218 92.1367C129.6 92.1367 129.944 92.0934 130.25 92.0068C130.555 91.9157 130.797 91.7721 130.974 91.5762C131.157 91.3757 131.248 91.1136 131.248 90.79C131.248 90.4938 131.168 90.25 131.009 90.0586C130.849 89.8626 130.61 89.7191 130.291 89.6279C129.976 89.5322 129.578 89.4844 129.095 89.4844H128.09V88.5547H128.917C129.559 88.5547 130.072 88.4635 130.455 88.2812C130.838 88.099 131.029 87.7913 131.029 87.3584C131.029 86.9847 130.881 86.7067 130.585 86.5244C130.289 86.3376 129.865 86.2441 129.313 86.2441C128.903 86.2441 128.541 86.2874 128.226 86.374C127.912 86.4561 127.572 86.5745 127.208 86.7295L126.804 85.8203C127.196 85.6471 127.607 85.5173 128.035 85.4307C128.463 85.3441 128.91 85.3008 129.375 85.3008ZM138.499 85.3008C139.137 85.3008 139.684 85.4421 140.14 85.7246C140.596 86.0072 140.944 86.4036 141.186 86.9141C141.427 87.4199 141.548 88.0124 141.548 88.6914V89.3955H136.373C136.387 90.2751 136.606 90.945 137.03 91.4053C137.454 91.8656 138.051 92.0957 138.821 92.0957C139.295 92.0957 139.714 92.0524 140.079 91.9658C140.443 91.8792 140.821 91.7516 141.213 91.583V92.5811C140.835 92.7497 140.459 92.8727 140.085 92.9502C139.716 93.0277 139.279 93.0664 138.773 93.0664C138.053 93.0664 137.424 92.9206 136.886 92.6289C136.353 92.3327 135.938 91.8997 135.642 91.3301C135.346 90.7604 135.198 90.0632 135.198 89.2383C135.198 88.4316 135.332 87.7344 135.601 87.1465C135.874 86.554 136.257 86.0983 136.749 85.7793C137.246 85.4603 137.829 85.3008 138.499 85.3008ZM138.486 86.2305C137.88 86.2305 137.397 86.4287 137.037 86.8252C136.676 87.2217 136.462 87.7754 136.394 88.4863H140.359C140.354 88.0397 140.284 87.6478 140.147 87.3105C140.015 86.9688 139.812 86.7044 139.538 86.5176C139.265 86.3262 138.914 86.2305 138.486 86.2305ZM148.396 85.3008C149.331 85.3008 150.076 85.6221 150.632 86.2646C151.188 86.9072 151.466 87.8734 151.466 89.1631C151.466 90.0153 151.338 90.7308 151.083 91.3096C150.828 91.8883 150.468 92.3258 150.003 92.6221C149.543 92.9183 148.998 93.0664 148.369 93.0664C147.973 93.0664 147.624 93.014 147.323 92.9092C147.022 92.8044 146.765 92.6631 146.551 92.4854C146.337 92.3076 146.159 92.1139 146.018 91.9043H145.936C145.949 92.082 145.965 92.2962 145.983 92.5469C146.006 92.7975 146.018 93.0163 146.018 93.2031V96.2793H144.876V85.4375H145.812L145.963 86.5449H146.018C146.163 86.3171 146.341 86.1097 146.551 85.9229C146.76 85.7314 147.016 85.5811 147.316 85.4717C147.622 85.3577 147.982 85.3008 148.396 85.3008ZM148.198 86.2578C147.679 86.2578 147.259 86.3581 146.94 86.5586C146.626 86.7591 146.396 87.0599 146.25 87.4609C146.104 87.8574 146.027 88.3564 146.018 88.958V89.1768C146.018 89.8102 146.086 90.3457 146.223 90.7832C146.364 91.2207 146.594 91.5534 146.913 91.7812C147.237 92.0091 147.67 92.123 148.212 92.123C148.677 92.123 149.064 91.9977 149.374 91.7471C149.684 91.4964 149.914 91.1478 150.064 90.7012C150.219 90.25 150.297 89.7327 150.297 89.1494C150.297 88.2653 150.124 87.5635 149.777 87.0439C149.436 86.5199 148.909 86.2578 148.198 86.2578ZM159.216 85.4375H160.467L157.234 89.0537L160.727 92.9297H159.394L155.99 89.1289V92.9297H154.848V85.4375H155.99V89.0742L159.216 85.4375ZM166.283 85.3145C167.177 85.3145 167.84 85.515 168.273 85.916C168.706 86.3171 168.922 86.9574 168.922 87.8369V92.9297H168.095L167.876 91.8223H167.821C167.612 92.0957 167.393 92.3258 167.165 92.5127C166.937 92.695 166.673 92.834 166.372 92.9297C166.076 93.0208 165.711 93.0664 165.279 93.0664C164.823 93.0664 164.417 92.9867 164.062 92.8271C163.711 92.6676 163.433 92.4261 163.228 92.1025C163.027 91.779 162.927 91.3688 162.927 90.8721C162.927 90.1247 163.223 89.5505 163.816 89.1494C164.408 88.7484 165.31 88.5296 166.523 88.4932L167.815 88.4385V87.9805C167.815 87.3333 167.676 86.8799 167.398 86.6201C167.12 86.3604 166.728 86.2305 166.222 86.2305C165.83 86.2305 165.456 86.2874 165.101 86.4014C164.745 86.5153 164.408 86.6497 164.089 86.8047L163.74 85.9434C164.078 85.7702 164.465 85.6221 164.903 85.499C165.34 85.376 165.8 85.3145 166.283 85.3145ZM167.801 89.2383L166.659 89.2861C165.725 89.3226 165.067 89.4753 164.684 89.7441C164.301 90.013 164.11 90.3936 164.11 90.8857C164.11 91.3141 164.239 91.6309 164.499 91.8359C164.759 92.041 165.103 92.1436 165.531 92.1436C166.197 92.1436 166.741 91.959 167.165 91.5898C167.589 91.2207 167.801 90.667 167.801 89.9287V89.2383ZM178.279 92.9297H177.124V86.3877H174.847C174.756 87.568 174.64 88.5798 174.499 89.4229C174.362 90.2614 174.189 90.9473 173.979 91.4805C173.774 92.0091 173.524 92.3988 173.227 92.6494C172.936 92.8955 172.587 93.0186 172.181 93.0186C172.058 93.0186 171.942 93.0117 171.833 92.998C171.723 92.9844 171.63 92.9616 171.553 92.9297V92.0684C171.612 92.0866 171.673 92.1003 171.737 92.1094C171.805 92.1185 171.876 92.123 171.949 92.123C172.154 92.123 172.341 92.0387 172.51 91.8701C172.683 91.6969 172.838 91.4372 172.974 91.0908C173.116 90.7445 173.241 90.307 173.35 89.7783C173.46 89.2451 173.555 88.6185 173.637 87.8984C173.724 87.1738 173.799 86.3535 173.863 85.4375H178.279V92.9297ZM189.036 85.3008C189.597 85.3008 190.082 85.3783 190.492 85.5332C190.902 85.6836 191.219 85.9046 191.442 86.1963C191.666 86.488 191.777 86.8434 191.777 87.2627C191.777 87.7139 191.654 88.0739 191.408 88.3428C191.162 88.6117 190.823 88.8053 190.39 88.9238V88.9785C190.695 89.0605 190.971 89.179 191.217 89.334C191.467 89.4844 191.666 89.6849 191.812 89.9355C191.962 90.1816 192.037 90.4893 192.037 90.8584C192.037 91.2777 191.923 91.6559 191.695 91.9932C191.467 92.3258 191.121 92.5879 190.656 92.7793C190.191 92.9707 189.604 93.0664 188.893 93.0664C188.542 93.0664 188.209 93.0459 187.895 93.0049C187.58 92.9684 187.295 92.9137 187.04 92.8408C186.785 92.7679 186.562 92.6813 186.37 92.5811V91.5488C186.689 91.7038 187.063 91.8405 187.491 91.959C187.92 92.0775 188.382 92.1367 188.879 92.1367C189.262 92.1367 189.606 92.0934 189.911 92.0068C190.216 91.9157 190.458 91.7721 190.636 91.5762C190.818 91.3757 190.909 91.1136 190.909 90.79C190.909 90.4938 190.829 90.25 190.67 90.0586C190.51 89.8626 190.271 89.7191 189.952 89.6279C189.638 89.5322 189.239 89.4844 188.756 89.4844H187.751V88.5547H188.578C189.221 88.5547 189.733 88.4635 190.116 88.2812C190.499 88.099 190.69 87.7913 190.69 87.3584C190.69 86.9847 190.542 86.7067 190.246 86.5244C189.95 86.3376 189.526 86.2441 188.975 86.2441C188.564 86.2441 188.202 86.2874 187.888 86.374C187.573 86.4561 187.234 86.5745 186.869 86.7295L186.466 85.8203C186.858 85.6471 187.268 85.5173 187.696 85.4307C188.125 85.3441 188.571 85.3008 189.036 85.3008ZM198.079 85.3145C198.972 85.3145 199.635 85.515 200.068 85.916C200.501 86.3171 200.717 86.9574 200.717 87.8369V92.9297H199.89L199.671 91.8223H199.617C199.407 92.0957 199.188 92.3258 198.961 92.5127C198.733 92.695 198.468 92.834 198.168 92.9297C197.871 93.0208 197.507 93.0664 197.074 93.0664C196.618 93.0664 196.212 92.9867 195.857 92.8271C195.506 92.6676 195.228 92.4261 195.023 92.1025C194.823 91.779 194.722 91.3688 194.722 90.8721C194.722 90.1247 195.018 89.5505 195.611 89.1494C196.203 88.7484 197.106 88.5296 198.318 88.4932L199.61 88.4385V87.9805C199.61 87.3333 199.471 86.8799 199.193 86.6201C198.915 86.3604 198.523 86.2305 198.017 86.2305C197.625 86.2305 197.252 86.2874 196.896 86.4014C196.541 86.5153 196.203 86.6497 195.884 86.8047L195.536 85.9434C195.873 85.7702 196.26 85.6221 196.698 85.499C197.135 85.376 197.596 85.3145 198.079 85.3145ZM199.596 89.2383L198.455 89.2861C197.52 89.3226 196.862 89.4753 196.479 89.7441C196.096 90.013 195.905 90.3936 195.905 90.8857C195.905 91.3141 196.035 91.6309 196.295 91.8359C196.554 92.041 196.898 92.1436 197.327 92.1436C197.992 92.1436 198.537 91.959 198.961 91.5898C199.384 91.2207 199.596 90.667 199.596 89.9287V89.2383ZM208.823 85.4375H210.074L206.841 89.0537L210.334 92.9297H209.001L205.597 89.1289V92.9297H204.455V85.4375H205.597V89.0742L208.823 85.4375ZM215.89 85.3145C216.784 85.3145 217.447 85.515 217.88 85.916C218.313 86.3171 218.529 86.9574 218.529 87.8369V92.9297H217.702L217.483 91.8223H217.429C217.219 92.0957 217 92.3258 216.772 92.5127C216.544 92.695 216.28 92.834 215.979 92.9297C215.683 93.0208 215.318 93.0664 214.886 93.0664C214.43 93.0664 214.024 92.9867 213.669 92.8271C213.318 92.6676 213.04 92.4261 212.835 92.1025C212.634 91.779 212.534 91.3688 212.534 90.8721C212.534 90.1247 212.83 89.5505 213.423 89.1494C214.015 88.7484 214.917 88.5296 216.13 88.4932L217.422 88.4385V87.9805C217.422 87.3333 217.283 86.8799 217.005 86.6201C216.727 86.3604 216.335 86.2305 215.829 86.2305C215.437 86.2305 215.063 86.2874 214.708 86.4014C214.352 86.5153 214.015 86.6497 213.696 86.8047L213.347 85.9434C213.685 85.7702 214.072 85.6221 214.51 85.499C214.947 85.376 215.407 85.3145 215.89 85.3145ZM217.408 89.2383L216.266 89.2861C215.332 89.3226 214.674 89.4753 214.291 89.7441C213.908 90.013 213.717 90.3936 213.717 90.8857C213.717 91.3141 213.846 91.6309 214.106 91.8359C214.366 92.041 214.71 92.1436 215.138 92.1436C215.804 92.1436 216.348 91.959 216.772 91.5898C217.196 91.2207 217.408 90.667 217.408 89.9287V89.2383ZM224.195 85.3008C224.755 85.3008 225.241 85.3783 225.651 85.5332C226.061 85.6836 226.378 85.9046 226.601 86.1963C226.824 86.488 226.936 86.8434 226.936 87.2627C226.936 87.7139 226.813 88.0739 226.567 88.3428C226.321 88.6117 225.981 88.8053 225.548 88.9238V88.9785C225.854 89.0605 226.129 89.179 226.375 89.334C226.626 89.4844 226.824 89.6849 226.97 89.9355C227.121 90.1816 227.196 90.4893 227.196 90.8584C227.196 91.2777 227.082 91.6559 226.854 91.9932C226.626 92.3258 226.28 92.5879 225.815 92.7793C225.35 92.9707 224.762 93.0664 224.051 93.0664C223.7 93.0664 223.368 93.0459 223.053 93.0049C222.739 92.9684 222.454 92.9137 222.199 92.8408C221.943 92.7679 221.72 92.6813 221.529 92.5811V91.5488C221.848 91.7038 222.221 91.8405 222.65 91.959C223.078 92.0775 223.541 92.1367 224.038 92.1367C224.42 92.1367 224.764 92.0934 225.07 92.0068C225.375 91.9157 225.617 91.7721 225.794 91.5762C225.977 91.3757 226.068 91.1136 226.068 90.79C226.068 90.4938 225.988 90.25 225.829 90.0586C225.669 89.8626 225.43 89.7191 225.111 89.6279C224.796 89.5322 224.398 89.4844 223.914 89.4844H222.91V88.5547H223.737C224.379 88.5547 224.892 88.4635 225.275 88.2812C225.658 88.099 225.849 87.7913 225.849 87.3584C225.849 86.9847 225.701 86.7067 225.405 86.5244C225.108 86.3376 224.685 86.2441 224.133 86.2441C223.723 86.2441 223.361 86.2874 223.046 86.374C222.732 86.4561 222.392 86.5745 222.028 86.7295L221.624 85.8203C222.016 85.6471 222.427 85.5173 222.855 85.4307C223.283 85.3441 223.73 85.3008 224.195 85.3008ZM230.264 92.2188C230.264 91.8997 230.341 91.6742 230.496 91.542C230.651 91.4053 230.84 91.3369 231.063 91.3369C231.296 91.3369 231.492 91.4053 231.651 91.542C231.811 91.6742 231.891 91.8997 231.891 92.2188C231.891 92.5332 231.811 92.7633 231.651 92.9092C231.492 93.0505 231.296 93.1211 231.063 93.1211C230.84 93.1211 230.651 93.0505 230.496 92.9092C230.341 92.7633 230.264 92.5332 230.264 92.2188Z" fill="black"/>
</svg>
