<svg width="25" height="19" viewBox="0 0 25 19" fill="none" xmlns="http://www.w3.org/2000/svg">
<path d="M1 1.92969C1 1.3774 1.44772 0.929688 2 0.929688H24C24.5523 0.929688 25 1.3774 25 1.92969C25 2.48197 24.5523 2.92969 24 2.92969H2C1.44772 2.92969 1 2.48197 1 1.92969Z" fill="white"/>
<path d="M1 17.9297C1 17.3774 1.44772 16.9297 2 16.9297H24C24.5523 16.9297 25 17.3774 25 17.9297C25 18.482 24.5523 18.9297 24 18.9297H2C1.44772 18.9297 1 18.482 1 17.9297Z" fill="white"/>
<path d="M1 9.92969C1 9.3774 1.44772 8.92969 2 8.92969H24C24.5523 8.92969 25 9.3774 25 9.92969C25 10.482 24.5523 10.9297 24 10.9297H2C1.44772 10.9297 1 10.482 1 9.92969Z" fill="white"/>
</svg>
