<svg width="16" height="16" viewBox="0 0 16 16" fill="none" xmlns="http://www.w3.org/2000/svg">
<path d="M0.501143 3.85653C0.501143 3.85653 0.469143 3.01082 1.00629 1.91825C1.38343 1.14568 2.85771 0.718248 2.85771 0.718248C2.85771 0.718248 3.48629 0.558248 4.75257 1.7811C5.25543 2.24625 5.57543 2.87596 5.65543 3.5571C5.70114 4.17882 4.37543 5.50453 4.37543 5.50453C4.47829 6.26453 4.796 6.9811 5.29086 7.56739C5.812 8.1731 6.708 9.11825 7.18 9.55939C7.58229 9.93768 8.03257 10.4314 8.63143 10.828C9.80857 11.6097 10.092 11.5388 10.092 11.5388C10.092 11.5388 11.7697 10.1331 12.2714 10.1822C12.6531 10.2211 13.1937 10.4725 13.884 11.0622C14.3983 11.4977 14.7263 11.828 14.9846 12.2691C15.076 12.4211 15.148 12.5845 15.1994 12.7548C15.1994 12.7548 15.2669 13.452 14.1834 14.5617C13.1057 15.6645 11.62 15.3765 11.62 15.3765C11.62 15.3765 10.7651 15.2497 9.36743 14.5914C7.81984 13.8366 6.4098 12.8275 5.196 11.6062C4.06114 10.436 2.57771 8.6451 1.85429 7.39939C0.944572 5.83368 0.5 3.85653 0.5 3.85653H0.501143Z" fill="url(#paint0_linear_548_111)"/>
<defs>
<linearGradient id="paint0_linear_548_111" x1="5.58343" y1="9.35825" x2="10.2806" y2="4.6611" gradientUnits="userSpaceOnUse">
<stop stop-color="#9E3085"/>
<stop offset="1" stop-color="#841375"/>
</linearGradient>
</defs>
</svg>
