<svg width="29" height="24" viewBox="0 0 29 24" fill="none" xmlns="http://www.w3.org/2000/svg">
<path opacity="0.7" d="M0 15.51C0 15.1754 0.0839667 14.8461 0.244209 14.5523L5.1221 5.60947C5.50112 4.91461 6.49888 4.91461 6.8779 5.60948L11.7558 14.5523C11.916 14.8461 12 15.1754 12 15.51V22C12 23.1046 11.1046 24 10 24H2C0.895431 24 0 23.1046 0 22V15.51Z" fill="#872077"/>
<path d="M6.28125 1C6.28125 0.447716 6.72897 0 7.28125 0H13.4413C13.9935 0 14.4412 0.447715 14.4412 1V5.76H21.6013C22.1535 5.76 22.6012 6.20772 22.6012 6.76V23C22.6012 23.5523 22.1535 24 21.6012 24H7.28125C6.72896 24 6.28125 23.5523 6.28125 23V1Z" fill="#8A1978" fill-opacity="0.7"/>
<path opacity="0.8" d="M15 15.9199C15 15.336 15.2551 14.7813 15.6984 14.4014L20.6984 10.1156C21.4474 9.47366 22.5526 9.47366 23.3016 10.1156L28.3016 14.4014C28.7449 14.7813 29 15.336 29 15.9199V22C29 23.1046 28.1046 24 27 24H17C15.8954 24 15 23.1046 15 22V15.9199Z" fill="#D87FCA"/>
</svg>
