<svg width="20" height="20" viewBox="0 0 20 20" fill="none" xmlns="http://www.w3.org/2000/svg">
<path d="M17.1252 2.17968C17.7454 2.17968 18.2502 2.68444 18.2502 3.30469V8.06194C18.2502 8.7527 17.9697 9.42919 17.4814 9.91744L9.13983 18.2597C8.60882 18.7907 7.64656 18.7952 7.11106 18.2597L2.17001 13.3187C1.89927 13.0487 1.75001 12.6887 1.75001 12.3032C1.75001 11.9207 1.89926 11.5607 2.17001 11.2899L10.5108 2.94844C11.0073 2.45268 11.6659 2.17968 12.3679 2.17968H17.1252ZM9.67008 18.7899L18.0117 10.4484C18.6402 9.81994 19.0002 8.94994 19.0002 8.06194V3.30469C19.0002 2.27119 18.1594 1.42969 17.1252 1.42969H12.3679C11.4663 1.42969 10.6181 1.78069 9.98133 2.41819L1.63976 10.7597C1.22726 11.1722 1 11.7204 1 12.3062C1 12.8889 1.22726 13.4372 1.63976 13.8497L6.58005 18.7899C6.98656 19.1964 7.54906 19.4297 8.12657 19.4297C8.70107 19.4297 9.26358 19.1964 9.67008 18.7899V18.7899Z" fill="#91217D"/>
<path d="M17.1252 2.17968C17.7454 2.17968 18.2502 2.68444 18.2502 3.30469V8.06194C18.2502 8.7527 17.9697 9.42919 17.4814 9.91744L9.13983 18.2597C8.60882 18.7907 7.64656 18.7952 7.11106 18.2597L2.17001 13.3187C1.89927 13.0487 1.75001 12.6887 1.75001 12.3032C1.75001 11.9207 1.89926 11.5607 2.17001 11.2899L10.5108 2.94844C11.0073 2.45268 11.6659 2.17968 12.3679 2.17968H17.1252ZM9.67008 18.7899L18.0117 10.4484C18.6402 9.81994 19.0002 8.94994 19.0002 8.06194V3.30469C19.0002 2.27119 18.1594 1.42969 17.1252 1.42969H12.3679C11.4663 1.42969 10.6181 1.78069 9.98133 2.41819L1.63976 10.7597C1.22726 11.1722 1 11.7204 1 12.3062C1 12.8889 1.22726 13.4372 1.63976 13.8497L6.58005 18.7899C6.98656 19.1964 7.54906 19.4297 8.12657 19.4297C8.70107 19.4297 9.26358 19.1964 9.67008 18.7899V18.7899Z" stroke="#91217D" stroke-miterlimit="20"/>
<path d="M15.9922 5.55477C15.9922 6.17502 15.4875 6.67978 14.8672 6.67978C14.2469 6.67978 13.7422 6.17502 13.7422 5.55477C13.7422 4.93451 14.2469 4.42975 14.8672 4.42975C15.4875 4.42975 15.9922 4.93451 15.9922 5.55477ZM16.7422 5.55477C16.7422 4.52125 15.9015 3.67975 14.8672 3.67975C13.8329 3.67975 12.9922 4.52125 12.9922 5.55477C12.9922 6.58828 13.8329 7.42978 14.8672 7.42978C15.9015 7.42978 16.7422 6.58828 16.7422 5.55477Z" fill="#91217D"/>
<path d="M15.9922 5.55477C15.9922 6.17502 15.4875 6.67978 14.8672 6.67978C14.2469 6.67978 13.7422 6.17502 13.7422 5.55477C13.7422 4.93451 14.2469 4.42975 14.8672 4.42975C15.4875 4.42975 15.9922 4.93451 15.9922 5.55477ZM16.7422 5.55477C16.7422 4.52125 15.9015 3.67975 14.8672 3.67975C13.8329 3.67975 12.9922 4.52125 12.9922 5.55477C12.9922 6.58828 13.8329 7.42978 14.8672 7.42978C15.9015 7.42978 16.7422 6.58828 16.7422 5.55477Z" stroke="#91217D" stroke-miterlimit="20"/>
<path d="M8.92969 14.5843V8.62524" stroke="#91217D" stroke-width="1.5" stroke-linecap="round"/>
<rect x="4.80469" y="11.8336" width="2.26891" height="2.26891" rx="1.13445" transform="rotate(-45 4.80469 11.8336)" fill="#8F1F7C"/>
<rect x="9.85156" y="11.3737" width="2.26891" height="2.26891" rx="1.13445" transform="rotate(-45 9.85156 11.3737)" fill="#8F1F7C"/>
</svg>
