<svg width="18" height="18" viewBox="0 0 18 18" fill="none" xmlns="http://www.w3.org/2000/svg">
<path d="M8.11738 2.23968C8.82341 2.23001 9.52431 2.36071 10.1794 2.62421C10.8345 2.8877 11.4307 3.27873 11.9334 3.77458C12.4361 4.27042 12.8352 4.86121 13.1077 5.51262C13.3801 6.16404 13.5204 6.86309 13.5204 7.56918C13.5204 8.27527 13.3801 8.97432 13.1077 9.62573C12.8352 10.2771 12.4361 10.8679 11.9334 11.3638C11.4307 11.8596 10.8345 12.2507 10.1794 12.5141C9.52431 12.7776 8.82341 12.9083 8.11738 12.8987C6.71656 12.8795 5.37961 12.3095 4.39579 11.3122C3.41197 10.3148 2.86039 8.97014 2.86039 7.56918C2.86039 6.16822 3.41197 4.82359 4.39579 3.8262C5.37961 2.82881 6.71656 2.25887 8.11738 2.23968ZM17.1974 16.6497C17.3452 16.502 17.4625 16.3266 17.5426 16.1336C17.6226 15.9406 17.6638 15.7336 17.6638 15.5247C17.6638 15.3157 17.6226 15.1088 17.5426 14.9158C17.4625 14.7227 17.3452 14.5473 17.1974 14.3997L14.3924 11.5937C15.3849 10.0462 15.7706 8.1866 15.4753 6.37208C15.18 4.55756 14.2246 2.91616 12.7926 1.76327C11.3607 0.610384 9.55316 0.0273286 7.71743 0.126138C5.8817 0.224948 4.14723 0.998653 2.8473 2.29859C1.54736 3.59853 0.773654 5.33299 0.674844 7.16873C0.576035 9.00446 1.15909 10.812 2.31198 12.2439C3.46487 13.6759 5.10627 14.6313 6.92078 14.9266C8.7353 15.2219 10.5949 14.8362 12.1424 13.8437L14.9474 16.6487C15.0951 16.7965 15.2704 16.9138 15.4635 16.9939C15.6565 17.0739 15.8634 17.1151 16.0724 17.1151C16.2814 17.1151 16.4883 17.0739 16.6813 16.9939C16.8743 16.9138 17.0497 16.7965 17.1974 16.6487V16.6497Z" fill="url(#paint0_linear_548_103)"/>
<defs>
<linearGradient id="paint0_linear_548_103" x1="2.10738" y1="-0.620322" x2="18.8474" y2="19.1397" gradientUnits="userSpaceOnUse">
<stop stop-color="#9E3085"/>
<stop offset="1" stop-color="#841375"/>
</linearGradient>
</defs>
</svg>
