<svg width="220" height="93" viewBox="0 0 220 93" fill="none" xmlns="http://www.w3.org/2000/svg">
<path d="M174.698 24.3895C174.698 25.8798 174.065 27.7813 172.8 30.0939C171.535 32.4064 169.843 34.9374 167.726 37.6868C165.608 40.436 163.142 43.3011 160.327 46.2816C157.512 49.2624 154.555 52.153 151.456 54.9537C148.357 57.7544 145.232 60.3753 142.082 62.8164C138.931 65.2574 135.91 67.3259 133.018 69.0217C132.294 72.3621 131.933 75.5482 131.933 78.5802C131.933 79.2997 131.843 79.8007 131.662 80.0833C131.481 80.366 131.106 80.5074 130.538 80.5074L129.841 80.4302C129.428 80.3789 129.157 80.1605 129.028 79.775C128.898 79.3896 128.834 78.9399 128.834 78.4261C128.834 75.9079 129.092 73.3898 129.609 70.8717C128.111 71.5912 126.703 72.1564 125.386 72.5675C124.069 72.9787 122.894 73.1843 121.861 73.1843C120.828 73.1843 120.028 72.9787 119.46 72.5675C118.892 72.1564 118.478 71.694 118.22 71.18C117.975 70.7334 117.811 70.2386 117.727 69.6957L114.966 70.7946C114.45 71.0002 113.791 71.27 112.991 71.604C112.19 71.938 111.325 72.2592 110.395 72.5675C109.466 72.876 108.562 73.1457 107.684 73.377C106.806 73.6082 106.031 73.7239 105.36 73.7239C104.688 73.7239 104.159 73.5825 103.771 73.2999C103.384 73.0172 103.074 72.696 102.842 72.3364C102.609 71.9766 102.454 71.6168 102.377 71.2572C102.299 70.8974 102.261 70.6148 102.261 70.4092C102.261 69.7412 102.39 69.1373 102.648 68.5977C102.906 68.058 103.113 67.6598 103.268 67.4029C102.441 67.9168 101.654 68.3665 100.905 68.7519C100.156 69.1373 99.6265 69.3813 99.3167 69.4842C98.9552 69.6383 98.5548 69.7925 98.1159 69.9467C97.6768 70.1009 97.2249 70.2807 96.7601 70.4863C96.6568 70.4863 96.5664 70.422 96.4888 70.2936C96.4114 70.1652 96.3727 70.0494 96.3727 69.9467C96.3727 69.7412 96.4243 69.6127 96.5276 69.5613C96.9408 69.4071 97.3412 69.2529 97.7285 69.0988C98.1159 68.9446 98.4644 68.7904 98.7744 68.6362C99.9624 68.071 100.995 67.5057 101.873 66.9404C102.906 66.3237 103.668 65.7713 104.159 65.2831C104.649 64.7949 104.972 64.3452 105.127 63.9341C105.282 63.5229 105.437 63.2017 105.592 62.9705C105.747 62.7393 105.954 62.6237 106.212 62.6237C106.573 62.6237 106.896 62.7136 107.18 62.8934C107.464 63.0732 107.606 63.3688 107.606 63.7799C107.606 63.9341 107.529 64.1397 107.374 64.3967C107.271 64.5508 107.09 64.8205 106.832 65.206C106.573 65.5914 106.328 66.0283 106.096 66.5164C105.863 67.0046 105.657 67.5313 105.476 68.0967C105.295 68.6619 105.205 69.2015 105.205 69.7155C105.205 70.2807 105.411 70.7689 105.824 71.18C106.238 71.5912 106.883 71.7967 107.761 71.7967C108.329 71.7967 108.962 71.7069 109.659 71.5269C110.357 71.347 111.054 71.1415 111.751 70.9103C112.448 70.679 113.094 70.4478 113.688 70.2165C114.282 69.9852 114.734 69.8183 115.044 69.7155C116.077 69.3043 116.851 68.996 117.368 68.7904C117.483 68.7334 117.599 68.6793 117.716 68.6282C117.85 67.5417 118.341 66.555 119.189 65.6685C120.196 64.615 121.422 63.7286 122.868 63.0091C124.315 62.2896 125.825 61.7372 127.401 61.3517C128.976 60.9663 130.332 60.7735 131.468 60.7735C131.881 60.7735 132.088 60.9535 132.088 61.3132C132.088 61.6729 131.907 61.8528 131.546 61.8528L131.094 61.7757C130.009 61.7757 128.86 61.9556 127.62 62.3153C126.394 62.675 125.257 63.1632 124.198 63.7799C123.153 64.3967 122.287 65.1161 121.616 65.9383C120.957 66.7606 120.622 67.6342 120.622 68.5591C120.622 69.2272 120.802 69.754 121.164 70.1394C121.526 70.5248 121.913 70.7946 122.326 70.9488C122.843 71.1543 123.411 71.2572 124.031 71.2572C125.67 71.2572 127.685 70.6404 130.061 69.4071C130.99 65.6043 132.372 61.7372 134.205 57.8059C136.026 53.8745 138.131 50.0588 140.507 46.3588C142.882 42.6587 145.439 39.1769 148.202 35.9138C150.965 32.6505 153.703 29.8112 156.44 27.3959C159.178 24.9806 161.812 23.0662 164.368 21.6531C166.925 20.2398 169.211 19.5332 171.212 19.5332C172.451 19.5332 173.342 19.9316 173.885 20.7281C174.427 21.5246 174.698 22.7452 174.698 24.3895V24.3895ZM171.289 24.5438C171.289 23.5674 171.005 22.8479 170.437 22.3854C169.869 21.9229 169.12 21.6916 168.19 21.6916C166.848 21.6916 165.195 22.2955 163.232 23.5032C161.269 24.7107 159.165 26.3809 156.918 28.5137C154.671 30.6463 152.36 33.1644 149.984 36.0679C147.608 38.9715 145.362 42.1191 143.244 45.5109C141.126 48.9025 139.202 52.4613 137.472 56.1871C135.742 59.9129 134.386 63.6771 133.405 67.48C135.884 65.9897 138.544 64.1653 141.385 62.0069C144.225 59.8486 147.04 57.4975 149.829 54.9537C152.618 52.41 155.317 49.7505 157.925 46.9755C160.533 44.2004 162.819 41.4767 164.782 38.8044C166.744 36.1321 168.32 33.5627 169.507 31.096C170.695 28.6293 171.289 26.4452 171.289 24.5438V24.5438ZM113.804 53.7589C113.804 54.1187 113.701 54.5169 113.494 54.9537C113.288 55.3905 113.029 55.8017 112.72 56.1871C112.41 56.5726 112.061 56.8936 111.674 57.1506C111.286 57.4075 110.886 57.536 110.473 57.536C109.543 57.536 109.078 57.1249 109.078 56.3027C109.078 55.943 109.182 55.5447 109.388 55.1079C109.595 54.6711 109.853 54.2599 110.163 53.8745C110.473 53.4891 110.834 53.1679 111.248 52.911C111.661 52.654 112.048 52.5255 112.41 52.5255C113.339 52.5255 113.804 52.9367 113.804 53.7589V53.7589ZM109.543 37.0314C109.543 38.2648 109.169 39.6139 108.42 41.0784C107.671 42.5431 106.728 44.0719 105.592 45.665C104.456 47.258 103.203 48.8512 101.835 50.4442C100.466 52.0374 99.1876 53.5533 97.9998 54.9923C96.6569 56.5853 95.2753 58.3326 93.8549 60.2341C92.4345 62.1354 91.0787 64.0882 89.7876 66.0925C88.4963 68.0967 87.3085 70.088 86.2238 72.0665C85.1391 74.045 84.2353 75.9079 83.5123 77.6552C83.099 78.6829 82.815 79.6851 82.6601 80.6615C82.5051 81.638 82.4276 82.5629 82.4276 83.4366C82.4276 85.1838 82.6342 86.7383 83.0473 88.1002C83.4605 89.4619 83.8221 90.5026 84.132 91.2221C84.2353 91.4276 84.2869 91.6846 84.2869 91.993C84.2869 92.3527 84.1577 92.5967 83.8996 92.7252C83.6414 92.8537 83.3314 92.9179 82.9699 92.9179C82.4018 92.9179 81.8595 92.7124 81.3429 92.3012C80.8265 91.8901 80.3745 91.3377 79.9872 90.644C79.5998 89.9502 79.2899 89.128 79.0575 88.1773C78.8251 87.2265 78.7088 86.2373 78.7088 85.2095C78.7088 84.3872 78.7476 83.5265 78.8251 82.6271C78.9025 81.7278 79.1478 80.6486 79.561 79.3896C79.9742 78.1305 80.6328 76.6402 81.5366 74.9187C82.4405 73.197 83.693 71.1158 85.2942 68.6748C86.8952 66.2338 88.9354 63.3944 91.4145 60.1569C93.8936 56.9194 96.9151 53.1679 100.479 48.9025C100.634 48.6456 101.008 48.1189 101.602 47.3223C102.196 46.5258 102.829 45.6136 103.5 44.5858C104.172 43.558 104.766 42.4789 105.282 41.3483C105.799 40.2177 106.057 39.2156 106.057 38.342C106.057 37.3142 105.605 36.5818 104.701 36.1451C103.797 35.7081 102.932 35.4897 102.106 35.4897C100.763 35.4897 99.1747 35.8752 97.3412 36.6461C95.5077 37.4169 93.545 38.419 91.4532 39.6523C89.3615 40.8857 87.2051 42.3118 84.9842 43.9306C82.7633 45.5494 80.5811 47.2067 78.4377 48.9025C76.2943 50.5984 74.2412 52.2815 72.2785 53.9517C70.3159 55.6218 68.5599 57.1249 67.0104 58.4611C66.7004 58.7181 66.1453 59.2705 65.3447 60.1184C64.5441 60.9663 63.6015 61.9427 62.5169 63.0476C61.4324 64.1525 60.309 65.3216 59.1469 66.555C57.9847 67.7883 56.8872 68.9446 55.8543 70.0238C54.8212 71.103 53.9562 72.0279 53.2589 72.7988C52.5617 73.5697 52.1355 74.0322 51.9806 74.1864C51.6707 74.4947 51.4124 74.803 51.2058 75.1114C50.9993 75.4197 50.7152 75.5739 50.3536 75.5739C50.0954 75.5739 49.863 75.4711 49.6563 75.2656C49.4498 75.06 49.3465 74.8545 49.3465 74.6488C49.3465 74.3918 49.4498 74.1478 49.6563 73.9166C49.863 73.6854 50.0954 73.4412 50.3536 73.1843C51.2317 72.3621 52.355 71.1287 53.7237 69.4842C55.0925 67.8397 56.5644 66.0026 58.1396 63.9726C59.715 61.9427 61.329 59.8229 62.9818 57.6132C64.6346 55.4034 66.1841 53.3093 67.6302 51.3307C69.0763 49.3522 70.3417 47.5922 71.4264 46.0504C72.511 44.5087 73.2599 43.4038 73.6731 42.7358C74.3446 41.708 74.8739 40.6545 75.2613 39.5753C75.6487 38.4961 75.8424 37.5197 75.8424 36.6461C75.8424 35.7211 75.597 34.963 75.1063 34.3721C74.6157 33.7811 73.8539 33.4856 72.8209 33.4856C71.2714 33.4856 69.4121 34.0509 67.2428 35.1814C65.0736 36.312 62.8009 37.7252 60.4251 39.4211C58.0493 41.117 55.7121 42.9284 53.4139 44.8556C51.1154 46.7827 49.0882 48.5428 47.3322 50.136C46.2992 51.0609 45.021 52.2942 43.4973 53.836C41.9736 55.3777 40.3854 57.035 38.7326 58.808C37.0798 60.581 35.427 62.3667 33.7742 64.1653C32.1216 65.964 30.6238 67.6213 29.2808 69.1373C27.938 70.6533 26.8146 71.9124 25.9108 72.9145C25.0069 73.9166 24.4776 74.4947 24.3226 74.6488C23.8061 75.3169 23.3413 75.6511 22.9281 75.6511C22.6698 75.6511 22.4374 75.561 22.2309 75.3812C22.0242 75.2014 21.921 74.9829 21.921 74.726C21.921 74.4176 22.1533 74.0322 22.6183 73.5697C23.3413 72.8502 24.2709 71.7711 25.4072 70.3321C26.5435 68.8932 27.7831 67.2616 29.1259 65.4373C30.4688 63.6129 31.8762 61.6601 33.3483 59.5787C34.8202 57.4975 36.2276 55.4291 37.5706 53.3735C38.8102 51.472 40.011 49.622 41.173 47.8234C42.3351 46.0247 43.3682 44.3032 44.2719 42.6587C45.1758 41.0142 45.886 39.4468 46.4025 37.9565C46.919 36.4662 47.1772 35.1044 47.1772 33.8711C47.1772 31.7126 46.5058 29.9012 45.1629 28.4366C43.82 26.972 42.051 25.7386 39.8561 24.7364C37.6609 23.7343 35.1559 22.8993 32.3411 22.2313C29.5263 21.5631 26.6467 20.9207 23.7028 20.3041C20.7588 19.6875 17.8794 19.0322 15.0645 18.3384C12.2497 17.6447 9.74467 16.7711 7.54961 15.7176C5.35447 14.6641 3.58555 13.3665 2.24275 11.8248C0.899792 10.2831 0.228394 8.35599 0.228394 6.04338C0.228394 5.16977 0.344531 4.43742 0.576966 3.84648C0.80948 3.25554 1.05475 2.75454 1.31301 2.34339C1.62284 1.88077 2.01023 1.49548 2.4751 1.18705C2.68171 1.03287 2.88824 0.955856 3.09493 0.955856C3.45642 0.955856 3.63728 1.11004 3.63728 1.41831C3.63728 1.57249 3.55972 1.72667 3.40476 1.88077C2.83667 2.54888 2.44928 3.17845 2.24275 3.76947C2.03606 4.36041 1.93276 4.91281 1.93276 5.42674C1.93276 7.01977 2.61715 8.35599 3.98585 9.43516C5.35447 10.5144 7.14939 11.465 9.37027 12.2872C11.5912 13.1095 14.122 13.829 16.9626 14.4457C19.8033 15.0623 22.7214 15.7047 25.7171 16.3728C28.7127 17.0409 31.6309 17.7731 34.4716 18.5697C37.3123 19.3662 39.8431 20.3298 42.064 21.4604C44.2849 22.591 46.0797 23.9528 47.4484 25.5459C48.8171 27.1389 49.5014 29.0661 49.5014 31.3272C49.5014 33.0745 49.127 35.0016 48.3781 37.1086C47.6291 39.2156 46.6866 41.3611 45.5503 43.5452C44.414 45.7292 43.2003 47.8491 41.9091 49.9046C40.6178 51.9603 39.4041 53.8103 38.2678 55.4548C37.1315 57.0993 36.1889 58.4482 35.44 59.5017C34.6912 60.5551 34.3166 61.1847 34.3166 61.3903C34.4716 61.2875 34.9364 60.8636 35.7111 60.1184C36.4859 59.3732 37.5189 58.3454 38.8102 57.035C40.1013 55.7246 41.6766 54.17 43.5359 52.3714C45.3953 50.5727 47.4872 48.5943 49.8113 46.4358C55.2344 41.5025 60.167 37.7124 64.6087 35.0659C69.0505 32.4193 72.6918 31.096 75.5325 31.096C76.5654 31.096 77.4306 31.3914 78.1278 31.9825C78.8251 32.5734 79.1737 33.6397 79.1737 35.1814C79.1737 36.2093 78.9929 37.2242 78.6314 38.2263C78.2698 39.2284 77.8308 40.192 77.3143 41.117C76.7979 42.042 76.2426 42.9028 75.6487 43.6993C75.0548 44.4959 74.5512 45.2025 74.1379 45.8192C73.9313 46.1275 73.5698 46.6285 73.0533 47.3223C72.5368 48.0161 71.9299 48.8127 71.2327 49.7119C70.5354 50.6113 69.7865 51.5748 68.986 52.6027C68.1853 53.6305 67.3977 54.6582 66.623 55.686C64.7636 58.1013 62.6978 60.7222 60.4251 63.5486C60.4251 63.5486 60.4768 63.5229 60.58 63.4716C61.9746 62.0326 63.7823 60.2725 66.0032 58.1912C68.2241 56.1099 70.6387 53.9517 73.247 51.7161C75.8552 49.4807 78.6184 47.258 81.5366 45.0483C84.4548 42.8385 87.3214 40.8601 90.1362 39.1127C92.9511 37.3656 95.6497 35.9523 98.2321 34.8732C100.815 33.7939 103.113 33.2543 105.127 33.2543C106.315 33.2543 107.348 33.5499 108.226 34.1408C109.104 34.7318 109.543 35.6954 109.543 37.0314V37.0314ZM219.731 68.9446C219.731 69.1501 219.654 69.3043 219.499 69.4071L216.013 70.7946C215.496 71.0002 214.838 71.27 214.037 71.604C213.237 71.938 212.371 72.2592 211.442 72.5675C210.512 72.876 209.608 73.1457 208.73 73.377C207.852 73.6082 207.077 73.7239 206.406 73.7239C205.425 73.7239 204.753 73.5312 204.392 73.1457C204.03 72.7603 203.849 72.2849 203.849 71.7196C203.849 71.1543 203.966 70.5505 204.198 69.9082C204.43 69.2658 204.689 68.6491 204.973 68.058C205.257 67.4671 205.515 66.9532 205.747 66.5164C205.98 66.0796 206.096 65.7841 206.096 65.6299C206.096 65.5786 206.045 65.5529 205.941 65.5529C205.735 65.5529 205.27 65.7584 204.547 66.1695C203.824 66.5806 202.997 67.0817 202.068 67.6728C201.138 68.2637 200.131 68.9189 199.046 69.6383C197.961 70.3578 196.928 71.0131 195.947 71.604C194.966 72.195 194.075 72.696 193.274 73.1072C192.474 73.5182 191.893 73.7239 191.531 73.7239C191.221 73.7239 190.95 73.6211 190.718 73.4155C190.485 73.21 190.369 72.953 190.369 72.6446C190.369 72.2336 190.55 71.7582 190.911 71.2186C191.273 70.679 191.686 70.1394 192.151 69.5998C192.616 69.0603 193.094 68.5334 193.584 68.0197C194.075 67.5057 194.449 67.0946 194.708 66.7862C194.759 66.7348 194.785 66.6577 194.785 66.555C194.785 66.4008 194.682 66.3237 194.475 66.3237C194.423 66.3237 194.152 66.4522 193.662 66.7091C189.592 68.8401 184.485 71.6426 179.854 71.6426C178.511 71.6426 177.478 71.2315 176.755 70.4092C175.412 71.7453 173.901 72.876 172.223 73.8009C170.544 74.726 168.878 75.1884 167.226 75.1884C166.502 75.1884 165.934 75.0215 165.521 74.6874C165.108 74.3534 164.901 73.7752 164.901 72.953C164.901 72.0998 165.231 71.0873 165.889 69.9153C162.432 71.2964 159.035 72.3832 155.446 73.3641C153.613 73.8651 152.076 74.1093 150.836 74.1093C149.803 74.1093 148.964 73.8652 148.319 73.377C147.673 72.8888 147.35 72.2592 147.35 71.4885C147.35 70.7689 147.582 70.1009 148.047 69.4842C148.512 68.8676 149.016 68.3279 149.558 67.8653C150.1 67.4029 150.591 67.0174 151.03 66.7091C151.469 66.4008 151.688 66.221 151.688 66.1695C151.688 66.0668 151.495 65.9897 151.108 65.9383C150.72 65.8868 150.062 65.7841 149.132 65.6299C148.564 65.5272 148.189 65.3601 148.009 65.1289C147.828 64.8977 147.737 64.6535 147.737 64.3967C147.737 64.0369 147.854 63.7156 148.086 63.4331C148.319 63.1504 148.486 62.9577 148.59 62.8549C149.623 62.1869 150.836 61.5187 152.231 60.8507C153.625 60.1826 155.007 59.5917 156.376 59.0777C157.744 58.5639 158.997 58.1528 160.133 57.8444C161.269 57.536 162.07 57.3818 162.535 57.3818C163.051 57.3818 163.529 57.4975 163.968 57.7287C164.407 57.9601 164.627 58.3583 164.627 58.9236C164.627 59.1805 164.497 59.4503 164.239 59.7329C163.981 60.0156 163.671 60.2725 163.31 60.5038C162.948 60.7351 162.561 60.9278 162.147 61.082C161.734 61.2362 161.373 61.3132 161.063 61.3132C160.805 61.3132 160.559 61.2618 160.327 61.159C160.094 61.0562 159.978 60.8763 159.978 60.6194C159.978 60.3111 160.107 59.9771 160.366 59.6174C160.469 59.5145 160.521 59.4118 160.521 59.309C160.521 59.2062 160.391 59.1548 160.133 59.1548C160.03 59.1548 159.875 59.1677 159.668 59.1934C159.462 59.2191 159.229 59.2577 158.971 59.309C158.558 59.4118 157.964 59.6045 157.189 59.8872C156.414 60.1698 155.64 60.4909 154.865 60.8507C154.09 61.2105 153.393 61.5444 152.773 61.8528C152.153 62.1611 151.766 62.3795 151.611 62.4823C151.404 62.6365 151.301 62.7906 151.301 62.9449C151.301 63.2017 151.456 63.3817 151.766 63.4844C152.768 63.6493 153.971 63.6386 155.097 63.6386C155.666 63.69 156.001 63.7928 156.105 63.947C156.208 64.1139 156.259 64.3708 156.259 64.7307C156.259 64.9876 156.208 65.2446 156.105 65.5014C156.001 65.7713 155.666 65.9511 155.097 66.054C154.013 66.3109 152.967 66.7477 151.96 67.3643C150.953 67.9938 150.449 68.8161 150.449 69.8567C150.449 70.5763 150.849 71.1158 151.65 71.4499C152.45 71.7839 153.212 71.9509 153.935 71.9509C155.278 71.9509 156.698 71.7582 158.196 71.3727C161.208 70.5976 163.932 69.7033 166.796 68.4821C167.653 67.2378 168.649 66.0302 169.782 64.8591C171.125 63.4716 172.507 62.2896 173.927 61.3132C175.347 60.3368 176.522 59.8486 177.452 59.8486C177.71 59.8486 177.956 59.9386 178.188 60.1184C178.42 60.2983 178.537 60.4653 178.537 60.6194C178.537 60.7222 178.459 60.7865 178.304 60.8121C178.149 60.8378 177.994 60.8507 177.839 60.8507C177.22 60.8507 176.354 61.2489 175.244 62.0455C174.134 62.842 173.036 63.7799 171.951 64.8591C170.867 65.9383 169.937 67.0689 169.162 68.2508C168.388 69.4328 168 70.4092 168 71.18C168 72.3106 168.568 72.876 169.705 72.876C170.634 72.876 171.68 72.5548 172.842 71.9124C174.004 71.27 175.102 70.4863 176.135 69.5613C175.773 68.8932 175.593 68.0453 175.593 67.0174C175.593 66.298 175.709 65.5656 175.941 64.8205C176.174 64.0755 176.496 63.4201 176.91 62.8549C177.323 62.2896 177.826 61.8271 178.42 61.4674C179.014 61.1077 179.673 60.9278 180.396 60.9278C181.377 60.9278 181.868 61.3903 181.868 62.3281C181.868 63.1504 181.519 64.191 180.822 65.4373C180.125 66.6834 179.182 67.9425 177.994 69.2401C178.562 69.9724 179.389 70.3321 180.474 70.3321C181.197 70.3321 181.945 70.2551 182.72 70.1009C187.734 69.1026 193.388 66.0951 197.574 63.0862C197.853 62.8947 198.294 62.7778 198.659 62.7778C199.072 62.7778 199.279 63.0605 199.279 63.6258C199.279 64.0369 199.046 64.5508 198.581 65.1674C198.116 65.7841 197.587 66.4137 196.993 67.056C196.399 67.6985 195.87 68.315 195.405 68.906C194.94 69.497 194.708 69.9467 194.708 70.2551C194.708 70.6662 194.914 70.8717 195.327 70.8717C195.637 70.8717 196.257 70.5763 197.187 69.9852C200.924 67.6098 205.475 64.1131 209.389 62.3153C209.724 62.1611 210.021 62.0841 210.28 62.0841C210.538 62.0841 210.693 62.174 210.745 62.3538C210.796 62.5338 210.822 62.675 210.822 62.7778C210.822 62.9834 210.77 63.1889 210.667 63.3944C210.564 63.6001 210.461 63.8056 210.357 64.0112C210.202 64.2167 209.944 64.5765 209.582 65.0904C209.221 65.6043 208.872 66.1695 208.536 66.7862C208.201 67.4029 207.891 68.0329 207.607 68.6748C207.323 69.3171 207.181 69.8953 207.181 70.4092C207.181 71.3342 207.723 71.7967 208.808 71.7967C209.376 71.7967 210.009 71.7069 210.706 71.5269C211.403 71.347 212.1 71.1415 212.798 70.9103C213.495 70.679 214.141 70.4478 214.734 70.2165C215.328 69.9852 215.78 69.8183 216.09 69.7155C217.123 69.3043 217.898 68.996 218.414 68.7904C218.724 68.6362 219.034 68.5077 219.344 68.4049C219.447 68.4049 219.538 68.4692 219.615 68.5977C219.693 68.7262 219.731 68.8419 219.731 68.9446V68.9446ZM180.474 63.5486C180.474 62.8292 180.009 62.4695 179.079 62.4695C178.511 62.4695 178.033 62.842 177.646 63.5872C177.258 64.3324 177.065 65.1674 177.065 66.0925C177.065 66.5036 177.091 66.8889 177.142 67.2488C177.194 67.6085 177.297 67.9682 177.452 68.3279C178.33 67.4543 179.053 66.5807 179.621 65.707C180.189 64.8334 180.474 64.1139 180.474 63.5486Z" fill="#94216C"/>
</svg>
