<svg width="17" height="17" viewBox="0 0 17 17" fill="none" xmlns="http://www.w3.org/2000/svg">
<path d="M8.705 2.2727C7.49055 2.26771 6.29809 2.5967 5.258 3.2237C4.21986 3.84984 3.37453 4.75019 2.815 5.8257C2.25616 6.89979 2.00549 8.1076 2.09074 9.31537C2.17599 10.5231 2.59383 11.6838 3.298 12.6687L2.668 14.5707L2.671 14.5727L2.487 15.1087L3.555 14.7927C3.55325 14.7908 3.55123 14.7891 3.549 14.7877L5.014 14.3277C6.30879 15.1997 7.86967 15.587 9.4219 15.4215C10.9741 15.2559 12.4182 14.5481 13.5 13.4227C14.2145 12.6783 14.7441 11.7765 15.0461 10.7899C15.3482 9.80326 15.4143 8.75951 15.239 7.7427C15.0625 6.72529 14.649 5.7637 14.032 4.9357C13.4145 4.10708 12.6113 3.43476 11.687 2.9727C10.7612 2.51005 9.73998 2.27033 8.705 2.2727ZM8.718 16.6967C7.35176 16.699 6.00818 16.3476 4.818 15.6767L0.5 17.0547L1.919 12.8547C1.02324 11.3613 0.648777 9.6128 0.854387 7.88358C1.06 6.15435 1.83404 4.54237 3.055 3.3007C4.27919 2.05635 5.87941 1.25022 7.60797 1.00708C9.33653 0.76394 11.097 1.09735 12.617 1.9557C14.1349 2.81245 15.3266 4.14755 16.006 5.7527C16.6839 7.35593 16.8102 9.13892 16.365 10.8217C15.9188 12.5059 14.9271 13.9948 13.545 15.0557C12.1603 16.1186 10.4636 16.6951 8.718 16.6957V16.6967ZM4.872 7.1897C4.844 6.8197 4.917 6.4507 5.082 6.1197C5.132 5.9867 5.202 5.8627 5.289 5.7517C5.445 5.5417 5.653 5.3757 5.893 5.2717C5.893 5.2717 6.605 5.2017 6.667 5.2967C6.997 5.8677 7.273 6.4687 7.492 7.0907C7.601 7.4967 7.028 7.9607 7.028 7.9607C7.028 7.9607 6.666 8.1457 7.028 8.6017C7.298 8.9417 7.758 9.5357 8.035 9.7547C8.327 9.9927 8.637 10.2067 8.963 10.3947C9.638 10.7677 9.763 10.7287 9.763 10.7287C9.763 10.7287 9.888 10.7787 10.227 10.3187C10.408 10.0737 10.607 9.7867 10.795 9.7287C11.013 9.6627 12.775 10.6707 12.705 10.6007C12.828 10.7237 12.73 11.1207 12.73 11.1207C12.73 11.1207 12.768 11.5657 12.097 12.0777C11.655 12.4157 10.924 12.4967 10.924 12.4967C10.4635 12.4639 10.0109 12.3604 9.582 12.1897C8.867 11.9207 8.112 11.6947 7.132 10.8057C6.45093 10.1901 5.85891 9.48263 5.373 8.7037C4.858 7.8177 4.872 7.1897 4.872 7.1897Z" fill="#752763"/>
</svg>
