<svg width="223" height="15" viewBox="0 0 223 15" fill="none" xmlns="http://www.w3.org/2000/svg">
<path d="M0.380859 0.935547H1.46777V6.71191C1.46777 6.93066 1.46549 7.16992 1.46094 7.42969C1.45638 7.6849 1.44954 7.93555 1.44043 8.18164C1.43132 8.42773 1.41992 8.65104 1.40625 8.85156C1.39714 9.05208 1.38802 9.20703 1.37891 9.31641H1.43359L6.99805 0.935547H8.27637V10.9297H7.18945V5.22168C7.18945 4.98014 7.19401 4.72493 7.20312 4.45605C7.21224 4.18262 7.22135 3.91829 7.23047 3.66309C7.24414 3.40788 7.25781 3.18001 7.27148 2.97949C7.28516 2.77441 7.29427 2.61719 7.29883 2.50781H7.2373L1.66602 10.9297H0.380859V0.935547ZM14.1607 3.30078C14.7213 3.30078 15.2066 3.37826 15.6168 3.5332C16.027 3.68359 16.3437 3.90462 16.567 4.19629C16.7903 4.48796 16.902 4.84342 16.902 5.2627C16.902 5.71387 16.7789 6.07389 16.5328 6.34277C16.2867 6.61165 15.9472 6.80534 15.5143 6.92383V6.97852C15.8196 7.06055 16.0953 7.17904 16.3414 7.33398C16.5921 7.48438 16.7903 7.6849 16.9361 7.93555C17.0865 8.18164 17.1617 8.48926 17.1617 8.8584C17.1617 9.27767 17.0478 9.65592 16.8199 9.99316C16.5921 10.3258 16.2457 10.5879 15.7809 10.7793C15.316 10.9707 14.7281 11.0664 14.0172 11.0664C13.6663 11.0664 13.3336 11.0459 13.0191 11.0049C12.7047 10.9684 12.4199 10.9137 12.1646 10.8408C11.9094 10.7679 11.6861 10.6813 11.4947 10.5811V9.54883C11.8137 9.70378 12.1874 9.84049 12.6158 9.95898C13.0442 10.0775 13.5068 10.1367 14.0035 10.1367C14.3863 10.1367 14.7304 10.0934 15.0357 10.0068C15.3411 9.91569 15.5826 9.77214 15.7604 9.57617C15.9426 9.37565 16.0338 9.11361 16.0338 8.79004C16.0338 8.49382 15.954 8.25 15.7945 8.05859C15.635 7.86263 15.3958 7.71908 15.0768 7.62793C14.7623 7.53223 14.3635 7.48438 13.8805 7.48438H12.8756V6.55469H13.7027C14.3453 6.55469 14.858 6.46354 15.2408 6.28125C15.6236 6.09896 15.815 5.79134 15.815 5.3584C15.815 4.9847 15.6669 4.70671 15.3707 4.52441C15.0745 4.33757 14.6507 4.24414 14.0992 4.24414C13.6891 4.24414 13.3268 4.28743 13.0123 4.37402C12.6979 4.45605 12.3583 4.57454 11.9937 4.72949L11.5904 3.82031C11.9824 3.64714 12.3925 3.51725 12.8209 3.43066C13.2493 3.34408 13.6959 3.30078 14.1607 3.30078ZM24.9465 3.4375V4.40137H21.5422V10.9297H20.4006V3.4375H24.9465ZM34.3035 7.16992C34.3035 7.78516 34.2238 8.33431 34.0643 8.81738C33.9048 9.30046 33.6746 9.70833 33.3738 10.041C33.073 10.3737 32.7085 10.6289 32.2801 10.8066C31.8563 10.9798 31.3755 11.0664 30.8377 11.0664C30.3364 11.0664 29.8761 10.9798 29.4568 10.8066C29.0421 10.6289 28.6821 10.3737 28.3768 10.041C28.076 9.70833 27.8413 9.30046 27.6727 8.81738C27.5086 8.33431 27.4266 7.78516 27.4266 7.16992C27.4266 6.34961 27.5656 5.65234 27.8436 5.07812C28.1216 4.49935 28.518 4.05957 29.033 3.75879C29.5525 3.45345 30.1701 3.30078 30.8855 3.30078C31.5691 3.30078 32.1661 3.45345 32.6766 3.75879C33.1915 4.06413 33.5903 4.50618 33.8729 5.08496C34.16 5.65918 34.3035 6.35417 34.3035 7.16992ZM28.6023 7.16992C28.6023 7.77148 28.6821 8.29329 28.8416 8.73535C29.0011 9.17741 29.2472 9.51921 29.5799 9.76074C29.9126 10.0023 30.341 10.123 30.865 10.123C31.3846 10.123 31.8107 10.0023 32.1434 9.76074C32.4806 9.51921 32.729 9.17741 32.8885 8.73535C33.048 8.29329 33.1277 7.77148 33.1277 7.16992C33.1277 6.57292 33.048 6.05794 32.8885 5.625C32.729 5.1875 32.4829 4.85026 32.1502 4.61328C31.8175 4.3763 31.3868 4.25781 30.8582 4.25781C30.0789 4.25781 29.507 4.5153 29.1424 5.03027C28.7824 5.54525 28.6023 6.25846 28.6023 7.16992ZM42.7719 4.40137H40.3041V10.9297H39.183V4.40137H36.7494V3.4375H42.7719V4.40137ZM52.1152 7.16992C52.1152 7.78516 52.0355 8.33431 51.876 8.81738C51.7165 9.30046 51.4863 9.70833 51.1855 10.041C50.8848 10.3737 50.5202 10.6289 50.0918 10.8066C49.668 10.9798 49.1872 11.0664 48.6494 11.0664C48.1481 11.0664 47.6878 10.9798 47.2686 10.8066C46.8538 10.6289 46.4938 10.3737 46.1885 10.041C45.8877 9.70833 45.653 9.30046 45.4844 8.81738C45.3203 8.33431 45.2383 7.78516 45.2383 7.16992C45.2383 6.34961 45.3773 5.65234 45.6553 5.07812C45.9333 4.49935 46.3298 4.05957 46.8447 3.75879C47.3643 3.45345 47.9818 3.30078 48.6973 3.30078C49.3809 3.30078 49.9779 3.45345 50.4883 3.75879C51.0033 4.06413 51.402 4.50618 51.6846 5.08496C51.9717 5.65918 52.1152 6.35417 52.1152 7.16992ZM46.4141 7.16992C46.4141 7.77148 46.4938 8.29329 46.6533 8.73535C46.8128 9.17741 47.0589 9.51921 47.3916 9.76074C47.7243 10.0023 48.1527 10.123 48.6768 10.123C49.1963 10.123 49.6224 10.0023 49.9551 9.76074C50.2923 9.51921 50.5407 9.17741 50.7002 8.73535C50.8597 8.29329 50.9395 7.77148 50.9395 7.16992C50.9395 6.57292 50.8597 6.05794 50.7002 5.625C50.5407 5.1875 50.2946 4.85026 49.9619 4.61328C49.6292 4.3763 49.1986 4.25781 48.6699 4.25781C47.8906 4.25781 47.3187 4.5153 46.9541 5.03027C46.5941 5.54525 46.4141 6.25846 46.4141 7.16992ZM61.4313 5.31738C61.4313 5.78678 61.2945 6.15365 61.0211 6.41797C60.7477 6.67773 60.3945 6.85319 59.9615 6.94434V6.99902C60.4309 7.06283 60.8342 7.23145 61.1715 7.50488C61.5133 7.77376 61.6842 8.1862 61.6842 8.74219C61.6842 9.17057 61.5816 9.54883 61.3766 9.87695C61.1715 10.2051 60.8502 10.4626 60.4127 10.6494C59.9752 10.8363 59.4055 10.9297 58.7037 10.9297H55.4771V3.4375H58.6764C59.2141 3.4375 59.6881 3.49902 60.0982 3.62207C60.513 3.74056 60.8388 3.93652 61.0758 4.20996C61.3128 4.4834 61.4313 4.85254 61.4313 5.31738ZM60.5016 8.74219C60.5016 8.30013 60.3329 7.98112 59.9957 7.78516C59.663 7.58919 59.1777 7.49121 58.5396 7.49121H56.6188V10.0068H58.567C59.1959 10.0068 59.6744 9.91113 60.0025 9.71973C60.3352 9.52376 60.5016 9.19792 60.5016 8.74219ZM60.276 5.44727C60.276 5.0918 60.1461 4.82747 59.8863 4.6543C59.6266 4.47656 59.2005 4.3877 58.608 4.3877H56.6188V6.54102H58.4098C59.025 6.54102 59.4898 6.45215 59.8043 6.27441C60.1188 6.09668 60.276 5.82096 60.276 5.44727ZM70.5354 10.9297H69.3801V4.3877H67.1037C67.0126 5.56803 66.8964 6.57975 66.7551 7.42285C66.6184 8.26139 66.4452 8.94727 66.2355 9.48047C66.0305 10.0091 65.7798 10.3988 65.4836 10.6494C65.1919 10.8955 64.8433 11.0186 64.4377 11.0186C64.3147 11.0186 64.1984 11.0117 64.0891 10.998C63.9797 10.9844 63.8863 10.9616 63.8088 10.9297V10.0684C63.868 10.0866 63.9296 10.1003 63.9934 10.1094C64.0617 10.1185 64.1324 10.123 64.2053 10.123C64.4104 10.123 64.5972 10.0387 64.7658 9.87012C64.939 9.69694 65.0939 9.43717 65.2307 9.09082C65.3719 8.74447 65.4973 8.30697 65.6066 7.77832C65.716 7.24512 65.8117 6.61849 65.8938 5.89844C65.9803 5.17383 66.0555 4.35352 66.1193 3.4375H70.5354V10.9297ZM77.2127 3.30078C77.8507 3.30078 78.3976 3.44206 78.8533 3.72461C79.309 4.00716 79.6577 4.40365 79.8992 4.91406C80.1408 5.41992 80.2615 6.01237 80.2615 6.69141V7.39551H75.0867C75.1004 8.27507 75.3191 8.94499 75.743 9.40527C76.1668 9.86556 76.7638 10.0957 77.534 10.0957C78.0079 10.0957 78.4272 10.0524 78.7918 9.96582C79.1564 9.87923 79.5346 9.75163 79.9266 9.58301V10.5811C79.5483 10.7497 79.1723 10.8727 78.7986 10.9502C78.4295 11.0277 77.992 11.0664 77.4861 11.0664C76.7661 11.0664 76.1372 10.9206 75.5994 10.6289C75.0662 10.3327 74.6515 9.89974 74.3553 9.33008C74.059 8.76042 73.9109 8.06315 73.9109 7.23828C73.9109 6.43164 74.0454 5.73438 74.3143 5.14648C74.5877 4.55404 74.9705 4.09831 75.4627 3.7793C75.9594 3.46029 76.5428 3.30078 77.2127 3.30078ZM77.199 4.23047C76.5929 4.23047 76.1098 4.42871 75.7498 4.8252C75.3898 5.22168 75.1756 5.77539 75.1072 6.48633H79.0721C79.0675 6.03971 78.9969 5.64779 78.8602 5.31055C78.728 4.96875 78.5252 4.70443 78.2518 4.51758C77.9783 4.32617 77.6274 4.23047 77.199 4.23047ZM84.7309 3.4375V6.58203H88.9076V3.4375H90.0424V10.9297H88.9076V7.5459H84.7309V10.9297H83.5893V3.4375H84.7309ZM94.9287 3.4375V8.14746C94.9287 8.23861 94.9264 8.3571 94.9219 8.50293C94.9173 8.64421 94.9105 8.79688 94.9014 8.96094C94.8923 9.12044 94.8831 9.27539 94.874 9.42578C94.8695 9.57161 94.8626 9.69238 94.8535 9.78809L98.9414 3.4375H100.336V10.9297H99.2764V6.33594C99.2764 6.1901 99.2786 6.00326 99.2832 5.77539C99.2878 5.54753 99.2946 5.32422 99.3037 5.10547C99.3128 4.88216 99.3197 4.70898 99.3242 4.58594L95.25 10.9297H93.8486V3.4375H94.9287ZM107.034 3.30078C107.672 3.30078 108.219 3.44206 108.674 3.72461C109.13 4.00716 109.479 4.40365 109.72 4.91406C109.962 5.41992 110.083 6.01237 110.083 6.69141V7.39551H104.908C104.921 8.27507 105.14 8.94499 105.564 9.40527C105.988 9.86556 106.585 10.0957 107.355 10.0957C107.829 10.0957 108.248 10.0524 108.613 9.96582C108.977 9.87923 109.356 9.75163 109.748 9.58301V10.5811C109.369 10.7497 108.993 10.8727 108.62 10.9502C108.251 11.0277 107.813 11.0664 107.307 11.0664C106.587 11.0664 105.958 10.9206 105.421 10.6289C104.887 10.3327 104.473 9.89974 104.176 9.33008C103.88 8.76042 103.732 8.06315 103.732 7.23828C103.732 6.43164 103.866 5.73438 104.135 5.14648C104.409 4.55404 104.792 4.09831 105.284 3.7793C105.781 3.46029 106.364 3.30078 107.034 3.30078ZM107.02 4.23047C106.414 4.23047 105.931 4.42871 105.571 4.8252C105.211 5.22168 104.997 5.77539 104.928 6.48633H108.893C108.889 6.03971 108.818 5.64779 108.681 5.31055C108.549 4.96875 108.346 4.70443 108.073 4.51758C107.799 4.32617 107.449 4.23047 107.02 4.23047ZM120.375 3.30078C120.935 3.30078 121.421 3.37826 121.831 3.5332C122.241 3.68359 122.558 3.90462 122.781 4.19629C123.004 4.48796 123.116 4.84342 123.116 5.2627C123.116 5.71387 122.993 6.07389 122.747 6.34277C122.501 6.61165 122.161 6.80534 121.728 6.92383V6.97852C122.034 7.06055 122.309 7.17904 122.555 7.33398C122.806 7.48438 123.004 7.6849 123.15 7.93555C123.301 8.18164 123.376 8.48926 123.376 8.8584C123.376 9.27767 123.262 9.65592 123.034 9.99316C122.806 10.3258 122.46 10.5879 121.995 10.7793C121.53 10.9707 120.942 11.0664 120.231 11.0664C119.88 11.0664 119.548 11.0459 119.233 11.0049C118.919 10.9684 118.634 10.9137 118.379 10.8408C118.123 10.7679 117.9 10.6813 117.709 10.5811V9.54883C118.028 9.70378 118.401 9.84049 118.83 9.95898C119.258 10.0775 119.721 10.1367 120.218 10.1367C120.6 10.1367 120.944 10.0934 121.25 10.0068C121.555 9.91569 121.797 9.77214 121.974 9.57617C122.157 9.37565 122.248 9.11361 122.248 8.79004C122.248 8.49382 122.168 8.25 122.009 8.05859C121.849 7.86263 121.61 7.71908 121.291 7.62793C120.976 7.53223 120.578 7.48438 120.095 7.48438H119.09V6.55469H119.917C120.559 6.55469 121.072 6.46354 121.455 6.28125C121.838 6.09896 122.029 5.79134 122.029 5.3584C122.029 4.9847 121.881 4.70671 121.585 4.52441C121.289 4.33757 120.865 4.24414 120.313 4.24414C119.903 4.24414 119.541 4.28743 119.226 4.37402C118.912 4.45605 118.572 4.57454 118.208 4.72949L117.804 3.82031C118.196 3.64714 118.607 3.51725 119.035 3.43066C119.463 3.34408 119.91 3.30078 120.375 3.30078ZM129.499 3.30078C130.137 3.30078 130.684 3.44206 131.14 3.72461C131.596 4.00716 131.944 4.40365 132.186 4.91406C132.427 5.41992 132.548 6.01237 132.548 6.69141V7.39551H127.373C127.387 8.27507 127.606 8.94499 128.03 9.40527C128.454 9.86556 129.051 10.0957 129.821 10.0957C130.295 10.0957 130.714 10.0524 131.079 9.96582C131.443 9.87923 131.821 9.75163 132.213 9.58301V10.5811C131.835 10.7497 131.459 10.8727 131.085 10.9502C130.716 11.0277 130.279 11.0664 129.773 11.0664C129.053 11.0664 128.424 10.9206 127.886 10.6289C127.353 10.3327 126.938 9.89974 126.642 9.33008C126.346 8.76042 126.198 8.06315 126.198 7.23828C126.198 6.43164 126.332 5.73438 126.601 5.14648C126.874 4.55404 127.257 4.09831 127.749 3.7793C128.246 3.46029 128.829 3.30078 129.499 3.30078ZM129.486 4.23047C128.88 4.23047 128.397 4.42871 128.037 4.8252C127.676 5.22168 127.462 5.77539 127.394 6.48633H131.359C131.354 6.03971 131.284 5.64779 131.147 5.31055C131.015 4.96875 130.812 4.70443 130.538 4.51758C130.265 4.32617 129.914 4.23047 129.486 4.23047ZM139.396 3.30078C140.331 3.30078 141.076 3.62207 141.632 4.26465C142.188 4.90723 142.466 5.87337 142.466 7.16309C142.466 8.0153 142.338 8.73079 142.083 9.30957C141.828 9.88835 141.468 10.3258 141.003 10.6221C140.543 10.9183 139.998 11.0664 139.369 11.0664C138.973 11.0664 138.624 11.014 138.323 10.9092C138.022 10.8044 137.765 10.6631 137.551 10.4854C137.337 10.3076 137.159 10.1139 137.018 9.9043H136.936C136.949 10.082 136.965 10.2962 136.983 10.5469C137.006 10.7975 137.018 11.0163 137.018 11.2031V14.2793H135.876V3.4375H136.812L136.963 4.54492H137.018C137.163 4.31706 137.341 4.1097 137.551 3.92285C137.76 3.73145 138.016 3.58105 138.316 3.47168C138.622 3.35775 138.982 3.30078 139.396 3.30078ZM139.198 4.25781C138.679 4.25781 138.259 4.35807 137.94 4.55859C137.626 4.75911 137.396 5.0599 137.25 5.46094C137.104 5.85742 137.027 6.35645 137.018 6.95801V7.17676C137.018 7.81022 137.086 8.3457 137.223 8.7832C137.364 9.2207 137.594 9.55339 137.913 9.78125C138.237 10.0091 138.67 10.123 139.212 10.123C139.677 10.123 140.064 9.99772 140.374 9.74707C140.684 9.49642 140.914 9.14779 141.064 8.70117C141.219 8.25 141.297 7.73275 141.297 7.14941C141.297 6.2653 141.124 5.56348 140.777 5.04395C140.436 4.51986 139.909 4.25781 139.198 4.25781ZM150.216 3.4375H151.467L148.234 7.05371L151.727 10.9297H150.394L146.99 7.12891V10.9297H145.848V3.4375H146.99V7.07422L150.216 3.4375ZM157.283 3.31445C158.177 3.31445 158.84 3.51497 159.273 3.91602C159.706 4.31706 159.922 4.95736 159.922 5.83691V10.9297H159.095L158.876 9.82227H158.821C158.612 10.0957 158.393 10.3258 158.165 10.5127C157.937 10.695 157.673 10.834 157.372 10.9297C157.076 11.0208 156.711 11.0664 156.279 11.0664C155.823 11.0664 155.417 10.9867 155.062 10.8271C154.711 10.6676 154.433 10.4261 154.228 10.1025C154.027 9.77897 153.927 9.36882 153.927 8.87207C153.927 8.12467 154.223 7.55046 154.816 7.14941C155.408 6.74837 156.31 6.52962 157.523 6.49316L158.815 6.43848V5.98047C158.815 5.33333 158.676 4.87988 158.398 4.62012C158.12 4.36035 157.728 4.23047 157.222 4.23047C156.83 4.23047 156.456 4.28743 156.101 4.40137C155.745 4.5153 155.408 4.64974 155.089 4.80469L154.74 3.94336C155.078 3.77018 155.465 3.62207 155.903 3.49902C156.34 3.37598 156.8 3.31445 157.283 3.31445ZM158.801 7.23828L157.659 7.28613C156.725 7.32259 156.067 7.47526 155.684 7.74414C155.301 8.01302 155.11 8.39355 155.11 8.88574C155.11 9.31413 155.239 9.63086 155.499 9.83594C155.759 10.041 156.103 10.1436 156.531 10.1436C157.197 10.1436 157.741 9.95898 158.165 9.58984C158.589 9.2207 158.801 8.66699 158.801 7.92871V7.23828ZM169.279 10.9297H168.124V4.3877H165.847C165.756 5.56803 165.64 6.57975 165.499 7.42285C165.362 8.26139 165.189 8.94727 164.979 9.48047C164.774 10.0091 164.524 10.3988 164.227 10.6494C163.936 10.8955 163.587 11.0186 163.181 11.0186C163.058 11.0186 162.942 11.0117 162.833 10.998C162.723 10.9844 162.63 10.9616 162.553 10.9297V10.0684C162.612 10.0866 162.673 10.1003 162.737 10.1094C162.805 10.1185 162.876 10.123 162.949 10.123C163.154 10.123 163.341 10.0387 163.51 9.87012C163.683 9.69694 163.838 9.43717 163.974 9.09082C164.116 8.74447 164.241 8.30697 164.35 7.77832C164.46 7.24512 164.555 6.61849 164.637 5.89844C164.724 5.17383 164.799 4.35352 164.863 3.4375H169.279V10.9297ZM180.036 3.30078C180.597 3.30078 181.082 3.37826 181.492 3.5332C181.902 3.68359 182.219 3.90462 182.442 4.19629C182.666 4.48796 182.777 4.84342 182.777 5.2627C182.777 5.71387 182.654 6.07389 182.408 6.34277C182.162 6.61165 181.823 6.80534 181.39 6.92383V6.97852C181.695 7.06055 181.971 7.17904 182.217 7.33398C182.467 7.48438 182.666 7.6849 182.812 7.93555C182.962 8.18164 183.037 8.48926 183.037 8.8584C183.037 9.27767 182.923 9.65592 182.695 9.99316C182.467 10.3258 182.121 10.5879 181.656 10.7793C181.191 10.9707 180.604 11.0664 179.893 11.0664C179.542 11.0664 179.209 11.0459 178.895 11.0049C178.58 10.9684 178.295 10.9137 178.04 10.8408C177.785 10.7679 177.562 10.6813 177.37 10.5811V9.54883C177.689 9.70378 178.063 9.84049 178.491 9.95898C178.92 10.0775 179.382 10.1367 179.879 10.1367C180.262 10.1367 180.606 10.0934 180.911 10.0068C181.216 9.91569 181.458 9.77214 181.636 9.57617C181.818 9.37565 181.909 9.11361 181.909 8.79004C181.909 8.49382 181.829 8.25 181.67 8.05859C181.51 7.86263 181.271 7.71908 180.952 7.62793C180.638 7.53223 180.239 7.48438 179.756 7.48438H178.751V6.55469H179.578C180.221 6.55469 180.733 6.46354 181.116 6.28125C181.499 6.09896 181.69 5.79134 181.69 5.3584C181.69 4.9847 181.542 4.70671 181.246 4.52441C180.95 4.33757 180.526 4.24414 179.975 4.24414C179.564 4.24414 179.202 4.28743 178.888 4.37402C178.573 4.45605 178.234 4.57454 177.869 4.72949L177.466 3.82031C177.858 3.64714 178.268 3.51725 178.696 3.43066C179.125 3.34408 179.571 3.30078 180.036 3.30078ZM189.079 3.31445C189.972 3.31445 190.635 3.51497 191.068 3.91602C191.501 4.31706 191.717 4.95736 191.717 5.83691V10.9297H190.89L190.671 9.82227H190.617C190.407 10.0957 190.188 10.3258 189.961 10.5127C189.733 10.695 189.468 10.834 189.168 10.9297C188.871 11.0208 188.507 11.0664 188.074 11.0664C187.618 11.0664 187.212 10.9867 186.857 10.8271C186.506 10.6676 186.228 10.4261 186.023 10.1025C185.823 9.77897 185.722 9.36882 185.722 8.87207C185.722 8.12467 186.018 7.55046 186.611 7.14941C187.203 6.74837 188.106 6.52962 189.318 6.49316L190.61 6.43848V5.98047C190.61 5.33333 190.471 4.87988 190.193 4.62012C189.915 4.36035 189.523 4.23047 189.017 4.23047C188.625 4.23047 188.252 4.28743 187.896 4.40137C187.541 4.5153 187.203 4.64974 186.884 4.80469L186.536 3.94336C186.873 3.77018 187.26 3.62207 187.698 3.49902C188.135 3.37598 188.596 3.31445 189.079 3.31445ZM190.596 7.23828L189.455 7.28613C188.52 7.32259 187.862 7.47526 187.479 7.74414C187.096 8.01302 186.905 8.39355 186.905 8.88574C186.905 9.31413 187.035 9.63086 187.295 9.83594C187.554 10.041 187.898 10.1436 188.327 10.1436C188.992 10.1436 189.537 9.95898 189.961 9.58984C190.384 9.2207 190.596 8.66699 190.596 7.92871V7.23828ZM199.823 3.4375H201.074L197.841 7.05371L201.334 10.9297H200.001L196.597 7.12891V10.9297H195.455V3.4375H196.597V7.07422L199.823 3.4375ZM206.89 3.31445C207.784 3.31445 208.447 3.51497 208.88 3.91602C209.313 4.31706 209.529 4.95736 209.529 5.83691V10.9297H208.702L208.483 9.82227H208.429C208.219 10.0957 208 10.3258 207.772 10.5127C207.544 10.695 207.28 10.834 206.979 10.9297C206.683 11.0208 206.318 11.0664 205.886 11.0664C205.43 11.0664 205.024 10.9867 204.669 10.8271C204.318 10.6676 204.04 10.4261 203.835 10.1025C203.634 9.77897 203.534 9.36882 203.534 8.87207C203.534 8.12467 203.83 7.55046 204.423 7.14941C205.015 6.74837 205.917 6.52962 207.13 6.49316L208.422 6.43848V5.98047C208.422 5.33333 208.283 4.87988 208.005 4.62012C207.727 4.36035 207.335 4.23047 206.829 4.23047C206.437 4.23047 206.063 4.28743 205.708 4.40137C205.352 4.5153 205.015 4.64974 204.696 4.80469L204.347 3.94336C204.685 3.77018 205.072 3.62207 205.51 3.49902C205.947 3.37598 206.407 3.31445 206.89 3.31445ZM208.408 7.23828L207.266 7.28613C206.332 7.32259 205.674 7.47526 205.291 7.74414C204.908 8.01302 204.717 8.39355 204.717 8.88574C204.717 9.31413 204.846 9.63086 205.106 9.83594C205.366 10.041 205.71 10.1436 206.138 10.1436C206.804 10.1436 207.348 9.95898 207.772 9.58984C208.196 9.2207 208.408 8.66699 208.408 7.92871V7.23828ZM215.195 3.30078C215.755 3.30078 216.241 3.37826 216.651 3.5332C217.061 3.68359 217.378 3.90462 217.601 4.19629C217.824 4.48796 217.936 4.84342 217.936 5.2627C217.936 5.71387 217.813 6.07389 217.567 6.34277C217.321 6.61165 216.981 6.80534 216.548 6.92383V6.97852C216.854 7.06055 217.129 7.17904 217.375 7.33398C217.626 7.48438 217.824 7.6849 217.97 7.93555C218.121 8.18164 218.196 8.48926 218.196 8.8584C218.196 9.27767 218.082 9.65592 217.854 9.99316C217.626 10.3258 217.28 10.5879 216.815 10.7793C216.35 10.9707 215.762 11.0664 215.051 11.0664C214.7 11.0664 214.368 11.0459 214.053 11.0049C213.739 10.9684 213.454 10.9137 213.199 10.8408C212.943 10.7679 212.72 10.6813 212.529 10.5811V9.54883C212.848 9.70378 213.221 9.84049 213.65 9.95898C214.078 10.0775 214.541 10.1367 215.038 10.1367C215.42 10.1367 215.764 10.0934 216.07 10.0068C216.375 9.91569 216.617 9.77214 216.794 9.57617C216.977 9.37565 217.068 9.11361 217.068 8.79004C217.068 8.49382 216.988 8.25 216.829 8.05859C216.669 7.86263 216.43 7.71908 216.111 7.62793C215.796 7.53223 215.398 7.48438 214.914 7.48438H213.91V6.55469H214.737C215.379 6.55469 215.892 6.46354 216.275 6.28125C216.658 6.09896 216.849 5.79134 216.849 5.3584C216.849 4.9847 216.701 4.70671 216.405 4.52441C216.108 4.33757 215.685 4.24414 215.133 4.24414C214.723 4.24414 214.361 4.28743 214.046 4.37402C213.732 4.45605 213.392 4.57454 213.028 4.72949L212.624 3.82031C213.016 3.64714 213.427 3.51725 213.855 3.43066C214.283 3.34408 214.73 3.30078 215.195 3.30078ZM221.264 10.2188C221.264 9.89974 221.341 9.67415 221.496 9.54199C221.651 9.40527 221.84 9.33691 222.063 9.33691C222.296 9.33691 222.492 9.40527 222.651 9.54199C222.811 9.67415 222.891 9.89974 222.891 10.2188C222.891 10.5332 222.811 10.7633 222.651 10.9092C222.492 11.0505 222.296 11.1211 222.063 11.1211C221.84 11.1211 221.651 11.0505 221.496 10.9092C221.341 10.7633 221.264 10.5332 221.264 10.2188Z" fill="black"/>
</svg>
